<svg width="126" height="126" viewBox="0 0 126 126" fill="none" xmlns="http://www.w3.org/2000/svg">
<path d="M97.7943 73.0036H81.9843V66.5814H89.0081C90.4181 66.5814 91.5637 65.4362 91.5637 64.0266V61.7185C91.5637 60.3089 90.4181 59.1637 89.0081 59.1637H81.9843V53.2436H97.1422C98.5522 53.2436 99.6979 52.0984 99.6979 50.6888V48.1252C99.6979 46.7157 98.5522 45.5704 97.1422 45.5704H76.7495V39.016C76.7495 38.3553 76.212 37.8179 75.551 37.8179L56.0925 37.8003C46.989 37.7915 39.6127 45.1652 39.6039 54.2655V59.1461H30.9145C29.4957 59.1461 28.35 60.3001 28.35 61.7097V63.8328C28.35 65.2512 29.4957 66.3964 30.9145 66.3964H39.5951V71.7086C39.5863 80.809 46.9625 88.1915 56.0661 88.1915L75.5246 88.2003C76.1855 88.2003 76.7231 87.6629 76.7231 87.0022V80.6768H97.7943C99.2044 80.6768 100.35 79.5316 100.35 78.1221V75.5584C100.35 74.1401 99.2044 73.0036 97.7943 73.0036Z" fill="#8ABC95"/>
<rect x="14.9083" y="14.9085" width="96.1833" height="96.1833" rx="29.1916" stroke="#8ABC95" stroke-width="4.61672"/>
</svg>
