<svg width="1400" height="656" viewBox="0 0 1400 656" fill="none" xmlns="http://www.w3.org/2000/svg">
<rect x="1094" y="287" width="104" height="32" rx="16" fill="#8ABC95"/>
<rect x="1094" y="250" width="104" height="32" rx="16" fill="#8ABC95"/>
<rect x="1094" y="324" width="104" height="32" rx="16" fill="#8ABC95"/>
<rect x="100" y="181" width="250" height="174" rx="25" fill="#8ABC95"/>
<rect x="137" y="202" width="176" height="122" rx="10" fill="white"/>
<rect x="448" y="76" width="504" height="542" rx="25" fill="#8ABC95"/>
<rect width="359" height="224" rx="25" transform="matrix(1 0 0 -1 521 338)" fill="white"/>
<rect width="123" height="76" rx="25" transform="matrix(1 0 0 -1 543 302)" fill="#8ABC95"/>
<rect width="123" height="76" rx="25" transform="matrix(1 0 0 -1 735 302)" fill="#8ABC95"/>
<rect width="25" height="76" rx="12.5" transform="matrix(1 0 0 -1 565 284)" fill="#8ABC95"/>
<rect width="25" height="76" rx="12.5" transform="matrix(1 0 0 -1 757 284)" fill="#8ABC95"/>
<rect width="25" height="76" rx="12.5" transform="matrix(1 0 0 -1 619 284)" fill="#8ABC95"/>
<rect width="25" height="76" rx="12.5" transform="matrix(1 0 0 -1 811 284)" fill="#8ABC95"/>
<rect width="359" height="100" rx="25" transform="matrix(1 0 0 -1 521 524)" fill="white"/>
<circle cx="307" cy="338" r="6" fill="white"/>
<circle cx="1184" cy="340" r="6" fill="white"/>
<circle cx="1184" cy="304" r="6" fill="white"/>
<circle cx="1184" cy="267" r="6" fill="white"/>
<circle cx="864" cy="548" r="6" fill="white"/>
<circle cx="837" cy="548" r="6" fill="white"/>
<circle cx="296" cy="220" r="5.5" fill="white" stroke="#8ABC95"/>
<circle cx="290" cy="338" r="4" fill="white"/>
<circle cx="1167" cy="340" r="4" fill="white"/>
<circle cx="1167" cy="304" r="4" fill="white"/>
<circle cx="1167" cy="267" r="4" fill="white"/>
<path d="M117.576 366.086C120.403 363.155 124.3 361.5 128.372 361.5H322.074C326.178 361.5 330.102 363.181 332.933 366.152L344.845 378.652C353.944 388.201 347.176 404 333.986 404H116.313C103.079 404 96.3291 388.11 105.517 378.586L117.576 366.086Z" fill="#8ABC95"/>
<path d="M156.617 369.112C156.904 369.038 157.198 369 157.494 369H292.83C293.13 369 293.428 369.038 293.717 369.114C297.687 370.154 296.934 376 292.83 376H157.494C153.384 376 152.638 370.141 156.617 369.112Z" fill="white"/>
<path d="M535.617 542.112C535.904 542.038 536.198 542 536.494 542H671.83C672.13 542 672.428 542.038 672.717 542.114C676.687 543.154 675.934 549 671.83 549H536.494C532.384 549 531.638 543.141 535.617 542.112Z" fill="white"/>
<path d="M535.617 559.112C535.904 559.038 536.198 559 536.494 559H671.83C672.13 559 672.428 559.038 672.717 559.114C676.687 560.154 675.934 566 671.83 566H536.494C532.384 566 531.638 560.141 535.617 559.112Z" fill="white"/>
<path d="M535.617 576.112C535.904 576.038 536.198 576 536.494 576H671.83C672.13 576 672.428 576.038 672.717 576.114C676.687 577.154 675.934 583 671.83 583H536.494C532.384 583 531.638 577.141 535.617 576.112Z" fill="white"/>
<path d="M581.877 265.933H577.939V270H575.889V260.047H582.369V261.708H577.939V264.278H581.877V265.933ZM587.407 264.456C587.138 264.42 586.901 264.401 586.696 264.401C585.949 264.401 585.459 264.654 585.227 265.16V270H583.251V262.604H585.117L585.172 263.485C585.568 262.806 586.118 262.467 586.819 262.467C587.038 262.467 587.243 262.496 587.435 262.556L587.407 264.456ZM587.811 266.233C587.811 265.5 587.952 264.846 588.234 264.271C588.517 263.697 588.923 263.253 589.451 262.938C589.984 262.624 590.602 262.467 591.304 262.467C592.302 262.467 593.115 262.772 593.744 263.383C594.378 263.993 594.731 264.823 594.804 265.871L594.817 266.377C594.817 267.512 594.501 268.423 593.867 269.111C593.234 269.795 592.384 270.137 591.317 270.137C590.251 270.137 589.399 269.795 588.761 269.111C588.127 268.428 587.811 267.498 587.811 266.322V266.233ZM589.786 266.377C589.786 267.079 589.918 267.617 590.183 267.99C590.447 268.359 590.825 268.544 591.317 268.544C591.796 268.544 592.17 268.362 592.438 267.997C592.707 267.628 592.842 267.04 592.842 266.233C592.842 265.545 592.707 265.012 592.438 264.634C592.17 264.256 591.791 264.066 591.304 264.066C590.821 264.066 590.447 264.256 590.183 264.634C589.918 265.007 589.786 265.589 589.786 266.377ZM597.853 262.604L597.914 263.458C598.443 262.797 599.151 262.467 600.04 262.467C600.824 262.467 601.407 262.697 601.79 263.157C602.173 263.618 602.369 264.306 602.378 265.222V270H600.402V265.27C600.402 264.85 600.311 264.547 600.129 264.36C599.947 264.169 599.644 264.073 599.22 264.073C598.664 264.073 598.247 264.31 597.969 264.784V270H595.993V262.604H597.853ZM606.247 260.785V262.604H607.512V264.053H606.247V267.744C606.247 268.018 606.299 268.214 606.404 268.332C606.509 268.451 606.71 268.51 607.006 268.51C607.225 268.51 607.418 268.494 607.587 268.462V269.959C607.2 270.077 606.801 270.137 606.391 270.137C605.005 270.137 604.299 269.437 604.271 268.038V264.053H603.191V262.604H604.271V260.785H606.247ZM612.017 270.137C610.932 270.137 610.048 269.804 609.364 269.139C608.685 268.473 608.346 267.587 608.346 266.479V266.288C608.346 265.545 608.489 264.882 608.776 264.299C609.063 263.711 609.469 263.26 609.993 262.945C610.522 262.626 611.123 262.467 611.798 262.467C612.81 262.467 613.605 262.786 614.184 263.424C614.767 264.062 615.059 264.966 615.059 266.138V266.944H610.349C610.412 267.427 610.604 267.815 610.923 268.106C611.246 268.398 611.654 268.544 612.146 268.544C612.908 268.544 613.502 268.268 613.931 267.717L614.901 268.804C614.605 269.223 614.204 269.551 613.698 269.788C613.192 270.021 612.632 270.137 612.017 270.137ZM611.791 264.066C611.399 264.066 611.08 264.199 610.834 264.463C610.592 264.727 610.438 265.105 610.369 265.598H613.117V265.44C613.108 265.003 612.99 264.666 612.762 264.429C612.534 264.187 612.21 264.066 611.791 264.066ZM618.005 262.604L618.066 263.458C618.595 262.797 619.304 262.467 620.192 262.467C620.976 262.467 621.56 262.697 621.942 263.157C622.325 263.618 622.521 264.306 622.53 265.222V270H620.555V265.27C620.555 264.85 620.464 264.547 620.281 264.36C620.099 264.169 619.796 264.073 619.372 264.073C618.816 264.073 618.399 264.31 618.121 264.784V270H616.146V262.604H618.005ZM623.727 266.247C623.727 265.094 623.984 264.176 624.499 263.492C625.019 262.809 625.727 262.467 626.625 262.467C627.345 262.467 627.94 262.736 628.409 263.273V259.5H630.392V270H628.607L628.512 269.214C628.02 269.829 627.386 270.137 626.611 270.137C625.741 270.137 625.041 269.795 624.513 269.111C623.989 268.423 623.727 267.468 623.727 266.247ZM625.702 266.391C625.702 267.083 625.823 267.614 626.064 267.983C626.306 268.353 626.657 268.537 627.117 268.537C627.728 268.537 628.159 268.28 628.409 267.765V264.846C628.163 264.331 627.737 264.073 627.131 264.073C626.178 264.073 625.702 264.846 625.702 266.391Z" fill="white"/>
<path d="M769.889 270V260.047H773.375C774.583 260.047 775.499 260.279 776.123 260.744C776.747 261.204 777.06 261.881 777.06 262.774C777.06 263.262 776.934 263.693 776.684 264.066C776.433 264.436 776.084 264.707 775.638 264.88C776.148 265.007 776.549 265.265 776.841 265.652C777.137 266.04 777.285 266.514 777.285 267.074C777.285 268.031 776.98 268.756 776.369 269.248C775.758 269.74 774.888 269.991 773.758 270H769.889ZM771.939 265.666V268.353H773.696C774.179 268.353 774.555 268.239 774.824 268.011C775.098 267.778 775.234 267.459 775.234 267.054C775.234 266.142 774.763 265.68 773.819 265.666H771.939ZM771.939 264.217H773.457C774.492 264.199 775.009 263.786 775.009 262.979C775.009 262.528 774.877 262.205 774.612 262.009C774.353 261.808 773.94 261.708 773.375 261.708H771.939V264.217ZM782.986 270C782.895 269.822 782.829 269.601 782.788 269.337C782.31 269.87 781.688 270.137 780.922 270.137C780.197 270.137 779.596 269.927 779.117 269.508C778.643 269.089 778.406 268.56 778.406 267.922C778.406 267.138 778.696 266.536 779.274 266.117C779.858 265.698 780.699 265.486 781.797 265.481H782.706V265.058C782.706 264.716 782.617 264.442 782.439 264.237C782.266 264.032 781.991 263.93 781.612 263.93C781.28 263.93 781.018 264.009 780.826 264.169C780.639 264.328 780.546 264.547 780.546 264.825H778.57C778.57 264.397 778.702 264 778.967 263.636C779.231 263.271 779.605 262.986 780.088 262.781C780.571 262.572 781.113 262.467 781.715 262.467C782.626 262.467 783.349 262.697 783.882 263.157C784.42 263.613 784.688 264.256 784.688 265.085V268.291C784.693 268.993 784.791 269.524 784.982 269.884V270H782.986ZM781.353 268.626C781.644 268.626 781.913 268.562 782.159 268.435C782.405 268.302 782.588 268.127 782.706 267.908V266.637H781.968C780.979 266.637 780.452 266.979 780.389 267.662L780.382 267.778C780.382 268.024 780.468 268.227 780.642 268.387C780.815 268.546 781.052 268.626 781.353 268.626ZM789.282 268.544C789.647 268.544 789.943 268.444 790.171 268.243C790.399 268.043 790.517 267.776 790.526 267.443H792.379C792.374 267.945 792.238 268.405 791.969 268.824C791.7 269.239 791.331 269.562 790.861 269.795C790.396 270.023 789.882 270.137 789.316 270.137C788.259 270.137 787.425 269.802 786.814 269.132C786.204 268.457 785.898 267.528 785.898 266.343V266.213C785.898 265.074 786.201 264.164 786.808 263.485C787.414 262.806 788.245 262.467 789.303 262.467C790.228 262.467 790.968 262.731 791.524 263.26C792.085 263.784 792.37 264.483 792.379 265.358H790.526C790.517 264.976 790.399 264.666 790.171 264.429C789.943 264.187 789.642 264.066 789.269 264.066C788.808 264.066 788.46 264.235 788.223 264.572C787.99 264.905 787.874 265.447 787.874 266.199V266.404C787.874 267.165 787.99 267.712 788.223 268.045C788.455 268.378 788.808 268.544 789.282 268.544ZM796.193 267.033L795.482 267.744V270H793.507V259.5H795.482V265.317L795.865 264.825L797.759 262.604H800.131L797.458 265.687L800.363 270H798.094L796.193 267.033ZM804.253 270.137C803.168 270.137 802.284 269.804 801.601 269.139C800.922 268.473 800.582 267.587 800.582 266.479V266.288C800.582 265.545 800.726 264.882 801.013 264.299C801.3 263.711 801.705 263.26 802.229 262.945C802.758 262.626 803.36 262.467 804.034 262.467C805.046 262.467 805.841 262.786 806.42 263.424C807.003 264.062 807.295 264.966 807.295 266.138V266.944H802.585C802.649 267.427 802.84 267.815 803.159 268.106C803.483 268.398 803.891 268.544 804.383 268.544C805.144 268.544 805.739 268.268 806.167 267.717L807.138 268.804C806.841 269.223 806.44 269.551 805.935 269.788C805.429 270.021 804.868 270.137 804.253 270.137ZM804.027 264.066C803.635 264.066 803.316 264.199 803.07 264.463C802.829 264.727 802.674 265.105 802.605 265.598H805.354V265.44C805.344 265.003 805.226 264.666 804.998 264.429C804.77 264.187 804.447 264.066 804.027 264.066ZM810.241 262.604L810.303 263.458C810.831 262.797 811.54 262.467 812.429 262.467C813.213 262.467 813.796 262.697 814.179 263.157C814.562 263.618 814.757 264.306 814.767 265.222V270H812.791V265.27C812.791 264.85 812.7 264.547 812.518 264.36C812.335 264.169 812.032 264.073 811.608 264.073C811.052 264.073 810.635 264.31 810.357 264.784V270H808.382V262.604H810.241ZM815.963 266.247C815.963 265.094 816.22 264.176 816.735 263.492C817.255 262.809 817.964 262.467 818.861 262.467C819.581 262.467 820.176 262.736 820.646 263.273V259.5H822.628V270H820.844L820.748 269.214C820.256 269.829 819.622 270.137 818.848 270.137C817.977 270.137 817.278 269.795 816.749 269.111C816.225 268.423 815.963 267.468 815.963 266.247ZM817.938 266.391C817.938 267.083 818.059 267.614 818.301 267.983C818.542 268.353 818.893 268.537 819.354 268.537C819.964 268.537 820.395 268.28 820.646 267.765V264.846C820.399 264.331 819.973 264.073 819.367 264.073C818.415 264.073 817.938 264.846 817.938 266.391Z" fill="white"/>
<path d="M199.477 150.842C199.354 151.895 198.964 152.708 198.308 153.282C197.656 153.852 196.788 154.137 195.703 154.137C194.527 154.137 193.584 153.715 192.873 152.872C192.167 152.029 191.813 150.901 191.813 149.488V148.531C191.813 147.606 191.978 146.793 192.306 146.091C192.638 145.389 193.108 144.851 193.714 144.478C194.32 144.099 195.022 143.91 195.819 143.91C196.877 143.91 197.724 144.206 198.362 144.799C199 145.387 199.372 146.202 199.477 147.246H198.157C198.043 146.453 197.795 145.879 197.412 145.523C197.034 145.168 196.503 144.99 195.819 144.99C194.981 144.99 194.322 145.3 193.844 145.92C193.37 146.54 193.133 147.422 193.133 148.565V149.529C193.133 150.609 193.358 151.468 193.81 152.106C194.261 152.744 194.892 153.063 195.703 153.063C196.432 153.063 196.991 152.899 197.378 152.571C197.77 152.239 198.03 151.662 198.157 150.842H199.477ZM202.45 154H201.186V143.5H202.45V154ZM205.854 154H204.59V146.604H205.854V154ZM204.487 144.642C204.487 144.437 204.549 144.263 204.672 144.122C204.799 143.981 204.986 143.91 205.232 143.91C205.479 143.91 205.665 143.981 205.793 144.122C205.921 144.263 205.984 144.437 205.984 144.642C205.984 144.847 205.921 145.018 205.793 145.154C205.665 145.291 205.479 145.359 205.232 145.359C204.986 145.359 204.799 145.291 204.672 145.154C204.549 145.018 204.487 144.847 204.487 144.642ZM210.954 154.137C209.951 154.137 209.136 153.809 208.507 153.152C207.878 152.492 207.563 151.61 207.563 150.507V150.274C207.563 149.541 207.702 148.887 207.98 148.312C208.263 147.734 208.655 147.283 209.156 146.959C209.662 146.631 210.209 146.467 210.797 146.467C211.758 146.467 212.506 146.784 213.039 147.417C213.572 148.05 213.839 148.957 213.839 150.138V150.664H208.828C208.846 151.393 209.058 151.983 209.464 152.435C209.874 152.881 210.394 153.104 211.022 153.104C211.469 153.104 211.847 153.013 212.157 152.831C212.467 152.649 212.738 152.407 212.971 152.106L213.743 152.708C213.123 153.66 212.194 154.137 210.954 154.137ZM210.797 147.506C210.286 147.506 209.858 147.693 209.512 148.066C209.165 148.436 208.951 148.955 208.869 149.625H212.574V149.529C212.538 148.887 212.365 148.39 212.055 148.039C211.745 147.684 211.326 147.506 210.797 147.506ZM216.505 146.604L216.546 147.533C217.111 146.822 217.849 146.467 218.761 146.467C220.324 146.467 221.112 147.349 221.126 149.112V154H219.861V149.105C219.857 148.572 219.734 148.178 219.492 147.923C219.255 147.668 218.884 147.54 218.378 147.54C217.968 147.54 217.608 147.649 217.298 147.868C216.988 148.087 216.746 148.374 216.573 148.729V154H215.309V146.604H216.505ZM224.749 144.812V146.604H226.13V147.581H224.749V152.168C224.749 152.464 224.811 152.688 224.934 152.838C225.057 152.984 225.266 153.057 225.562 153.057C225.708 153.057 225.909 153.029 226.164 152.975V154C225.831 154.091 225.508 154.137 225.193 154.137C224.628 154.137 224.202 153.966 223.915 153.624C223.628 153.282 223.484 152.797 223.484 152.168V147.581H222.138V146.604H223.484V144.812H224.749ZM227.702 146.85L226.984 146.357C227.408 145.765 227.627 145.141 227.641 144.484V143.5H228.892V144.389C228.887 144.844 228.773 145.3 228.55 145.756C228.331 146.207 228.049 146.572 227.702 146.85ZM233.957 152.038C233.957 151.696 233.827 151.432 233.567 151.245C233.312 151.054 232.863 150.89 232.221 150.753C231.583 150.616 231.075 150.452 230.696 150.261C230.323 150.069 230.045 149.841 229.862 149.577C229.685 149.313 229.596 148.998 229.596 148.634C229.596 148.028 229.851 147.515 230.361 147.096C230.876 146.676 231.533 146.467 232.33 146.467C233.169 146.467 233.848 146.683 234.367 147.116C234.891 147.549 235.153 148.103 235.153 148.777H233.882C233.882 148.431 233.734 148.132 233.438 147.882C233.146 147.631 232.777 147.506 232.33 147.506C231.87 147.506 231.51 147.606 231.25 147.807C230.99 148.007 230.86 148.269 230.86 148.593C230.86 148.898 230.981 149.128 231.223 149.283C231.464 149.438 231.899 149.586 232.528 149.728C233.162 149.869 233.674 150.037 234.066 150.233C234.458 150.429 234.748 150.666 234.935 150.944C235.126 151.218 235.222 151.553 235.222 151.949C235.222 152.61 234.957 153.141 234.429 153.542C233.9 153.938 233.214 154.137 232.371 154.137C231.779 154.137 231.255 154.032 230.799 153.822C230.343 153.613 229.985 153.321 229.726 152.947C229.47 152.569 229.343 152.161 229.343 151.724H230.607C230.63 152.147 230.799 152.485 231.113 152.735C231.432 152.981 231.852 153.104 232.371 153.104C232.85 153.104 233.232 153.009 233.52 152.817C233.811 152.621 233.957 152.362 233.957 152.038ZM241.853 150.104V154H240.54V144.047H244.211C245.3 144.047 246.152 144.325 246.768 144.881C247.387 145.437 247.697 146.173 247.697 147.089C247.697 148.055 247.394 148.8 246.788 149.324C246.187 149.844 245.323 150.104 244.197 150.104H241.853ZM241.853 149.03H244.211C244.913 149.03 245.451 148.866 245.824 148.538C246.198 148.205 246.385 147.727 246.385 147.103C246.385 146.51 246.198 146.036 245.824 145.681C245.451 145.325 244.938 145.141 244.286 145.127H241.853V149.03ZM256.693 150.842C256.57 151.895 256.181 152.708 255.524 153.282C254.873 153.852 254.005 154.137 252.92 154.137C251.744 154.137 250.801 153.715 250.09 152.872C249.383 152.029 249.03 150.901 249.03 149.488V148.531C249.03 147.606 249.194 146.793 249.522 146.091C249.855 145.389 250.325 144.851 250.931 144.478C251.537 144.099 252.239 143.91 253.036 143.91C254.093 143.91 254.941 144.206 255.579 144.799C256.217 145.387 256.589 146.202 256.693 147.246H255.374C255.26 146.453 255.012 145.879 254.629 145.523C254.251 145.168 253.72 144.99 253.036 144.99C252.198 144.99 251.539 145.3 251.061 145.92C250.587 146.54 250.35 147.422 250.35 148.565V149.529C250.35 150.609 250.575 151.468 251.026 152.106C251.478 152.744 252.109 153.063 252.92 153.063C253.649 153.063 254.207 152.899 254.595 152.571C254.987 152.239 255.246 151.662 255.374 150.842H256.693Z" fill="black"/>
<path d="M391.897 294H390.578V289.399H385.561V294H384.248V284.047H385.561V288.326H390.578V284.047H391.897V294ZM400.9 285.127H397.701V294H396.396V285.127H393.203V284.047H400.9V285.127ZM409.363 285.127H406.164V294H404.858V285.127H401.666V284.047H409.363V285.127ZM412.152 290.104V294H410.84V284.047H414.511C415.6 284.047 416.452 284.325 417.067 284.881C417.687 285.437 417.997 286.173 417.997 287.089C417.997 288.055 417.694 288.8 417.088 289.324C416.486 289.844 415.623 290.104 414.497 290.104H412.152ZM412.152 289.03H414.511C415.213 289.03 415.75 288.866 416.124 288.538C416.498 288.205 416.685 287.727 416.685 287.103C416.685 286.51 416.498 286.036 416.124 285.681C415.75 285.325 415.238 285.141 414.586 285.127H412.152V289.03ZM419.433 293.337C419.433 293.118 419.496 292.936 419.624 292.79C419.756 292.644 419.952 292.571 420.212 292.571C420.472 292.571 420.668 292.644 420.8 292.79C420.937 292.936 421.005 293.118 421.005 293.337C421.005 293.547 420.937 293.722 420.8 293.863C420.668 294.005 420.472 294.075 420.212 294.075C419.952 294.075 419.756 294.005 419.624 293.863C419.496 293.722 419.433 293.547 419.433 293.337ZM419.439 287.301C419.439 287.082 419.503 286.9 419.631 286.754C419.763 286.608 419.959 286.535 420.219 286.535C420.479 286.535 420.674 286.608 420.807 286.754C420.943 286.9 421.012 287.082 421.012 287.301C421.012 287.51 420.943 287.686 420.807 287.827C420.674 287.968 420.479 288.039 420.219 288.039C419.959 288.039 419.763 287.968 419.631 287.827C419.503 287.686 419.439 287.51 419.439 287.301ZM393.641 302.645C393.641 303.141 393.508 303.583 393.244 303.971C392.984 304.358 392.631 304.661 392.185 304.88C392.704 305.103 393.114 305.429 393.415 305.857C393.72 306.286 393.873 306.771 393.873 307.313C393.873 308.175 393.581 308.861 392.998 309.371C392.419 309.882 391.656 310.137 390.708 310.137C389.751 310.137 388.983 309.882 388.404 309.371C387.83 308.856 387.543 308.17 387.543 307.313C387.543 306.776 387.689 306.29 387.98 305.857C388.277 305.424 388.685 305.096 389.204 304.873C388.762 304.654 388.413 304.351 388.158 303.964C387.903 303.576 387.775 303.137 387.775 302.645C387.775 301.806 388.044 301.141 388.582 300.648C389.12 300.156 389.828 299.91 390.708 299.91C391.583 299.91 392.289 300.156 392.827 300.648C393.369 301.141 393.641 301.806 393.641 302.645ZM392.608 307.286C392.608 306.73 392.431 306.277 392.075 305.926C391.724 305.575 391.264 305.399 390.694 305.399C390.125 305.399 389.667 305.573 389.32 305.919C388.979 306.265 388.808 306.721 388.808 307.286C388.808 307.851 388.974 308.296 389.307 308.619C389.644 308.943 390.111 309.104 390.708 309.104C391.3 309.104 391.765 308.943 392.103 308.619C392.44 308.291 392.608 307.847 392.608 307.286ZM390.708 300.949C390.211 300.949 389.808 301.104 389.498 301.414C389.193 301.719 389.04 302.136 389.04 302.665C389.04 303.171 389.19 303.581 389.491 303.896C389.797 304.205 390.202 304.36 390.708 304.36C391.214 304.36 391.617 304.205 391.918 303.896C392.223 303.581 392.376 303.171 392.376 302.665C392.376 302.159 392.219 301.747 391.904 301.428C391.59 301.109 391.191 300.949 390.708 300.949ZM401.707 305.755C401.707 307.236 401.454 308.337 400.948 309.057C400.442 309.777 399.652 310.137 398.576 310.137C397.514 310.137 396.728 309.786 396.218 309.084C395.707 308.378 395.443 307.325 395.425 305.926V304.237C395.425 302.774 395.678 301.688 396.184 300.977C396.689 300.266 397.482 299.91 398.562 299.91C399.633 299.91 400.422 300.254 400.928 300.942C401.434 301.626 401.693 302.683 401.707 304.114V305.755ZM400.442 304.025C400.442 302.954 400.292 302.175 399.991 301.688C399.69 301.195 399.214 300.949 398.562 300.949C397.915 300.949 397.444 301.193 397.147 301.681C396.851 302.168 396.699 302.918 396.689 303.93V305.953C396.689 307.029 396.844 307.824 397.154 308.339C397.469 308.849 397.943 309.104 398.576 309.104C399.201 309.104 399.663 308.863 399.964 308.38C400.269 307.897 400.429 307.136 400.442 306.097V304.025ZM409.363 302.645C409.363 303.141 409.231 303.583 408.967 303.971C408.707 304.358 408.354 304.661 407.907 304.88C408.427 305.103 408.837 305.429 409.138 305.857C409.443 306.286 409.596 306.771 409.596 307.313C409.596 308.175 409.304 308.861 408.721 309.371C408.142 309.882 407.379 310.137 406.431 310.137C405.474 310.137 404.706 309.882 404.127 309.371C403.553 308.856 403.266 308.17 403.266 307.313C403.266 306.776 403.411 306.29 403.703 305.857C403.999 305.424 404.407 305.096 404.927 304.873C404.485 304.654 404.136 304.351 403.881 303.964C403.626 303.576 403.498 303.137 403.498 302.645C403.498 301.806 403.767 301.141 404.305 300.648C404.842 300.156 405.551 299.91 406.431 299.91C407.306 299.91 408.012 300.156 408.55 300.648C409.092 301.141 409.363 301.806 409.363 302.645ZM408.331 307.286C408.331 306.73 408.153 306.277 407.798 305.926C407.447 305.575 406.987 305.399 406.417 305.399C405.847 305.399 405.389 305.573 405.043 305.919C404.701 306.265 404.53 306.721 404.53 307.286C404.53 307.851 404.697 308.296 405.029 308.619C405.367 308.943 405.834 309.104 406.431 309.104C407.023 309.104 407.488 308.943 407.825 308.619C408.162 308.291 408.331 307.847 408.331 307.286ZM406.431 300.949C405.934 300.949 405.531 301.104 405.221 301.414C404.915 301.719 404.763 302.136 404.763 302.665C404.763 303.171 404.913 303.581 405.214 303.896C405.519 304.205 405.925 304.36 406.431 304.36C406.937 304.36 407.34 304.205 407.641 303.896C407.946 303.581 408.099 303.171 408.099 302.665C408.099 302.159 407.941 301.747 407.627 301.428C407.312 301.109 406.914 300.949 406.431 300.949ZM417.43 305.755C417.43 307.236 417.177 308.337 416.671 309.057C416.165 309.777 415.374 310.137 414.299 310.137C413.237 310.137 412.451 309.786 411.94 309.084C411.43 308.378 411.166 307.325 411.147 305.926V304.237C411.147 302.774 411.4 301.688 411.906 300.977C412.412 300.266 413.205 299.91 414.285 299.91C415.356 299.91 416.145 300.254 416.65 300.942C417.156 301.626 417.416 302.683 417.43 304.114V305.755ZM416.165 304.025C416.165 302.954 416.015 302.175 415.714 301.688C415.413 301.195 414.937 300.949 414.285 300.949C413.638 300.949 413.166 301.193 412.87 301.681C412.574 302.168 412.421 302.918 412.412 303.93V305.953C412.412 307.029 412.567 307.824 412.877 308.339C413.191 308.849 413.665 309.104 414.299 309.104C414.923 309.104 415.386 308.863 415.687 308.38C415.992 307.897 416.151 307.136 416.165 306.097V304.025Z" fill="black"/>
<path d="M690.897 243H689.578V238.399H684.561V243H683.248V233.047H684.561V237.326H689.578V233.047H690.897V243ZM699.9 234.127H696.701V243H695.396V234.127H692.203V233.047H699.9V234.127ZM708.363 234.127H705.164V243H703.858V234.127H700.666V233.047H708.363V234.127ZM711.152 239.104V243H709.84V233.047H713.511C714.6 233.047 715.452 233.325 716.067 233.881C716.687 234.437 716.997 235.173 716.997 236.089C716.997 237.055 716.694 237.8 716.088 238.324C715.486 238.844 714.623 239.104 713.497 239.104H711.152ZM711.152 238.03H713.511C714.213 238.03 714.75 237.866 715.124 237.538C715.498 237.205 715.685 236.727 715.685 236.103C715.685 235.51 715.498 235.036 715.124 234.681C714.75 234.325 714.238 234.141 713.586 234.127H711.152V238.03ZM718.433 242.337C718.433 242.118 718.496 241.936 718.624 241.79C718.756 241.644 718.952 241.571 719.212 241.571C719.472 241.571 719.668 241.644 719.8 241.79C719.937 241.936 720.005 242.118 720.005 242.337C720.005 242.547 719.937 242.722 719.8 242.863C719.668 243.005 719.472 243.075 719.212 243.075C718.952 243.075 718.756 243.005 718.624 242.863C718.496 242.722 718.433 242.547 718.433 242.337ZM718.439 236.301C718.439 236.082 718.503 235.9 718.631 235.754C718.763 235.608 718.959 235.535 719.219 235.535C719.479 235.535 719.674 235.608 719.807 235.754C719.943 235.9 720.012 236.082 720.012 236.301C720.012 236.51 719.943 236.686 719.807 236.827C719.674 236.968 719.479 237.039 719.219 237.039C718.959 237.039 718.763 236.968 718.631 236.827C718.503 236.686 718.439 236.51 718.439 236.301ZM692.641 251.645C692.641 252.141 692.508 252.583 692.244 252.971C691.984 253.358 691.631 253.661 691.185 253.88C691.704 254.103 692.114 254.429 692.415 254.857C692.72 255.286 692.873 255.771 692.873 256.313C692.873 257.175 692.581 257.861 691.998 258.371C691.419 258.882 690.656 259.137 689.708 259.137C688.751 259.137 687.983 258.882 687.404 258.371C686.83 257.856 686.543 257.17 686.543 256.313C686.543 255.776 686.689 255.29 686.98 254.857C687.277 254.424 687.685 254.096 688.204 253.873C687.762 253.654 687.413 253.351 687.158 252.964C686.903 252.576 686.775 252.137 686.775 251.645C686.775 250.806 687.044 250.141 687.582 249.648C688.12 249.156 688.828 248.91 689.708 248.91C690.583 248.91 691.289 249.156 691.827 249.648C692.369 250.141 692.641 250.806 692.641 251.645ZM691.608 256.286C691.608 255.73 691.431 255.277 691.075 254.926C690.724 254.575 690.264 254.399 689.694 254.399C689.125 254.399 688.667 254.573 688.32 254.919C687.979 255.265 687.808 255.721 687.808 256.286C687.808 256.851 687.974 257.296 688.307 257.619C688.644 257.943 689.111 258.104 689.708 258.104C690.3 258.104 690.765 257.943 691.103 257.619C691.44 257.291 691.608 256.847 691.608 256.286ZM689.708 249.949C689.211 249.949 688.808 250.104 688.498 250.414C688.193 250.719 688.04 251.136 688.04 251.665C688.04 252.171 688.19 252.581 688.491 252.896C688.797 253.205 689.202 253.36 689.708 253.36C690.214 253.36 690.617 253.205 690.918 252.896C691.223 252.581 691.376 252.171 691.376 251.665C691.376 251.159 691.219 250.747 690.904 250.428C690.59 250.109 690.191 249.949 689.708 249.949ZM700.707 254.755C700.707 256.236 700.454 257.337 699.948 258.057C699.442 258.777 698.652 259.137 697.576 259.137C696.514 259.137 695.728 258.786 695.218 258.084C694.707 257.378 694.443 256.325 694.425 254.926V253.237C694.425 251.774 694.678 250.688 695.184 249.977C695.689 249.266 696.482 248.91 697.562 248.91C698.633 248.91 699.422 249.254 699.928 249.942C700.434 250.626 700.693 251.683 700.707 253.114V254.755ZM699.442 253.025C699.442 251.954 699.292 251.175 698.991 250.688C698.69 250.195 698.214 249.949 697.562 249.949C696.915 249.949 696.444 250.193 696.147 250.681C695.851 251.168 695.699 251.918 695.689 252.93V254.953C695.689 256.029 695.844 256.824 696.154 257.339C696.469 257.849 696.943 258.104 697.576 258.104C698.201 258.104 698.663 257.863 698.964 257.38C699.269 256.897 699.429 256.136 699.442 255.097V253.025ZM708.363 251.645C708.363 252.141 708.231 252.583 707.967 252.971C707.707 253.358 707.354 253.661 706.907 253.88C707.427 254.103 707.837 254.429 708.138 254.857C708.443 255.286 708.596 255.771 708.596 256.313C708.596 257.175 708.304 257.861 707.721 258.371C707.142 258.882 706.379 259.137 705.431 259.137C704.474 259.137 703.706 258.882 703.127 258.371C702.553 257.856 702.266 257.17 702.266 256.313C702.266 255.776 702.411 255.29 702.703 254.857C702.999 254.424 703.407 254.096 703.927 253.873C703.485 253.654 703.136 253.351 702.881 252.964C702.626 252.576 702.498 252.137 702.498 251.645C702.498 250.806 702.767 250.141 703.305 249.648C703.842 249.156 704.551 248.91 705.431 248.91C706.306 248.91 707.012 249.156 707.55 249.648C708.092 250.141 708.363 250.806 708.363 251.645ZM707.331 256.286C707.331 255.73 707.153 255.277 706.798 254.926C706.447 254.575 705.987 254.399 705.417 254.399C704.847 254.399 704.389 254.573 704.043 254.919C703.701 255.265 703.53 255.721 703.53 256.286C703.53 256.851 703.697 257.296 704.029 257.619C704.367 257.943 704.834 258.104 705.431 258.104C706.023 258.104 706.488 257.943 706.825 257.619C707.162 257.291 707.331 256.847 707.331 256.286ZM705.431 249.949C704.934 249.949 704.531 250.104 704.221 250.414C703.915 250.719 703.763 251.136 703.763 251.665C703.763 252.171 703.913 252.581 704.214 252.896C704.519 253.205 704.925 253.36 705.431 253.36C705.937 253.36 706.34 253.205 706.641 252.896C706.946 252.581 707.099 252.171 707.099 251.665C707.099 251.159 706.941 250.747 706.627 250.428C706.312 250.109 705.914 249.949 705.431 249.949ZM716.43 254.755C716.43 256.236 716.177 257.337 715.671 258.057C715.165 258.777 714.374 259.137 713.299 259.137C712.237 259.137 711.451 258.786 710.94 258.084C710.43 257.378 710.166 256.325 710.147 254.926V253.237C710.147 251.774 710.4 250.688 710.906 249.977C711.412 249.266 712.205 248.91 713.285 248.91C714.356 248.91 715.145 249.254 715.65 249.942C716.156 250.626 716.416 251.683 716.43 253.114V254.755ZM715.165 253.025C715.165 251.954 715.015 251.175 714.714 250.688C714.413 250.195 713.937 249.949 713.285 249.949C712.638 249.949 712.166 250.193 711.87 250.681C711.574 251.168 711.421 251.918 711.412 252.93V254.953C711.412 256.029 711.567 256.824 711.877 257.339C712.191 257.849 712.665 258.104 713.299 258.104C713.923 258.104 714.386 257.863 714.687 257.38C714.992 256.897 715.151 256.136 715.165 255.097V253.025Z" fill="black"/>
<path d="M987.713 258H986.394V253.399H981.376V258H980.063V248.047H981.376V252.326H986.394V248.047H987.713V258ZM996.716 249.127H993.517V258H992.211V249.127H989.019V248.047H996.716V249.127ZM1005.18 249.127H1001.98V258H1000.67V249.127H997.481V248.047H1005.18V249.127ZM1007.97 254.104V258H1006.66V248.047H1010.33C1011.42 248.047 1012.27 248.325 1012.88 248.881C1013.5 249.437 1013.81 250.173 1013.81 251.089C1013.81 252.055 1013.51 252.8 1012.9 253.324C1012.3 253.844 1011.44 254.104 1010.31 254.104H1007.97ZM1007.97 253.03H1010.33C1011.03 253.03 1011.57 252.866 1011.94 252.538C1012.31 252.205 1012.5 251.727 1012.5 251.103C1012.5 250.51 1012.31 250.036 1011.94 249.681C1011.57 249.325 1011.05 249.141 1010.4 249.127H1007.97V253.03ZM1018.42 253.563C1017.29 253.24 1016.47 252.843 1015.96 252.374C1015.45 251.9 1015.19 251.317 1015.19 250.624C1015.19 249.84 1015.51 249.193 1016.13 248.683C1016.76 248.168 1017.57 247.91 1018.58 247.91C1019.26 247.91 1019.87 248.042 1020.4 248.307C1020.94 248.571 1021.35 248.936 1021.65 249.4C1021.94 249.865 1022.09 250.373 1022.09 250.925H1020.77C1020.77 250.323 1020.58 249.852 1020.2 249.51C1019.81 249.163 1019.27 248.99 1018.58 248.99C1017.93 248.99 1017.42 249.134 1017.06 249.421C1016.7 249.703 1016.52 250.098 1016.52 250.604C1016.52 251.009 1016.69 251.353 1017.03 251.636C1017.38 251.914 1017.96 252.169 1018.79 252.401C1019.62 252.634 1020.27 252.891 1020.73 253.174C1021.2 253.452 1021.55 253.778 1021.77 254.151C1022 254.525 1022.11 254.965 1022.11 255.471C1022.11 256.277 1021.8 256.924 1021.17 257.412C1020.54 257.895 1019.7 258.137 1018.65 258.137C1017.96 258.137 1017.32 258.007 1016.73 257.747C1016.14 257.483 1015.68 257.123 1015.36 256.667C1015.04 256.211 1014.88 255.694 1014.88 255.115H1016.2C1016.2 255.717 1016.42 256.193 1016.86 256.544C1017.31 256.89 1017.9 257.063 1018.65 257.063C1019.34 257.063 1019.87 256.922 1020.24 256.64C1020.61 256.357 1020.79 255.972 1020.79 255.484C1020.79 254.997 1020.62 254.621 1020.28 254.356C1019.94 254.088 1019.32 253.823 1018.42 253.563ZM1023.56 257.337C1023.56 257.118 1023.62 256.936 1023.75 256.79C1023.88 256.644 1024.08 256.571 1024.34 256.571C1024.6 256.571 1024.8 256.644 1024.93 256.79C1025.06 256.936 1025.13 257.118 1025.13 257.337C1025.13 257.547 1025.06 257.722 1024.93 257.863C1024.8 258.005 1024.6 258.075 1024.34 258.075C1024.08 258.075 1023.88 258.005 1023.75 257.863C1023.62 257.722 1023.56 257.547 1023.56 257.337ZM1023.57 251.301C1023.57 251.082 1023.63 250.9 1023.76 250.754C1023.89 250.608 1024.09 250.535 1024.35 250.535C1024.61 250.535 1024.8 250.608 1024.93 250.754C1025.07 250.9 1025.14 251.082 1025.14 251.301C1025.14 251.51 1025.07 251.686 1024.93 251.827C1024.8 251.968 1024.61 252.039 1024.35 252.039C1024.09 252.039 1023.89 251.968 1023.76 251.827C1023.63 251.686 1023.57 251.51 1023.57 251.301ZM1035.67 254.657H1037.05V255.689H1035.67V258H1034.4V255.689H1029.87V254.944L1034.33 248.047H1035.67V254.657ZM1031.31 254.657H1034.4V249.776L1034.25 250.05L1031.31 254.657ZM1043.54 254.657H1044.92V255.689H1043.54V258H1042.26V255.689H1037.73V254.944L1042.19 248.047H1043.54V254.657ZM1039.17 254.657H1042.26V249.776L1042.11 250.05L1039.17 254.657ZM1047.9 252.408H1048.85C1049.44 252.399 1049.91 252.242 1050.25 251.937C1050.6 251.631 1050.77 251.219 1050.77 250.699C1050.77 249.533 1050.19 248.949 1049.02 248.949C1048.48 248.949 1048.04 249.106 1047.71 249.421C1047.39 249.731 1047.23 250.143 1047.23 250.658H1045.96C1045.96 249.87 1046.25 249.216 1046.82 248.696C1047.4 248.172 1048.14 247.91 1049.02 247.91C1049.96 247.91 1050.7 248.159 1051.23 248.655C1051.77 249.152 1052.03 249.842 1052.03 250.727C1052.03 251.16 1051.89 251.579 1051.61 251.984C1051.33 252.39 1050.95 252.693 1050.47 252.894C1051.01 253.067 1051.44 253.354 1051.73 253.755C1052.03 254.156 1052.18 254.646 1052.18 255.225C1052.18 256.118 1051.89 256.826 1051.31 257.351C1050.72 257.875 1049.97 258.137 1049.03 258.137C1048.1 258.137 1047.34 257.884 1046.75 257.378C1046.16 256.872 1045.87 256.204 1045.87 255.375H1047.14C1047.14 255.899 1047.32 256.318 1047.66 256.633C1048 256.947 1048.46 257.104 1049.03 257.104C1049.64 257.104 1050.11 256.945 1050.43 256.626C1050.76 256.307 1050.92 255.849 1050.92 255.252C1050.92 254.673 1050.74 254.229 1050.38 253.919C1050.03 253.609 1049.52 253.45 1048.85 253.44H1047.9V252.408Z" fill="black"/>
<path d="M689.681 289.974H687.343V294H686.023V284.047H689.318C690.439 284.047 691.301 284.302 691.902 284.812C692.508 285.323 692.812 286.066 692.812 287.041C692.812 287.661 692.643 288.201 692.306 288.661C691.973 289.121 691.508 289.465 690.911 289.693L693.249 293.918V294H691.841L689.681 289.974ZM687.343 288.9H689.359C690.011 288.9 690.528 288.732 690.911 288.395C691.299 288.057 691.492 287.606 691.492 287.041C691.492 286.426 691.308 285.954 690.938 285.626C690.574 285.298 690.045 285.132 689.353 285.127H687.343V288.9ZM700.283 289.399H695.97V292.927H700.98V294H694.657V284.047H700.912V285.127H695.97V288.326H700.283V289.399ZM705.547 289.563C704.421 289.24 703.601 288.843 703.086 288.374C702.576 287.9 702.32 287.317 702.32 286.624C702.32 285.84 702.632 285.193 703.257 284.683C703.886 284.168 704.701 283.91 705.704 283.91C706.388 283.91 706.996 284.042 707.529 284.307C708.067 284.571 708.482 284.936 708.773 285.4C709.07 285.865 709.218 286.373 709.218 286.925H707.898C707.898 286.323 707.707 285.852 707.324 285.51C706.941 285.163 706.401 284.99 705.704 284.99C705.057 284.99 704.551 285.134 704.187 285.421C703.826 285.703 703.646 286.098 703.646 286.604C703.646 287.009 703.817 287.353 704.159 287.636C704.506 287.914 705.091 288.169 705.916 288.401C706.745 288.634 707.393 288.891 707.857 289.174C708.327 289.452 708.673 289.778 708.896 290.151C709.124 290.525 709.238 290.965 709.238 291.471C709.238 292.277 708.924 292.924 708.295 293.412C707.666 293.895 706.825 294.137 705.772 294.137C705.089 294.137 704.451 294.007 703.858 293.747C703.266 293.483 702.808 293.123 702.484 292.667C702.165 292.211 702.006 291.694 702.006 291.115H703.325C703.325 291.717 703.546 292.193 703.988 292.544C704.435 292.89 705.03 293.063 705.772 293.063C706.465 293.063 706.996 292.922 707.365 292.64C707.734 292.357 707.919 291.972 707.919 291.484C707.919 290.997 707.748 290.621 707.406 290.356C707.064 290.088 706.445 289.823 705.547 289.563ZM717.804 285.127H714.604V294H713.299V285.127H710.106V284.047H717.804V285.127Z" fill="black"/>
<path d="M1006.68 289.974H1004.34V294H1003.02V284.047H1006.32C1007.44 284.047 1008.3 284.302 1008.9 284.812C1009.51 285.323 1009.81 286.066 1009.81 287.041C1009.81 287.661 1009.64 288.201 1009.31 288.661C1008.97 289.121 1008.51 289.465 1007.91 289.693L1010.25 293.918V294H1008.84L1006.68 289.974ZM1004.34 288.9H1006.36C1007.01 288.9 1007.53 288.732 1007.91 288.395C1008.3 288.057 1008.49 287.606 1008.49 287.041C1008.49 286.426 1008.31 285.954 1007.94 285.626C1007.57 285.298 1007.05 285.132 1006.35 285.127H1004.34V288.9ZM1017.28 289.399H1012.97V292.927H1017.98V294H1011.66V284.047H1017.91V285.127H1012.97V288.326H1017.28V289.399ZM1022.55 289.563C1021.42 289.24 1020.6 288.843 1020.09 288.374C1019.58 287.9 1019.32 287.317 1019.32 286.624C1019.32 285.84 1019.63 285.193 1020.26 284.683C1020.89 284.168 1021.7 283.91 1022.7 283.91C1023.39 283.91 1024 284.042 1024.53 284.307C1025.07 284.571 1025.48 284.936 1025.77 285.4C1026.07 285.865 1026.22 286.373 1026.22 286.925H1024.9C1024.9 286.323 1024.71 285.852 1024.32 285.51C1023.94 285.163 1023.4 284.99 1022.7 284.99C1022.06 284.99 1021.55 285.134 1021.19 285.421C1020.83 285.703 1020.65 286.098 1020.65 286.604C1020.65 287.009 1020.82 287.353 1021.16 287.636C1021.51 287.914 1022.09 288.169 1022.92 288.401C1023.75 288.634 1024.39 288.891 1024.86 289.174C1025.33 289.452 1025.67 289.778 1025.9 290.151C1026.12 290.525 1026.24 290.965 1026.24 291.471C1026.24 292.277 1025.92 292.924 1025.29 293.412C1024.67 293.895 1023.83 294.137 1022.77 294.137C1022.09 294.137 1021.45 294.007 1020.86 293.747C1020.27 293.483 1019.81 293.123 1019.48 292.667C1019.17 292.211 1019.01 291.694 1019.01 291.115H1020.33C1020.33 291.717 1020.55 292.193 1020.99 292.544C1021.43 292.89 1022.03 293.063 1022.77 293.063C1023.47 293.063 1024 292.922 1024.37 292.64C1024.73 292.357 1024.92 291.972 1024.92 291.484C1024.92 290.997 1024.75 290.621 1024.41 290.356C1024.06 290.088 1023.44 289.823 1022.55 289.563ZM1034.8 285.127H1031.6V294H1030.3V285.127H1027.11V284.047H1034.8V285.127Z" fill="black"/>
<path d="M839.753 366.047H841.072V373.095C841.072 374.047 840.785 374.792 840.211 375.33C839.641 375.868 838.88 376.137 837.928 376.137C836.939 376.137 836.169 375.884 835.617 375.378C835.066 374.872 834.79 374.163 834.79 373.252H836.103C836.103 373.822 836.257 374.266 836.567 374.585C836.882 374.904 837.335 375.063 837.928 375.063C838.47 375.063 838.908 374.893 839.24 374.551C839.577 374.209 839.748 373.73 839.753 373.115V366.047ZM843.308 376V366.047H846.117C846.983 366.047 847.749 366.238 848.414 366.621C849.079 367.004 849.592 367.549 849.952 368.255C850.317 368.961 850.501 369.772 850.506 370.688V371.324C850.506 372.263 850.324 373.086 849.959 373.792C849.599 374.498 849.082 375.041 848.407 375.419C847.737 375.797 846.956 375.991 846.062 376H843.308ZM844.62 367.127V374.927H846.001C847.013 374.927 847.799 374.612 848.359 373.983C848.924 373.354 849.207 372.459 849.207 371.297V370.716C849.207 369.586 848.94 368.708 848.407 368.084C847.879 367.455 847.127 367.136 846.151 367.127H844.62ZM852.495 376V366.047H855.749C856.829 366.047 857.64 366.27 858.183 366.717C858.729 367.163 859.003 367.824 859.003 368.699C859.003 369.164 858.871 369.576 858.606 369.937C858.342 370.292 857.982 370.568 857.526 370.764C858.064 370.914 858.488 371.201 858.798 371.625C859.112 372.044 859.27 372.546 859.27 373.129C859.27 374.022 858.98 374.724 858.401 375.234C857.823 375.745 857.005 376 855.947 376H852.495ZM853.808 371.345V374.927H855.975C856.585 374.927 857.066 374.77 857.417 374.455C857.772 374.136 857.95 373.699 857.95 373.143C857.95 371.944 857.299 371.345 855.995 371.345H853.808ZM853.808 370.292H855.79C856.364 370.292 856.822 370.148 857.164 369.861C857.51 369.574 857.684 369.185 857.684 368.692C857.684 368.146 857.524 367.749 857.205 367.503C856.886 367.252 856.401 367.127 855.749 367.127H853.808V370.292ZM868.539 372.842C868.416 373.895 868.026 374.708 867.37 375.282C866.718 375.852 865.85 376.137 864.766 376.137C863.59 376.137 862.646 375.715 861.936 374.872C861.229 374.029 860.876 372.901 860.876 371.488V370.531C860.876 369.606 861.04 368.793 861.368 368.091C861.701 367.389 862.17 366.851 862.776 366.478C863.382 366.099 864.084 365.91 864.882 365.91C865.939 365.91 866.787 366.206 867.425 366.799C868.063 367.387 868.434 368.202 868.539 369.246H867.22C867.106 368.453 866.857 367.879 866.475 367.523C866.096 367.168 865.565 366.99 864.882 366.99C864.043 366.99 863.385 367.3 862.906 367.92C862.432 368.54 862.195 369.422 862.195 370.565V371.529C862.195 372.609 862.421 373.468 862.872 374.106C863.323 374.744 863.954 375.063 864.766 375.063C865.495 375.063 866.053 374.899 866.44 374.571C866.832 374.239 867.092 373.662 867.22 372.842H868.539ZM870.098 375.337C870.098 375.118 870.161 374.936 870.289 374.79C870.421 374.644 870.617 374.571 870.877 374.571C871.137 374.571 871.333 374.644 871.465 374.79C871.602 374.936 871.67 375.118 871.67 375.337C871.67 375.547 871.602 375.722 871.465 375.863C871.333 376.005 871.137 376.075 870.877 376.075C870.617 376.075 870.421 376.005 870.289 375.863C870.161 375.722 870.098 375.547 870.098 375.337ZM870.104 369.301C870.104 369.082 870.168 368.9 870.296 368.754C870.428 368.608 870.624 368.535 870.884 368.535C871.144 368.535 871.34 368.608 871.472 368.754C871.608 368.9 871.677 369.082 871.677 369.301C871.677 369.51 871.608 369.686 871.472 369.827C871.34 369.968 871.144 370.039 870.884 370.039C870.624 370.039 870.428 369.968 870.296 369.827C870.168 369.686 870.104 369.51 870.104 369.301ZM840.443 386.408H841.394C841.991 386.399 842.46 386.242 842.802 385.937C843.144 385.631 843.314 385.219 843.314 384.699C843.314 383.533 842.733 382.949 841.571 382.949C841.024 382.949 840.587 383.106 840.259 383.421C839.935 383.731 839.773 384.143 839.773 384.658H838.509C838.509 383.87 838.796 383.216 839.37 382.696C839.949 382.172 840.683 381.91 841.571 381.91C842.51 381.91 843.246 382.159 843.779 382.655C844.312 383.152 844.579 383.842 844.579 384.727C844.579 385.16 844.438 385.579 844.155 385.984C843.877 386.39 843.497 386.693 843.014 386.894C843.561 387.067 843.982 387.354 844.278 387.755C844.579 388.156 844.729 388.646 844.729 389.225C844.729 390.118 844.438 390.826 843.854 391.351C843.271 391.875 842.512 392.137 841.578 392.137C840.644 392.137 839.883 391.884 839.295 391.378C838.712 390.872 838.42 390.204 838.42 389.375H839.691C839.691 389.899 839.862 390.318 840.204 390.633C840.546 390.947 841.004 391.104 841.578 391.104C842.189 391.104 842.656 390.945 842.979 390.626C843.303 390.307 843.465 389.849 843.465 389.252C843.465 388.673 843.287 388.229 842.932 387.919C842.576 387.609 842.063 387.45 841.394 387.44H840.443V386.408ZM848.305 386.408H849.255C849.852 386.399 850.321 386.242 850.663 385.937C851.005 385.631 851.176 385.219 851.176 384.699C851.176 383.533 850.595 382.949 849.433 382.949C848.886 382.949 848.448 383.106 848.12 383.421C847.797 383.731 847.635 384.143 847.635 384.658H846.37C846.37 383.87 846.657 383.216 847.231 382.696C847.81 382.172 848.544 381.91 849.433 381.91C850.371 381.91 851.107 382.159 851.641 382.655C852.174 383.152 852.44 383.842 852.44 384.727C852.44 385.16 852.299 385.579 852.017 385.984C851.739 386.39 851.358 386.693 850.875 386.894C851.422 387.067 851.843 387.354 852.14 387.755C852.44 388.156 852.591 388.646 852.591 389.225C852.591 390.118 852.299 390.826 851.716 391.351C851.132 391.875 850.374 392.137 849.439 392.137C848.505 392.137 847.744 391.884 847.156 391.378C846.573 390.872 846.281 390.204 846.281 389.375H847.553C847.553 389.899 847.724 390.318 848.065 390.633C848.407 390.947 848.865 391.104 849.439 391.104C850.05 391.104 850.517 390.945 850.841 390.626C851.164 390.307 851.326 389.849 851.326 389.252C851.326 388.673 851.148 388.229 850.793 387.919C850.438 387.609 849.925 387.45 849.255 387.44H848.305V386.408ZM860.568 387.755C860.568 389.236 860.315 390.337 859.81 391.057C859.304 391.777 858.513 392.137 857.438 392.137C856.376 392.137 855.59 391.786 855.079 391.084C854.569 390.378 854.304 389.325 854.286 387.926V386.237C854.286 384.774 854.539 383.688 855.045 382.977C855.551 382.266 856.344 381.91 857.424 381.91C858.495 381.91 859.283 382.254 859.789 382.942C860.295 383.626 860.555 384.683 860.568 386.114V387.755ZM859.304 386.025C859.304 384.954 859.153 384.175 858.853 383.688C858.552 383.195 858.076 382.949 857.424 382.949C856.777 382.949 856.305 383.193 856.009 383.681C855.713 384.168 855.56 384.918 855.551 385.93V387.953C855.551 389.029 855.706 389.824 856.016 390.339C856.33 390.849 856.804 391.104 857.438 391.104C858.062 391.104 858.524 390.863 858.825 390.38C859.131 389.897 859.29 389.136 859.304 388.097V386.025ZM867.151 382.04V383.113H866.919C865.935 383.132 865.151 383.423 864.567 383.988C863.984 384.553 863.647 385.349 863.556 386.374C864.08 385.772 864.795 385.472 865.702 385.472C866.568 385.472 867.258 385.777 867.773 386.388C868.293 386.998 868.553 387.787 868.553 388.753C868.553 389.778 868.272 390.599 867.712 391.214C867.156 391.829 866.409 392.137 865.47 392.137C864.517 392.137 863.745 391.772 863.152 391.043C862.56 390.309 862.264 389.366 862.264 388.213V387.728C862.264 385.896 862.653 384.496 863.433 383.53C864.216 382.56 865.381 382.063 866.926 382.04H867.151ZM865.49 386.524C865.057 386.524 864.659 386.654 864.294 386.914C863.929 387.174 863.676 387.5 863.535 387.892V388.356C863.535 389.177 863.72 389.838 864.089 390.339C864.458 390.84 864.918 391.091 865.47 391.091C866.039 391.091 866.486 390.881 866.81 390.462C867.138 390.043 867.302 389.493 867.302 388.814C867.302 388.131 867.135 387.579 866.803 387.16C866.475 386.736 866.037 386.524 865.49 386.524Z" fill="white"/>
<path d="M1128.48 145.842C1128.35 146.895 1127.96 147.708 1127.31 148.282C1126.66 148.852 1125.79 149.137 1124.7 149.137C1123.53 149.137 1122.58 148.715 1121.87 147.872C1121.17 147.029 1120.81 145.901 1120.81 144.488V143.531C1120.81 142.606 1120.98 141.793 1121.31 141.091C1121.64 140.389 1122.11 139.851 1122.71 139.478C1123.32 139.099 1124.02 138.91 1124.82 138.91C1125.88 138.91 1126.72 139.206 1127.36 139.799C1128 140.387 1128.37 141.202 1128.48 142.246H1127.16C1127.04 141.453 1126.79 140.879 1126.41 140.523C1126.03 140.168 1125.5 139.99 1124.82 139.99C1123.98 139.99 1123.32 140.3 1122.84 140.92C1122.37 141.54 1122.13 142.422 1122.13 143.565V144.529C1122.13 145.609 1122.36 146.468 1122.81 147.106C1123.26 147.744 1123.89 148.063 1124.7 148.063C1125.43 148.063 1125.99 147.899 1126.38 147.571C1126.77 147.239 1127.03 146.662 1127.16 145.842H1128.48ZM1134.64 149C1134.57 148.854 1134.51 148.594 1134.46 148.221C1133.88 148.831 1133.18 149.137 1132.36 149.137C1131.63 149.137 1131.03 148.932 1130.56 148.521C1130.1 148.107 1129.86 147.583 1129.86 146.949C1129.86 146.179 1130.16 145.582 1130.74 145.158C1131.33 144.73 1132.15 144.516 1133.21 144.516H1134.44V143.935C1134.44 143.493 1134.31 143.142 1134.05 142.882C1133.78 142.618 1133.39 142.485 1132.88 142.485C1132.43 142.485 1132.05 142.599 1131.74 142.827C1131.44 143.055 1131.29 143.331 1131.29 143.654H1130.01C1130.01 143.285 1130.14 142.93 1130.4 142.588C1130.67 142.242 1131.02 141.968 1131.47 141.768C1131.92 141.567 1132.42 141.467 1132.95 141.467C1133.81 141.467 1134.47 141.681 1134.96 142.109C1135.44 142.533 1135.69 143.119 1135.71 143.866V147.271C1135.71 147.95 1135.8 148.49 1135.97 148.891V149H1134.64ZM1132.54 148.036C1132.94 148.036 1133.32 147.934 1133.67 147.729C1134.03 147.523 1134.28 147.257 1134.44 146.929V145.411H1133.45C1131.9 145.411 1131.13 145.865 1131.13 146.771C1131.13 147.168 1131.26 147.478 1131.53 147.701C1131.79 147.924 1132.13 148.036 1132.54 148.036ZM1141.27 142.738C1141.08 142.706 1140.87 142.69 1140.64 142.69C1139.82 142.69 1139.25 143.044 1138.96 143.75V149H1137.69V141.604H1138.92L1138.94 142.458C1139.36 141.797 1139.94 141.467 1140.71 141.467C1140.95 141.467 1141.14 141.499 1141.27 141.562V142.738ZM1147 148.269C1146.51 148.847 1145.79 149.137 1144.83 149.137C1144.05 149.137 1143.44 148.909 1143.03 148.453C1142.62 147.993 1142.41 147.314 1142.41 146.416V141.604H1143.67V146.382C1143.67 147.503 1144.13 148.063 1145.04 148.063C1146.01 148.063 1146.65 147.703 1146.97 146.983V141.604H1148.23V149H1147.03L1147 148.269ZM1154.47 147.038C1154.47 146.696 1154.34 146.432 1154.08 146.245C1153.82 146.054 1153.37 145.89 1152.73 145.753C1152.09 145.616 1151.58 145.452 1151.21 145.261C1150.83 145.069 1150.55 144.841 1150.37 144.577C1150.19 144.313 1150.11 143.998 1150.11 143.634C1150.11 143.028 1150.36 142.515 1150.87 142.096C1151.39 141.676 1152.04 141.467 1152.84 141.467C1153.68 141.467 1154.36 141.683 1154.88 142.116C1155.4 142.549 1155.66 143.103 1155.66 143.777H1154.39C1154.39 143.431 1154.24 143.132 1153.95 142.882C1153.66 142.631 1153.29 142.506 1152.84 142.506C1152.38 142.506 1152.02 142.606 1151.76 142.807C1151.5 143.007 1151.37 143.269 1151.37 143.593C1151.37 143.898 1151.49 144.128 1151.73 144.283C1151.97 144.438 1152.41 144.586 1153.04 144.728C1153.67 144.869 1154.18 145.037 1154.58 145.233C1154.97 145.429 1155.26 145.666 1155.44 145.944C1155.64 146.218 1155.73 146.553 1155.73 146.949C1155.73 147.61 1155.47 148.141 1154.94 148.542C1154.41 148.938 1153.72 149.137 1152.88 149.137C1152.29 149.137 1151.76 149.032 1151.31 148.822C1150.85 148.613 1150.5 148.321 1150.24 147.947C1149.98 147.569 1149.85 147.161 1149.85 146.724H1151.12C1151.14 147.147 1151.31 147.485 1151.62 147.735C1151.94 147.981 1152.36 148.104 1152.88 148.104C1153.36 148.104 1153.74 148.009 1154.03 147.817C1154.32 147.621 1154.47 147.362 1154.47 147.038ZM1157.04 145.233C1157.04 144.509 1157.19 143.857 1157.47 143.278C1157.75 142.7 1158.15 142.253 1158.66 141.938C1159.17 141.624 1159.75 141.467 1160.4 141.467C1161.41 141.467 1162.22 141.815 1162.84 142.513C1163.47 143.21 1163.78 144.137 1163.78 145.295V145.384C1163.78 146.104 1163.64 146.751 1163.36 147.325C1163.09 147.895 1162.69 148.339 1162.18 148.658C1161.67 148.977 1161.08 149.137 1160.41 149.137C1159.41 149.137 1158.6 148.788 1157.97 148.091C1157.35 147.394 1157.04 146.471 1157.04 145.322V145.233ZM1158.32 145.384C1158.32 146.204 1158.5 146.863 1158.88 147.359C1159.27 147.856 1159.78 148.104 1160.41 148.104C1161.06 148.104 1161.57 147.854 1161.95 147.353C1162.32 146.847 1162.51 146.14 1162.51 145.233C1162.51 144.422 1162.32 143.766 1161.93 143.265C1161.55 142.759 1161.04 142.506 1160.4 142.506C1159.78 142.506 1159.27 142.754 1158.89 143.251C1158.51 143.748 1158.32 144.459 1158.32 145.384ZM1174.53 146.402H1170.36L1169.42 149H1168.07L1171.87 139.047H1173.02L1176.83 149H1175.48L1174.53 146.402ZM1170.76 145.322H1174.14L1172.45 140.667L1170.76 145.322ZM1179.48 145.104V149H1178.17V139.047H1181.84C1182.93 139.047 1183.78 139.325 1184.39 139.881C1185.01 140.437 1185.32 141.173 1185.32 142.089C1185.32 143.055 1185.02 143.8 1184.42 144.324C1183.81 144.844 1182.95 145.104 1181.82 145.104H1179.48ZM1179.48 144.03H1181.84C1182.54 144.03 1183.08 143.866 1183.45 143.538C1183.82 143.205 1184.01 142.727 1184.01 142.103C1184.01 141.51 1183.82 141.036 1183.45 140.681C1183.08 140.325 1182.56 140.141 1181.91 140.127H1179.48V144.03ZM1188.41 149H1187.09V139.047H1188.41V149ZM1197.22 144.563C1196.09 144.24 1195.27 143.843 1194.76 143.374C1194.25 142.9 1193.99 142.317 1193.99 141.624C1193.99 140.84 1194.3 140.193 1194.93 139.683C1195.56 139.168 1196.37 138.91 1197.38 138.91C1198.06 138.91 1198.67 139.042 1199.2 139.307C1199.74 139.571 1200.15 139.936 1200.45 140.4C1200.74 140.865 1200.89 141.373 1200.89 141.925H1199.57C1199.57 141.323 1199.38 140.852 1199 140.51C1198.61 140.163 1198.07 139.99 1197.38 139.99C1196.73 139.99 1196.22 140.134 1195.86 140.421C1195.5 140.703 1195.32 141.098 1195.32 141.604C1195.32 142.009 1195.49 142.353 1195.83 142.636C1196.18 142.914 1196.76 143.169 1197.59 143.401C1198.42 143.634 1199.06 143.891 1199.53 144.174C1200 144.452 1200.35 144.778 1200.57 145.151C1200.8 145.525 1200.91 145.965 1200.91 146.471C1200.91 147.277 1200.6 147.924 1199.97 148.412C1199.34 148.895 1198.5 149.137 1197.44 149.137C1196.76 149.137 1196.12 149.007 1195.53 148.747C1194.94 148.483 1194.48 148.123 1194.16 147.667C1193.84 147.211 1193.68 146.694 1193.68 146.115H1195C1195 146.717 1195.22 147.193 1195.66 147.544C1196.11 147.89 1196.7 148.063 1197.44 148.063C1198.14 148.063 1198.67 147.922 1199.04 147.64C1199.41 147.357 1199.59 146.972 1199.59 146.484C1199.59 145.997 1199.42 145.621 1199.08 145.356C1198.74 145.088 1198.12 144.823 1197.22 144.563ZM1205.47 149.137C1204.47 149.137 1203.65 148.809 1203.02 148.152C1202.39 147.492 1202.08 146.61 1202.08 145.507V145.274C1202.08 144.541 1202.22 143.887 1202.5 143.312C1202.78 142.734 1203.17 142.283 1203.67 141.959C1204.18 141.631 1204.72 141.467 1205.31 141.467C1206.27 141.467 1207.02 141.784 1207.55 142.417C1208.09 143.05 1208.35 143.957 1208.35 145.138V145.664H1203.34C1203.36 146.393 1203.57 146.983 1203.98 147.435C1204.39 147.881 1204.91 148.104 1205.54 148.104C1205.98 148.104 1206.36 148.013 1206.67 147.831C1206.98 147.649 1207.25 147.407 1207.49 147.106L1208.26 147.708C1207.64 148.66 1206.71 149.137 1205.47 149.137ZM1205.31 142.506C1204.8 142.506 1204.37 142.693 1204.03 143.066C1203.68 143.436 1203.47 143.955 1203.38 144.625H1207.09V144.529C1207.05 143.887 1206.88 143.39 1206.57 143.039C1206.26 142.684 1205.84 142.506 1205.31 142.506ZM1213.4 142.738C1213.21 142.706 1213 142.69 1212.78 142.69C1211.95 142.69 1211.39 143.044 1211.09 143.75V149H1209.82V141.604H1211.05L1211.08 142.458C1211.49 141.797 1212.08 141.467 1212.84 141.467C1213.08 141.467 1213.27 141.499 1213.4 141.562V142.738ZM1217.13 147.284L1218.96 141.604H1220.26L1217.6 149H1216.64L1213.96 141.604H1215.25L1217.13 147.284ZM1224.45 149.137C1223.44 149.137 1222.63 148.809 1222 148.152C1221.37 147.492 1221.06 146.61 1221.06 145.507V145.274C1221.06 144.541 1221.19 143.887 1221.47 143.312C1221.76 142.734 1222.15 142.283 1222.65 141.959C1223.15 141.631 1223.7 141.467 1224.29 141.467C1225.25 141.467 1226 141.784 1226.53 142.417C1227.06 143.05 1227.33 143.957 1227.33 145.138V145.664H1222.32C1222.34 146.393 1222.55 146.983 1222.96 147.435C1223.37 147.881 1223.89 148.104 1224.51 148.104C1224.96 148.104 1225.34 148.013 1225.65 147.831C1225.96 147.649 1226.23 147.407 1226.46 147.106L1227.24 147.708C1226.62 148.66 1225.69 149.137 1224.45 149.137ZM1224.29 142.506C1223.78 142.506 1223.35 142.693 1223 143.066C1222.66 143.436 1222.44 143.955 1222.36 144.625H1226.07V144.529C1226.03 143.887 1225.86 143.39 1225.55 143.039C1225.24 142.684 1224.82 142.506 1224.29 142.506ZM1232.38 142.738C1232.18 142.706 1231.98 142.69 1231.75 142.69C1230.92 142.69 1230.36 143.044 1230.07 143.75V149H1228.8V141.604H1230.03L1230.05 142.458C1230.47 141.797 1231.05 141.467 1231.82 141.467C1232.06 141.467 1232.25 141.499 1232.38 141.562V142.738Z" fill="black"/>
<path d="M649.651 46.4023H645.481L644.545 49H643.191L646.992 39.0469H648.141L651.948 49H650.602L649.651 46.4023ZM645.878 45.3223H649.262L647.566 40.667L645.878 45.3223ZM659.338 45.3838C659.338 46.5094 659.08 47.4163 658.565 48.1045C658.05 48.7926 657.353 49.1367 656.474 49.1367C655.576 49.1367 654.869 48.8519 654.354 48.2822V51.8438H653.09V41.6035H654.245L654.307 42.4238C654.822 41.7858 655.537 41.4668 656.453 41.4668C657.342 41.4668 658.044 41.8018 658.559 42.4717C659.078 43.1416 659.338 44.0736 659.338 45.2676V45.3838ZM658.073 45.2402C658.073 44.4062 657.896 43.7477 657.54 43.2646C657.185 42.7816 656.697 42.54 656.077 42.54C655.312 42.54 654.737 42.8796 654.354 43.5586V47.0928C654.733 47.7673 655.312 48.1045 656.091 48.1045C656.697 48.1045 657.178 47.8652 657.533 47.3867C657.893 46.9036 658.073 46.1882 658.073 45.2402ZM667.199 45.3838C667.199 46.5094 666.942 47.4163 666.427 48.1045C665.912 48.7926 665.215 49.1367 664.335 49.1367C663.437 49.1367 662.731 48.8519 662.216 48.2822V51.8438H660.951V41.6035H662.106L662.168 42.4238C662.683 41.7858 663.398 41.4668 664.314 41.4668C665.203 41.4668 665.905 41.8018 666.42 42.4717C666.939 43.1416 667.199 44.0736 667.199 45.2676V45.3838ZM665.935 45.2402C665.935 44.4062 665.757 43.7477 665.401 43.2646C665.046 42.7816 664.558 42.54 663.938 42.54C663.173 42.54 662.599 42.8796 662.216 43.5586V47.0928C662.594 47.7673 663.173 48.1045 663.952 48.1045C664.558 48.1045 665.039 47.8652 665.395 47.3867C665.755 46.9036 665.935 46.1882 665.935 45.2402ZM670.187 49H668.922V38.5H670.187V49ZM673.591 49H672.326V41.6035H673.591V49ZM672.224 39.6416C672.224 39.4365 672.285 39.2633 672.408 39.1221C672.536 38.9808 672.723 38.9102 672.969 38.9102C673.215 38.9102 673.402 38.9808 673.529 39.1221C673.657 39.2633 673.721 39.4365 673.721 39.6416C673.721 39.8467 673.657 40.0176 673.529 40.1543C673.402 40.291 673.215 40.3594 672.969 40.3594C672.723 40.3594 672.536 40.291 672.408 40.1543C672.285 40.0176 672.224 39.8467 672.224 39.6416ZM678.588 48.1045C679.039 48.1045 679.433 47.9678 679.771 47.6943C680.108 47.4209 680.295 47.0791 680.331 46.6689H681.527C681.505 47.0928 681.359 47.4961 681.09 47.8789C680.821 48.2617 680.461 48.5671 680.01 48.7949C679.563 49.0228 679.089 49.1367 678.588 49.1367C677.581 49.1367 676.779 48.8018 676.182 48.1318C675.589 47.4574 675.293 46.5368 675.293 45.3701V45.1582C675.293 44.4382 675.425 43.7979 675.689 43.2373C675.954 42.6768 676.332 42.2415 676.824 41.9316C677.321 41.6217 677.907 41.4668 678.581 41.4668C679.41 41.4668 680.099 41.7152 680.646 42.2119C681.197 42.7087 681.491 43.3535 681.527 44.1465H680.331C680.295 43.668 680.112 43.276 679.784 42.9707C679.461 42.6608 679.06 42.5059 678.581 42.5059C677.938 42.5059 677.439 42.7383 677.084 43.2031C676.733 43.6634 676.558 44.3311 676.558 45.2061V45.4453C676.558 46.2975 676.733 46.9538 677.084 47.4141C677.435 47.8743 677.936 48.1045 678.588 48.1045ZM687.516 49C687.443 48.8542 687.383 48.5944 687.338 48.2207C686.75 48.8314 686.048 49.1367 685.232 49.1367C684.503 49.1367 683.904 48.9316 683.435 48.5215C682.97 48.1068 682.737 47.5827 682.737 46.9492C682.737 46.179 683.029 45.582 683.612 45.1582C684.2 44.7298 685.025 44.5156 686.087 44.5156H687.317V43.9346C687.317 43.4925 687.185 43.1416 686.921 42.8818C686.657 42.6175 686.267 42.4854 685.752 42.4854C685.301 42.4854 684.923 42.5993 684.617 42.8271C684.312 43.055 684.159 43.3307 684.159 43.6543H682.888C682.888 43.2852 683.018 42.9297 683.277 42.5879C683.542 42.2415 683.897 41.9681 684.344 41.7676C684.795 41.5671 685.289 41.4668 685.827 41.4668C686.679 41.4668 687.347 41.681 687.83 42.1094C688.313 42.5332 688.564 43.1188 688.582 43.8662V47.2705C688.582 47.9495 688.669 48.4896 688.842 48.8906V49H687.516ZM685.417 48.0361C685.813 48.0361 686.189 47.9336 686.545 47.7285C686.9 47.5234 687.158 47.2568 687.317 46.9287V45.4111H686.326C684.777 45.4111 684.002 45.8646 684.002 46.7715C684.002 47.168 684.134 47.4779 684.398 47.7012C684.663 47.9245 685.002 48.0361 685.417 48.0361ZM692.28 39.8125V41.6035H693.661V42.5811H692.28V47.168C692.28 47.4642 692.342 47.6875 692.465 47.8379C692.588 47.9837 692.798 48.0566 693.094 48.0566C693.24 48.0566 693.44 48.0293 693.695 47.9746V49C693.363 49.0911 693.039 49.1367 692.725 49.1367C692.16 49.1367 691.733 48.9658 691.446 48.624C691.159 48.2822 691.016 47.7969 691.016 47.168V42.5811H689.669V41.6035H691.016V39.8125H692.28ZM696.519 49H695.254V41.6035H696.519V49ZM695.151 39.6416C695.151 39.4365 695.213 39.2633 695.336 39.1221C695.464 38.9808 695.65 38.9102 695.896 38.9102C696.143 38.9102 696.329 38.9808 696.457 39.1221C696.585 39.2633 696.648 39.4365 696.648 39.6416C696.648 39.8467 696.585 40.0176 696.457 40.1543C696.329 40.291 696.143 40.3594 695.896 40.3594C695.65 40.3594 695.464 40.291 695.336 40.1543C695.213 40.0176 695.151 39.8467 695.151 39.6416ZM698.214 45.2334C698.214 44.5088 698.355 43.8571 698.638 43.2783C698.925 42.6995 699.321 42.2529 699.827 41.9385C700.338 41.624 700.919 41.4668 701.57 41.4668C702.577 41.4668 703.391 41.8154 704.011 42.5127C704.635 43.21 704.947 44.1374 704.947 45.2949V45.3838C704.947 46.1038 704.808 46.751 704.53 47.3252C704.257 47.8949 703.863 48.3392 703.348 48.6582C702.837 48.9772 702.249 49.1367 701.584 49.1367C700.581 49.1367 699.768 48.7881 699.144 48.0908C698.524 47.3936 698.214 46.4707 698.214 45.3223V45.2334ZM699.485 45.3838C699.485 46.2041 699.674 46.8626 700.053 47.3594C700.436 47.8561 700.946 48.1045 701.584 48.1045C702.227 48.1045 702.737 47.8538 703.115 47.3525C703.493 46.8467 703.683 46.1403 703.683 45.2334C703.683 44.4222 703.489 43.766 703.102 43.2646C702.719 42.7588 702.208 42.5059 701.57 42.5059C700.946 42.5059 700.442 42.7542 700.06 43.251C699.677 43.7477 699.485 44.4587 699.485 45.3838ZM707.729 41.6035L707.771 42.5332C708.336 41.8223 709.074 41.4668 709.985 41.4668C711.549 41.4668 712.337 42.3486 712.351 44.1123V49H711.086V44.1055C711.081 43.5723 710.958 43.1781 710.717 42.9229C710.48 42.6676 710.108 42.54 709.603 42.54C709.192 42.54 708.832 42.6494 708.522 42.8682C708.213 43.0869 707.971 43.374 707.798 43.7295V49H706.533V41.6035H707.729ZM720.861 44.5635C719.736 44.2399 718.915 43.8434 718.4 43.374C717.89 42.9001 717.635 42.3167 717.635 41.624C717.635 40.8402 717.947 40.193 718.571 39.6826C719.2 39.1676 720.016 38.9102 721.019 38.9102C721.702 38.9102 722.311 39.0423 722.844 39.3066C723.382 39.571 723.796 39.9355 724.088 40.4004C724.384 40.8652 724.532 41.3734 724.532 41.9248H723.213C723.213 41.3232 723.021 40.8516 722.639 40.5098C722.256 40.1634 721.716 39.9902 721.019 39.9902C720.371 39.9902 719.866 40.1338 719.501 40.4209C719.141 40.7035 718.961 41.0977 718.961 41.6035C718.961 42.0091 719.132 42.3532 719.474 42.6357C719.82 42.9137 720.406 43.1689 721.23 43.4014C722.06 43.6338 722.707 43.8913 723.172 44.1738C723.641 44.4518 723.988 44.7777 724.211 45.1514C724.439 45.5251 724.553 45.9648 724.553 46.4707C724.553 47.2773 724.238 47.9245 723.609 48.4121C722.98 48.8952 722.14 49.1367 721.087 49.1367C720.403 49.1367 719.765 49.0068 719.173 48.7471C718.58 48.4827 718.122 48.1227 717.799 47.667C717.48 47.2113 717.32 46.694 717.32 46.1152H718.64C718.64 46.7168 718.861 47.193 719.303 47.5439C719.749 47.8903 720.344 48.0635 721.087 48.0635C721.78 48.0635 722.311 47.9222 722.68 47.6396C723.049 47.3571 723.233 46.972 723.233 46.4844C723.233 45.9967 723.062 45.6208 722.721 45.3564C722.379 45.0876 721.759 44.8232 720.861 44.5635ZM729.112 49.1367C728.11 49.1367 727.294 48.8086 726.665 48.1523C726.036 47.4915 725.722 46.6097 725.722 45.5068V45.2744C725.722 44.5407 725.861 43.8867 726.139 43.3125C726.421 42.7337 726.813 42.2826 727.314 41.959C727.82 41.6309 728.367 41.4668 728.955 41.4668C729.917 41.4668 730.664 41.7835 731.197 42.417C731.73 43.0505 731.997 43.9574 731.997 45.1377V45.6641H726.986C727.005 46.3932 727.216 46.9834 727.622 47.4346C728.032 47.8812 728.552 48.1045 729.181 48.1045C729.627 48.1045 730.006 48.0133 730.315 47.8311C730.625 47.6488 730.896 47.4072 731.129 47.1064L731.901 47.708C731.282 48.6605 730.352 49.1367 729.112 49.1367ZM728.955 42.5059C728.445 42.5059 728.016 42.6927 727.67 43.0664C727.324 43.4355 727.109 43.9551 727.027 44.625H730.732V44.5293C730.696 43.8867 730.523 43.39 730.213 43.0391C729.903 42.6836 729.484 42.5059 728.955 42.5059ZM737.042 42.7383C736.851 42.7064 736.643 42.6904 736.42 42.6904C735.59 42.6904 735.028 43.0436 734.731 43.75V49H733.467V41.6035H734.697L734.718 42.458C735.132 41.7972 735.72 41.4668 736.481 41.4668C736.728 41.4668 736.914 41.4987 737.042 41.5625V42.7383ZM740.774 47.2842L742.606 41.6035H743.898L741.246 49H740.282L737.603 41.6035H738.895L740.774 47.2842ZM748.089 49.1367C747.086 49.1367 746.271 48.8086 745.642 48.1523C745.013 47.4915 744.698 46.6097 744.698 45.5068V45.2744C744.698 44.5407 744.837 43.8867 745.115 43.3125C745.398 42.7337 745.79 42.2826 746.291 41.959C746.797 41.6309 747.344 41.4668 747.932 41.4668C748.893 41.4668 749.641 41.7835 750.174 42.417C750.707 43.0505 750.974 43.9574 750.974 45.1377V45.6641H745.963C745.981 46.3932 746.193 46.9834 746.599 47.4346C747.009 47.8812 747.528 48.1045 748.157 48.1045C748.604 48.1045 748.982 48.0133 749.292 47.8311C749.602 47.6488 749.873 47.4072 750.105 47.1064L750.878 47.708C750.258 48.6605 749.328 49.1367 748.089 49.1367ZM747.932 42.5059C747.421 42.5059 746.993 42.6927 746.646 43.0664C746.3 43.4355 746.086 43.9551 746.004 44.625H749.709V44.5293C749.673 43.8867 749.499 43.39 749.189 43.0391C748.88 42.6836 748.46 42.5059 747.932 42.5059ZM756.019 42.7383C755.827 42.7064 755.62 42.6904 755.396 42.6904C754.567 42.6904 754.004 43.0436 753.708 43.75V49H752.443V41.6035H753.674L753.694 42.458C754.109 41.7972 754.697 41.4668 755.458 41.4668C755.704 41.4668 755.891 41.4987 756.019 41.5625V42.7383Z" fill="black"/>
<path d="M656.781 134.399H652.468V137.927H657.479V139H651.155V129.047H657.41V130.127H652.468V133.326H656.781V134.399ZM661.546 135.288H658.21V134.256H661.546V135.288ZM670.303 135.842C670.18 136.895 669.79 137.708 669.134 138.282C668.482 138.852 667.614 139.137 666.529 139.137C665.354 139.137 664.41 138.715 663.699 137.872C662.993 137.029 662.64 135.901 662.64 134.488V133.531C662.64 132.606 662.804 131.793 663.132 131.091C663.465 130.389 663.934 129.851 664.54 129.478C665.146 129.099 665.848 128.91 666.646 128.91C667.703 128.91 668.55 129.206 669.188 129.799C669.826 130.387 670.198 131.202 670.303 132.246H668.983C668.869 131.453 668.621 130.879 668.238 130.523C667.86 130.168 667.329 129.99 666.646 129.99C665.807 129.99 665.148 130.3 664.67 130.92C664.196 131.54 663.959 132.422 663.959 133.565V134.529C663.959 135.609 664.185 136.468 664.636 137.106C665.087 137.744 665.718 138.063 666.529 138.063C667.258 138.063 667.817 137.899 668.204 137.571C668.596 137.239 668.856 136.662 668.983 135.842H670.303ZM673.167 132.499C673.728 131.811 674.457 131.467 675.354 131.467C676.918 131.467 677.706 132.349 677.72 134.112V139H676.455V134.105C676.451 133.572 676.327 133.178 676.086 132.923C675.849 132.668 675.478 132.54 674.972 132.54C674.562 132.54 674.201 132.649 673.892 132.868C673.582 133.087 673.34 133.374 673.167 133.729V139H671.902V128.5H673.167V132.499ZM684.18 139C684.107 138.854 684.048 138.594 684.002 138.221C683.414 138.831 682.712 139.137 681.896 139.137C681.167 139.137 680.568 138.932 680.099 138.521C679.634 138.107 679.401 137.583 679.401 136.949C679.401 136.179 679.693 135.582 680.276 135.158C680.864 134.73 681.689 134.516 682.751 134.516H683.981V133.935C683.981 133.493 683.849 133.142 683.585 132.882C683.321 132.618 682.931 132.485 682.416 132.485C681.965 132.485 681.587 132.599 681.281 132.827C680.976 133.055 680.823 133.331 680.823 133.654H679.552C679.552 133.285 679.682 132.93 679.941 132.588C680.206 132.242 680.561 131.968 681.008 131.768C681.459 131.567 681.953 131.467 682.491 131.467C683.343 131.467 684.011 131.681 684.494 132.109C684.977 132.533 685.228 133.119 685.246 133.866V137.271C685.246 137.95 685.333 138.49 685.506 138.891V139H684.18ZM682.081 138.036C682.478 138.036 682.854 137.934 683.209 137.729C683.564 137.523 683.822 137.257 683.981 136.929V135.411H682.99C681.441 135.411 680.666 135.865 680.666 136.771C680.666 137.168 680.798 137.478 681.062 137.701C681.327 137.924 681.666 138.036 682.081 138.036ZM690.804 132.738C690.612 132.706 690.405 132.69 690.182 132.69C689.352 132.69 688.789 133.044 688.493 133.75V139H687.229V131.604H688.459L688.479 132.458C688.894 131.797 689.482 131.467 690.243 131.467C690.489 131.467 690.676 131.499 690.804 131.562V132.738ZM691.535 135.24C691.535 134.087 691.802 133.171 692.335 132.492C692.868 131.809 693.575 131.467 694.454 131.467C695.356 131.467 696.061 131.786 696.566 132.424L696.628 131.604H697.783V138.822C697.783 139.779 697.498 140.534 696.929 141.085C696.364 141.636 695.603 141.912 694.646 141.912C694.112 141.912 693.59 141.798 693.08 141.57C692.57 141.342 692.18 141.03 691.911 140.634L692.567 139.875C693.11 140.545 693.773 140.88 694.557 140.88C695.172 140.88 695.65 140.707 695.992 140.36C696.339 140.014 696.512 139.526 696.512 138.897V138.262C696.006 138.845 695.315 139.137 694.44 139.137C693.575 139.137 692.873 138.788 692.335 138.091C691.802 137.394 691.535 136.443 691.535 135.24ZM692.807 135.384C692.807 136.218 692.978 136.874 693.319 137.353C693.661 137.826 694.14 138.063 694.755 138.063C695.552 138.063 696.138 137.701 696.512 136.977V133.6C696.124 132.893 695.543 132.54 694.769 132.54C694.153 132.54 693.673 132.779 693.326 133.258C692.98 133.736 692.807 134.445 692.807 135.384ZM702.767 139.137C701.764 139.137 700.948 138.809 700.319 138.152C699.69 137.492 699.376 136.61 699.376 135.507V135.274C699.376 134.541 699.515 133.887 699.793 133.312C700.076 132.734 700.467 132.283 700.969 131.959C701.475 131.631 702.021 131.467 702.609 131.467C703.571 131.467 704.318 131.784 704.852 132.417C705.385 133.05 705.651 133.957 705.651 135.138V135.664H700.641C700.659 136.393 700.871 136.983 701.276 137.435C701.687 137.881 702.206 138.104 702.835 138.104C703.282 138.104 703.66 138.013 703.97 137.831C704.28 137.649 704.551 137.407 704.783 137.106L705.556 137.708C704.936 138.66 704.006 139.137 702.767 139.137ZM702.609 132.506C702.099 132.506 701.671 132.693 701.324 133.066C700.978 133.436 700.764 133.955 700.682 134.625H704.387V134.529C704.35 133.887 704.177 133.39 703.867 133.039C703.557 132.684 703.138 132.506 702.609 132.506ZM713.725 134.563C712.599 134.24 711.779 133.843 711.264 133.374C710.753 132.9 710.498 132.317 710.498 131.624C710.498 130.84 710.81 130.193 711.435 129.683C712.063 129.168 712.879 128.91 713.882 128.91C714.565 128.91 715.174 129.042 715.707 129.307C716.245 129.571 716.66 129.936 716.951 130.4C717.247 130.865 717.396 131.373 717.396 131.925H716.076C716.076 131.323 715.885 130.852 715.502 130.51C715.119 130.163 714.579 129.99 713.882 129.99C713.235 129.99 712.729 130.134 712.364 130.421C712.004 130.703 711.824 131.098 711.824 131.604C711.824 132.009 711.995 132.353 712.337 132.636C712.683 132.914 713.269 133.169 714.094 133.401C714.923 133.634 715.57 133.891 716.035 134.174C716.505 134.452 716.851 134.778 717.074 135.151C717.302 135.525 717.416 135.965 717.416 136.471C717.416 137.277 717.102 137.924 716.473 138.412C715.844 138.895 715.003 139.137 713.95 139.137C713.267 139.137 712.629 139.007 712.036 138.747C711.444 138.483 710.986 138.123 710.662 137.667C710.343 137.211 710.184 136.694 710.184 136.115H711.503C711.503 136.717 711.724 137.193 712.166 137.544C712.613 137.89 713.207 138.063 713.95 138.063C714.643 138.063 715.174 137.922 715.543 137.64C715.912 137.357 716.097 136.972 716.097 136.484C716.097 135.997 715.926 135.621 715.584 135.356C715.242 135.088 714.622 134.823 713.725 134.563ZM721.976 139.137C720.973 139.137 720.157 138.809 719.528 138.152C718.899 137.492 718.585 136.61 718.585 135.507V135.274C718.585 134.541 718.724 133.887 719.002 133.312C719.285 132.734 719.676 132.283 720.178 131.959C720.684 131.631 721.23 131.467 721.818 131.467C722.78 131.467 723.527 131.784 724.061 132.417C724.594 133.05 724.86 133.957 724.86 135.138V135.664H719.85C719.868 136.393 720.08 136.983 720.485 137.435C720.896 137.881 721.415 138.104 722.044 138.104C722.491 138.104 722.869 138.013 723.179 137.831C723.489 137.649 723.76 137.407 723.992 137.106L724.765 137.708C724.145 138.66 723.215 139.137 721.976 139.137ZM721.818 132.506C721.308 132.506 720.88 132.693 720.533 133.066C720.187 133.436 719.973 133.955 719.891 134.625H723.596V134.529C723.559 133.887 723.386 133.39 723.076 133.039C722.766 132.684 722.347 132.506 721.818 132.506ZM729.905 132.738C729.714 132.706 729.507 132.69 729.283 132.69C728.454 132.69 727.891 133.044 727.595 133.75V139H726.33V131.604H727.561L727.581 132.458C727.996 131.797 728.584 131.467 729.345 131.467C729.591 131.467 729.778 131.499 729.905 131.562V132.738ZM733.638 137.284L735.47 131.604H736.762L734.109 139H733.146L730.466 131.604H731.758L733.638 137.284ZM740.952 139.137C739.95 139.137 739.134 138.809 738.505 138.152C737.876 137.492 737.562 136.61 737.562 135.507V135.274C737.562 134.541 737.701 133.887 737.979 133.312C738.261 132.734 738.653 132.283 739.154 131.959C739.66 131.631 740.207 131.467 740.795 131.467C741.757 131.467 742.504 131.784 743.037 132.417C743.57 133.05 743.837 133.957 743.837 135.138V135.664H738.826C738.844 136.393 739.056 136.983 739.462 137.435C739.872 137.881 740.392 138.104 741.021 138.104C741.467 138.104 741.845 138.013 742.155 137.831C742.465 137.649 742.736 137.407 742.969 137.106L743.741 137.708C743.121 138.66 742.192 139.137 740.952 139.137ZM740.795 132.506C740.285 132.506 739.856 132.693 739.51 133.066C739.163 133.436 738.949 133.955 738.867 134.625H742.572V134.529C742.536 133.887 742.363 133.39 742.053 133.039C741.743 132.684 741.324 132.506 740.795 132.506ZM748.882 132.738C748.69 132.706 748.483 132.69 748.26 132.69C747.43 132.69 746.868 133.044 746.571 133.75V139H745.307V131.604H746.537L746.558 132.458C746.972 131.797 747.56 131.467 748.321 131.467C748.567 131.467 748.754 131.499 748.882 131.562V132.738Z" fill="black"/>
<path d="M669.851 439.047L673.104 447.168L676.358 439.047H678.061V449H676.748V445.124L676.871 440.94L673.604 449H672.599L669.338 440.961L669.468 445.124V449H668.155V439.047H669.851ZM682.6 447.147L684.322 441.604H685.676L682.702 450.142C682.242 451.372 681.51 451.987 680.508 451.987L680.269 451.967L679.797 451.878V450.853L680.139 450.88C680.567 450.88 680.9 450.793 681.137 450.62C681.378 450.447 681.576 450.13 681.731 449.67L682.012 448.918L679.373 441.604H680.754L682.6 447.147ZM689.941 444.563C688.816 444.24 687.995 443.843 687.48 443.374C686.97 442.9 686.715 442.317 686.715 441.624C686.715 440.84 687.027 440.193 687.651 439.683C688.28 439.168 689.096 438.91 690.099 438.91C690.782 438.91 691.391 439.042 691.924 439.307C692.462 439.571 692.876 439.936 693.168 440.4C693.464 440.865 693.612 441.373 693.612 441.925H692.293C692.293 441.323 692.102 440.852 691.719 440.51C691.336 440.163 690.796 439.99 690.099 439.99C689.451 439.99 688.946 440.134 688.581 440.421C688.221 440.703 688.041 441.098 688.041 441.604C688.041 442.009 688.212 442.353 688.554 442.636C688.9 442.914 689.486 443.169 690.311 443.401C691.14 443.634 691.787 443.891 692.252 444.174C692.721 444.452 693.068 444.778 693.291 445.151C693.519 445.525 693.633 445.965 693.633 446.471C693.633 447.277 693.318 447.924 692.689 448.412C692.061 448.895 691.22 449.137 690.167 449.137C689.483 449.137 688.845 449.007 688.253 448.747C687.66 448.483 687.202 448.123 686.879 447.667C686.56 447.211 686.4 446.694 686.4 446.115H687.72C687.72 446.717 687.941 447.193 688.383 447.544C688.829 447.89 689.424 448.063 690.167 448.063C690.86 448.063 691.391 447.922 691.76 447.64C692.129 447.357 692.313 446.972 692.313 446.484C692.313 445.997 692.143 445.621 691.801 445.356C691.459 445.088 690.839 444.823 689.941 444.563ZM702.923 444.345C702.923 445.306 702.77 446.136 702.465 446.833C702.16 447.526 701.731 448.068 701.18 448.46L702.957 449.854L702.062 450.682L699.963 449.014C699.635 449.096 699.288 449.137 698.924 449.137C698.14 449.137 697.445 448.945 696.839 448.562C696.233 448.175 695.761 447.626 695.424 446.915C695.091 446.2 694.92 445.372 694.911 444.434V443.716C694.911 442.759 695.077 441.913 695.41 441.18C695.743 440.446 696.212 439.885 696.818 439.498C697.429 439.106 698.126 438.91 698.91 438.91C699.712 438.91 700.416 439.104 701.022 439.491C701.633 439.879 702.103 440.437 702.431 441.166C702.759 441.891 702.923 442.738 702.923 443.709V444.345ZM701.61 443.702C701.61 442.531 701.376 441.629 700.906 440.995C700.441 440.357 699.776 440.038 698.91 440.038C698.085 440.038 697.434 440.355 696.955 440.988C696.481 441.617 696.237 442.492 696.224 443.613V444.345C696.224 445.484 696.461 446.382 696.935 447.038C697.413 447.694 698.076 448.022 698.924 448.022C699.771 448.022 700.428 447.715 700.893 447.1C701.357 446.48 701.597 445.593 701.61 444.44V443.702ZM706.266 447.927H710.982V449H704.946V439.047H706.266V447.927ZM715.952 449V439.047H718.762C719.628 439.047 720.393 439.238 721.059 439.621C721.724 440.004 722.237 440.549 722.597 441.255C722.961 441.961 723.146 442.772 723.15 443.688V444.324C723.15 445.263 722.968 446.086 722.604 446.792C722.243 447.498 721.726 448.041 721.052 448.419C720.382 448.797 719.6 448.991 718.707 449H715.952ZM717.265 440.127V447.927H718.646C719.657 447.927 720.443 447.612 721.004 446.983C721.569 446.354 721.852 445.459 721.852 444.297V443.716C721.852 442.586 721.585 441.708 721.052 441.084C720.523 440.455 719.771 440.136 718.796 440.127H717.265ZM725.14 449V439.047H728.394C729.474 439.047 730.285 439.27 730.827 439.717C731.374 440.163 731.647 440.824 731.647 441.699C731.647 442.164 731.515 442.576 731.251 442.937C730.987 443.292 730.627 443.568 730.171 443.764C730.709 443.914 731.132 444.201 731.442 444.625C731.757 445.044 731.914 445.546 731.914 446.129C731.914 447.022 731.625 447.724 731.046 448.234C730.467 448.745 729.649 449 728.592 449H725.14ZM726.452 444.345V447.927H728.619C729.23 447.927 729.711 447.77 730.062 447.455C730.417 447.136 730.595 446.699 730.595 446.143C730.595 444.944 729.943 444.345 728.64 444.345H726.452ZM726.452 443.292H728.435C729.009 443.292 729.467 443.148 729.809 442.861C730.155 442.574 730.328 442.185 730.328 441.692C730.328 441.146 730.169 440.749 729.85 440.503C729.531 440.252 729.045 440.127 728.394 440.127H726.452V443.292Z" fill="black"/>
<path d="M186.302 269.862L186.493 271.175L186.773 269.992L188.742 263.047H189.85L191.771 269.992L192.044 271.195L192.256 269.855L193.801 263.047H195.12L192.707 273H191.511L189.46 265.747L189.303 264.988L189.146 265.747L187.02 273H185.823L183.417 263.047H184.729L186.302 269.862ZM199.235 273.137C198.233 273.137 197.417 272.809 196.788 272.152C196.159 271.492 195.845 270.61 195.845 269.507V269.274C195.845 268.541 195.984 267.887 196.262 267.312C196.544 266.734 196.936 266.283 197.438 265.959C197.943 265.631 198.49 265.467 199.078 265.467C200.04 265.467 200.787 265.784 201.32 266.417C201.854 267.05 202.12 267.957 202.12 269.138V269.664H197.109C197.128 270.393 197.34 270.983 197.745 271.435C198.155 271.881 198.675 272.104 199.304 272.104C199.75 272.104 200.129 272.013 200.438 271.831C200.748 271.649 201.02 271.407 201.252 271.106L202.024 271.708C201.405 272.66 200.475 273.137 199.235 273.137ZM199.078 266.506C198.568 266.506 198.139 266.693 197.793 267.066C197.447 267.436 197.232 267.955 197.15 268.625H200.855V268.529C200.819 267.887 200.646 267.39 200.336 267.039C200.026 266.684 199.607 266.506 199.078 266.506ZM209.852 269.384C209.852 270.514 209.592 271.423 209.072 272.111C208.553 272.795 207.855 273.137 206.98 273.137C206.046 273.137 205.324 272.806 204.813 272.146L204.752 273H203.59V262.5H204.854V266.417C205.365 265.784 206.069 265.467 206.967 265.467C207.865 265.467 208.569 265.806 209.079 266.485C209.594 267.164 209.852 268.094 209.852 269.274V269.384ZM208.587 269.24C208.587 268.379 208.421 267.714 208.088 267.244C207.755 266.775 207.277 266.54 206.652 266.54C205.818 266.54 205.219 266.927 204.854 267.702V270.901C205.242 271.676 205.846 272.063 206.666 272.063C207.272 272.063 207.744 271.829 208.081 271.359C208.418 270.89 208.587 270.184 208.587 269.24ZM215.122 273V263.047H218.376C219.456 263.047 220.267 263.27 220.81 263.717C221.356 264.163 221.63 264.824 221.63 265.699C221.63 266.164 221.498 266.576 221.233 266.937C220.969 267.292 220.609 267.568 220.153 267.764C220.691 267.914 221.115 268.201 221.425 268.625C221.739 269.044 221.896 269.546 221.896 270.129C221.896 271.022 221.607 271.724 221.028 272.234C220.45 272.745 219.632 273 218.574 273H215.122ZM216.435 268.345V271.927H218.602C219.212 271.927 219.693 271.77 220.044 271.455C220.399 271.136 220.577 270.699 220.577 270.143C220.577 268.944 219.925 268.345 218.622 268.345H216.435ZM216.435 267.292H218.417C218.991 267.292 219.449 267.148 219.791 266.861C220.137 266.574 220.311 266.185 220.311 265.692C220.311 265.146 220.151 264.749 219.832 264.503C219.513 264.252 219.028 264.127 218.376 264.127H216.435V267.292ZM227.222 266.738C227.03 266.706 226.823 266.69 226.6 266.69C225.77 266.69 225.207 267.044 224.911 267.75V273H223.646V265.604H224.877L224.897 266.458C225.312 265.797 225.9 265.467 226.661 265.467C226.907 265.467 227.094 265.499 227.222 265.562V266.738ZM227.919 269.233C227.919 268.509 228.06 267.857 228.343 267.278C228.63 266.7 229.026 266.253 229.532 265.938C230.043 265.624 230.624 265.467 231.275 265.467C232.283 265.467 233.096 265.815 233.716 266.513C234.34 267.21 234.652 268.137 234.652 269.295V269.384C234.652 270.104 234.513 270.751 234.235 271.325C233.962 271.895 233.568 272.339 233.053 272.658C232.542 272.977 231.954 273.137 231.289 273.137C230.286 273.137 229.473 272.788 228.849 272.091C228.229 271.394 227.919 270.471 227.919 269.322V269.233ZM229.19 269.384C229.19 270.204 229.38 270.863 229.758 271.359C230.141 271.856 230.651 272.104 231.289 272.104C231.932 272.104 232.442 271.854 232.82 271.353C233.199 270.847 233.388 270.14 233.388 269.233C233.388 268.422 233.194 267.766 232.807 267.265C232.424 266.759 231.913 266.506 231.275 266.506C230.651 266.506 230.147 266.754 229.765 267.251C229.382 267.748 229.19 268.459 229.19 269.384ZM242.787 271.257L244.209 265.604H245.474L243.32 273H242.295L240.497 267.395L238.747 273H237.722L235.575 265.604H236.833L238.289 271.141L240.012 265.604H241.03L242.787 271.257ZM251.072 271.038C251.072 270.696 250.942 270.432 250.683 270.245C250.427 270.054 249.979 269.89 249.336 269.753C248.698 269.616 248.19 269.452 247.812 269.261C247.438 269.069 247.16 268.841 246.978 268.577C246.8 268.313 246.711 267.998 246.711 267.634C246.711 267.028 246.966 266.515 247.477 266.096C247.992 265.676 248.648 265.467 249.445 265.467C250.284 265.467 250.963 265.683 251.482 266.116C252.007 266.549 252.269 267.103 252.269 267.777H250.997C250.997 267.431 250.849 267.132 250.553 266.882C250.261 266.631 249.892 266.506 249.445 266.506C248.985 266.506 248.625 266.606 248.365 266.807C248.105 267.007 247.976 267.269 247.976 267.593C247.976 267.898 248.096 268.128 248.338 268.283C248.579 268.438 249.015 268.586 249.644 268.728C250.277 268.869 250.79 269.037 251.182 269.233C251.574 269.429 251.863 269.666 252.05 269.944C252.241 270.218 252.337 270.553 252.337 270.949C252.337 271.61 252.073 272.141 251.544 272.542C251.015 272.938 250.329 273.137 249.486 273.137C248.894 273.137 248.37 273.032 247.914 272.822C247.458 272.613 247.101 272.321 246.841 271.947C246.586 271.569 246.458 271.161 246.458 270.724H247.723C247.745 271.147 247.914 271.485 248.229 271.735C248.548 271.981 248.967 272.104 249.486 272.104C249.965 272.104 250.348 272.009 250.635 271.817C250.926 271.621 251.072 271.362 251.072 271.038ZM257.054 273.137C256.051 273.137 255.235 272.809 254.606 272.152C253.978 271.492 253.663 270.61 253.663 269.507V269.274C253.663 268.541 253.802 267.887 254.08 267.312C254.363 266.734 254.755 266.283 255.256 265.959C255.762 265.631 256.309 265.467 256.896 265.467C257.858 265.467 258.605 265.784 259.139 266.417C259.672 267.05 259.938 267.957 259.938 269.138V269.664H254.928C254.946 270.393 255.158 270.983 255.563 271.435C255.974 271.881 256.493 272.104 257.122 272.104C257.569 272.104 257.947 272.013 258.257 271.831C258.567 271.649 258.838 271.407 259.07 271.106L259.843 271.708C259.223 272.66 258.293 273.137 257.054 273.137ZM256.896 266.506C256.386 266.506 255.958 266.693 255.611 267.066C255.265 267.436 255.051 267.955 254.969 268.625H258.674V268.529C258.637 267.887 258.464 267.39 258.154 267.039C257.844 266.684 257.425 266.506 256.896 266.506ZM264.983 266.738C264.792 266.706 264.585 266.69 264.361 266.69C263.532 266.69 262.969 267.044 262.673 267.75V273H261.408V265.604H262.639L262.659 266.458C263.074 265.797 263.662 265.467 264.423 265.467C264.669 265.467 264.856 265.499 264.983 265.562V266.738Z" fill="black"/>
<path d="M292 224L300 216M300 224L292 216" stroke="#8ABC95"/>
<rect x="1206" y="187" width="94" height="114" fill="#8ABC95"/>
<path d="M1253 201.5C1266.12 201.5 1278.08 200.201 1286.83 198.06C1291.18 196.994 1294.89 195.687 1297.56 194.14C1300.05 192.7 1302.5 190.544 1302.5 187.5C1302.5 184.456 1300.05 182.3 1297.56 180.86C1294.89 179.313 1291.18 178.006 1286.83 176.94C1278.08 174.799 1266.12 173.5 1253 173.5C1239.88 173.5 1227.92 174.799 1219.17 176.94C1214.82 178.006 1211.11 179.313 1208.44 180.86C1205.95 182.3 1203.5 184.456 1203.5 187.5C1203.5 190.544 1205.95 192.7 1208.44 194.14C1211.11 195.687 1214.82 196.994 1219.17 198.06C1227.92 200.201 1239.88 201.5 1253 201.5Z" fill="#8ABC95" stroke="white" stroke-width="5"/>
<path d="M1253 236.5C1266.11 236.5 1278.06 235.258 1286.8 233.212C1291.15 232.194 1294.85 230.945 1297.52 229.469C1298.85 228.732 1300.04 227.874 1300.93 226.862C1301.83 225.834 1302.5 224.531 1302.5 223C1302.5 221.469 1301.83 220.166 1300.93 219.138C1300.04 218.126 1298.85 217.268 1297.52 216.531C1294.85 215.055 1291.15 213.806 1286.8 212.788C1278.06 210.742 1266.11 209.5 1253 209.5C1239.89 209.5 1227.94 210.742 1219.2 212.788C1214.85 213.806 1211.15 215.055 1208.48 216.531C1207.15 217.268 1205.96 218.126 1205.07 219.138C1204.17 220.166 1203.5 221.469 1203.5 223C1203.5 224.531 1204.17 225.834 1205.07 226.862C1205.96 227.874 1207.15 228.732 1208.48 229.469C1211.15 230.945 1214.85 232.194 1219.2 233.212C1227.94 235.258 1239.89 236.5 1253 236.5Z" fill="#8ABC95" stroke="white" stroke-width="5"/>
<path d="M1253 278.5C1266.12 278.5 1278.08 277.201 1286.83 275.06C1291.18 273.994 1294.89 272.687 1297.56 271.14C1300.05 269.7 1302.5 267.544 1302.5 264.5C1302.5 261.456 1300.05 259.3 1297.56 257.86C1294.89 256.313 1291.18 255.006 1286.83 253.94C1278.08 251.799 1266.12 250.5 1253 250.5C1239.88 250.5 1227.92 251.799 1219.17 253.94C1214.82 255.006 1211.11 256.313 1208.44 257.86C1205.95 259.3 1203.5 261.456 1203.5 264.5C1203.5 267.544 1205.95 269.7 1208.44 271.14C1211.11 272.687 1214.82 273.994 1219.17 275.06C1227.92 277.201 1239.88 278.5 1253 278.5Z" fill="#8ABC95" stroke="white" stroke-width="5"/>
<ellipse cx="1253" cy="301.5" rx="47" ry="14.5" fill="#8ABC95"/>
<rect x="1206" y="204" width="94" height="19" fill="#8ABC95"/>
<rect x="1206" y="245" width="94" height="19" fill="#8ABC95"/>
<path d="M300.5 271H549" stroke="#418851" stroke-width="3" stroke-linecap="round" stroke-linejoin="round" stroke-dasharray="3 8"/>
<path d="M658 271H743" stroke="#418851" stroke-width="3" stroke-linecap="round" stroke-linejoin="round" stroke-dasharray="3 8"/>
<path d="M853 271H1099" stroke="#418851" stroke-width="3" stroke-linecap="round" stroke-linejoin="round" stroke-dasharray="3 8"/>
<path d="M822.5 431V294" stroke="#418851" stroke-width="3" stroke-linecap="round" stroke-linejoin="round" stroke-dasharray="3 8"/>
<circle cx="296" cy="271" r="8" fill="#D14C01"/>
<circle cx="296" cy="271" r="8" fill="url(#paint0_radial)"/>
<circle cx="553" cy="271" r="8" fill="#D14C01"/>
<circle cx="553" cy="271" r="8" fill="url(#paint1_radial)"/>
<circle cx="654" cy="271" r="8" fill="#D14C01"/>
<circle cx="654" cy="271" r="8" fill="url(#paint2_radial)"/>
<circle cx="747" cy="271" r="8" fill="#D14C01"/>
<circle cx="747" cy="271" r="8" fill="url(#paint3_radial)"/>
<circle cx="846" cy="271" r="8" fill="#D14C01"/>
<circle cx="846" cy="271" r="8" fill="url(#paint4_radial)"/>
<ellipse cx="1106.5" cy="271" rx="7.5" ry="8" fill="#D14C01"/>
<ellipse cx="1106.5" cy="271" rx="7.5" ry="8" fill="url(#paint5_radial)"/>
<circle cx="823" cy="290" r="8" fill="#D14C01"/>
<circle cx="823" cy="290" r="8" fill="url(#paint6_radial)"/>
<circle cx="823" cy="436" r="8" fill="#D14C01"/>
<circle cx="823" cy="436" r="8" fill="url(#paint7_radial)"/>
<defs>
<radialGradient id="paint0_radial" cx="0" cy="0" r="1" gradientUnits="userSpaceOnUse" gradientTransform="translate(296 271) rotate(90) scale(8)">
<stop stop-color="#D8A88D"/>
<stop offset="1" stop-color="white" stop-opacity="0"/>
</radialGradient>
<radialGradient id="paint1_radial" cx="0" cy="0" r="1" gradientUnits="userSpaceOnUse" gradientTransform="translate(553 271) rotate(90) scale(8)">
<stop stop-color="#D8A88D"/>
<stop offset="1" stop-color="white" stop-opacity="0"/>
</radialGradient>
<radialGradient id="paint2_radial" cx="0" cy="0" r="1" gradientUnits="userSpaceOnUse" gradientTransform="translate(654 271) rotate(90) scale(8)">
<stop stop-color="#D8A88D"/>
<stop offset="1" stop-color="white" stop-opacity="0"/>
</radialGradient>
<radialGradient id="paint3_radial" cx="0" cy="0" r="1" gradientUnits="userSpaceOnUse" gradientTransform="translate(747 271) rotate(90) scale(8)">
<stop stop-color="#D8A88D"/>
<stop offset="1" stop-color="white" stop-opacity="0"/>
</radialGradient>
<radialGradient id="paint4_radial" cx="0" cy="0" r="1" gradientUnits="userSpaceOnUse" gradientTransform="translate(846 271) rotate(90) scale(8)">
<stop stop-color="#D8A88D"/>
<stop offset="1" stop-color="white" stop-opacity="0"/>
</radialGradient>
<radialGradient id="paint5_radial" cx="0" cy="0" r="1" gradientUnits="userSpaceOnUse" gradientTransform="translate(1106.5 271) rotate(90) scale(8 7.5)">
<stop stop-color="#D8A88D"/>
<stop offset="1" stop-color="white" stop-opacity="0"/>
</radialGradient>
<radialGradient id="paint6_radial" cx="0" cy="0" r="1" gradientUnits="userSpaceOnUse" gradientTransform="translate(823 290) rotate(90) scale(8)">
<stop stop-color="#D8A88D"/>
<stop offset="1" stop-color="white" stop-opacity="0"/>
</radialGradient>
<radialGradient id="paint7_radial" cx="0" cy="0" r="1" gradientUnits="userSpaceOnUse" gradientTransform="translate(823 436) rotate(90) scale(8)">
<stop stop-color="#D8A88D"/>
<stop offset="1" stop-color="white" stop-opacity="0"/>
</radialGradient>
</defs>
</svg>
