<svg width="1400" height="961" viewBox="0 0 1400 961" fill="none" xmlns="http://www.w3.org/2000/svg">
<path d="M0 1576.56C0 1576.56 252.5 1357.89 721 1561.89C1189.5 1765.89 1400 1844.39 1400 1844.39V72.8887C1400 72.8887 1056.5 236.889 700 72.8887C343.5 -91.1113 0 72.8887 0 72.8887L0 1576.56Z" fill="#8ABC95"/>
<g clip-path="url(#clip0)">
<path d="M598.268 684.311C645.16 684.311 683.254 722.273 683.254 769.199C683.254 816.038 645.248 854.088 598.268 854.088C551.376 854.088 513.282 816.126 513.282 769.199C513.282 722.273 551.376 684.311 598.268 684.311ZM561.582 732.818L559.206 735.103C553.664 740.64 554.544 742.749 560.086 748.197L564.749 752.854C566.245 754.348 576.098 758.478 579.265 755.051L581.553 752.767C584.808 749.691 581.113 739.673 579.353 737.915L574.69 733.346C569.236 727.897 567.036 727.37 561.582 732.818ZM608.65 725.876C608.65 718.143 607.418 716.21 599.676 716.21H596.421C588.679 716.21 587.711 718.319 587.711 726.14V732.731C587.711 734.84 591.758 744.77 596.421 744.506H599.676C604.163 744.594 608.65 734.928 608.65 732.467V725.876ZM652.902 772.89V769.551C652.902 761.554 650.703 760.675 642.785 760.675H636.011C633.899 760.675 623.694 764.806 623.87 769.551V772.89C623.782 777.46 633.723 782.117 636.275 782.117H642.961C650.967 782.117 652.902 780.887 652.902 772.89ZM617.711 806.283L622.462 811.029C628.093 816.653 630.38 817.18 636.011 811.556L638.386 809.183C644.017 803.559 643.137 801.362 637.506 795.738L632.755 790.993C631.26 789.499 621.054 785.193 617.887 788.708L615.512 791.081C612.169 794.244 615.952 804.438 617.711 806.283ZM614.28 749.691L616.656 752.063C619.823 755.403 630.116 751.624 631.876 749.867L636.626 745.121C642.257 739.497 642.785 737.212 637.154 731.588L634.779 729.216C629.148 723.591 626.949 724.47 621.318 730.094L616.568 734.84C615.072 736.334 610.761 746.527 614.28 749.691ZM586.655 812.083C586.655 820.08 587.887 822.013 595.893 822.013H599.236C607.242 822.013 608.122 819.816 608.122 811.908V805.141C608.122 803.032 603.987 792.838 599.236 793.014H595.893C591.318 792.926 586.655 802.856 586.655 805.405V812.083V812.083ZM559.646 808.129L562.022 810.501C567.652 816.126 569.852 815.247 575.482 809.623L580.233 804.877C581.729 803.383 586.039 793.19 582.52 790.026L580.145 787.654C576.978 784.314 566.684 788.093 564.925 789.85L560.174 794.596C554.544 800.22 554.016 802.505 559.646 808.129ZM547.593 773.154C547.593 780.887 549.705 781.854 557.535 781.854H564.133C566.245 781.854 576.186 777.811 575.922 773.154V769.902C576.01 765.421 566.333 760.939 563.869 760.939H557.359C549.617 760.939 547.681 762.169 547.681 769.902V773.154H547.593Z" fill="white"/>
<path d="M1337.54 684.311C1384.43 684.311 1422.53 722.273 1422.53 769.199C1422.53 816.038 1384.52 854.088 1337.54 854.088C1290.65 854.088 1252.56 816.126 1252.56 769.199C1252.56 722.273 1290.56 684.311 1337.54 684.311ZM1300.77 732.818L1298.39 735.103C1292.85 740.64 1293.73 742.749 1299.27 748.197L1303.93 752.854C1305.43 754.348 1315.28 758.478 1318.45 755.051L1320.74 752.767C1323.99 749.691 1320.3 739.673 1318.54 737.915L1313.96 733.346C1308.51 727.897 1306.31 727.37 1300.77 732.818ZM1347.84 725.876C1347.84 718.143 1346.6 716.21 1338.86 716.21H1335.61C1327.86 716.21 1326.9 718.319 1326.9 726.14V732.731C1326.9 734.84 1330.94 744.77 1335.61 744.506H1338.86C1343.35 744.594 1347.84 734.928 1347.84 732.467V725.876ZM1392.18 772.89V769.551C1392.18 761.554 1389.98 760.675 1382.06 760.675H1375.28C1373.17 760.675 1362.97 764.806 1363.14 769.551V772.89C1363.06 777.46 1373 782.117 1375.55 782.117H1382.23C1390.24 782.117 1392.18 780.887 1392.18 772.89ZM1356.98 806.283L1361.74 811.029C1367.37 816.653 1369.65 817.18 1375.28 811.556L1377.66 809.183C1383.29 803.559 1382.41 801.362 1376.78 795.738L1372.03 790.993C1370.53 789.499 1360.33 785.193 1357.16 788.708L1354.79 791.081C1351.44 794.244 1355.23 804.438 1356.98 806.283ZM1353.55 749.691L1355.93 752.063C1359.1 755.403 1369.39 751.624 1371.15 749.867L1375.9 745.121C1381.53 739.497 1382.06 737.212 1376.43 731.588L1374.05 729.216C1368.42 723.591 1366.22 724.47 1360.59 730.094L1355.84 734.84C1354.26 736.334 1350.03 746.527 1353.55 749.691ZM1325.93 812.083C1325.93 820.08 1327.16 822.013 1335.17 822.013H1338.51C1346.52 822.013 1347.4 819.816 1347.4 811.908V805.141C1347.4 803.032 1343.26 792.838 1338.51 793.014H1335.17C1330.59 792.926 1325.93 802.856 1325.93 805.405V812.083ZM1298.83 808.129L1301.21 810.501C1306.84 816.126 1309.04 815.247 1314.67 809.623L1319.42 804.877C1320.91 803.383 1325.22 793.19 1321.71 790.026L1319.33 787.654C1316.16 784.314 1305.87 788.093 1304.11 789.85L1299.36 794.596C1293.73 800.22 1293.2 802.505 1298.83 808.129ZM1286.87 773.154C1286.87 780.887 1288.98 781.854 1296.81 781.854H1303.41C1305.52 781.854 1315.46 777.811 1315.2 773.154V769.902C1315.28 765.421 1305.61 760.939 1303.14 760.939H1296.54C1288.8 760.939 1286.87 762.169 1286.87 769.902V773.154V773.154Z" fill="white"/>
<path d="M459.088 748.991C460.232 735.897 462.695 710.94 462.695 710.94C462.695 710.94 461.463 693.101 478.179 672.89L485.305 618.23C485.305 618.23 487.065 606.455 501.933 594.503C516.801 582.552 579.441 552.147 657.301 544.941C657.301 544.941 770.704 442.565 848.916 418.662C927.128 394.76 1158.24 407.765 1158.24 407.765C1158.24 407.765 1289.42 418.574 1354.61 432.898C1354.61 432.898 1398.6 513.657 1409.33 522.005C1420.06 530.353 1440.21 565.944 1440.21 628.951C1440.21 628.951 1463.97 670.517 1468.72 698.989C1473.47 727.461 1480.59 761.909 1463.97 776.233C1447.34 790.469 1436.6 782.208 1436.6 782.208C1436.6 782.208 1453.23 693.101 1364.02 671.747C1274.81 650.393 1242.7 744.245 1242.7 744.245L1235.58 772.717C1235.58 772.717 1227.22 800.047 1193.96 801.19C1160.71 802.42 731.378 807.165 731.378 807.165C731.378 807.165 705.249 810.768 701.642 794.072C698.035 777.463 698.035 699.077 623.166 675.262C548.209 651.535 511.347 708.48 511.347 708.48C511.347 708.48 492.343 729.834 494.719 793.984C494.719 793.984 480.467 792.753 466.214 782.12C466.214 782.208 457.944 761.997 459.088 748.991ZM1072.73 533.253C1085.66 533.693 1231.79 530.353 1231.79 530.353C1231.79 530.353 1250.97 527.893 1248.07 512.075C1245.17 496.257 1236.81 476.749 1236.81 476.749C1236.81 476.749 1223.52 452.583 1194.4 449.243C1165.28 445.904 1091.56 437.556 1091.56 437.556C1091.56 437.556 1062.44 431.316 1062.44 462.513V521.566C1062.35 521.654 1059.89 532.814 1072.73 533.253ZM756.1 536.768C756.188 543.799 763.49 545.468 763.49 545.468C763.49 545.468 932.318 539.493 959.855 539.493C987.304 539.493 992.319 532.814 994.87 524.905C997.334 516.996 1009.83 426.747 1009.83 426.747C1009.83 426.747 950.53 424.989 934.694 426.22C918.858 427.45 875.925 429.471 839.326 447.749C802.64 466.028 760.586 500.036 760.586 500.036C760.586 500.036 756.276 503.024 756.364 509.351C756.539 517.26 756.1 531.759 756.1 536.768Z" fill="white"/>
<path d="M1256.43 401.963L1290.83 338.692C1290.83 338.692 1293.11 333.683 1296.54 335.265C1299.98 336.847 1296.81 341.416 1296.81 341.416L1263.55 406.709C1263.55 406.709 1261.27 414.442 1266.28 416.024L1240.94 413.036C1240.94 413.124 1251.68 409.96 1256.43 401.963Z" fill="white"/>
</g>
<path d="M537.014 927.054C332.493 956.828 28.7248 927.054 -17 708" stroke="white" stroke-width="10.6337"/>
<path d="M588.678 906.606L569.44 909.231L570.505 917.038L579.052 915.872C580.767 915.637 582.351 916.839 582.585 918.553L582.968 921.358C583.202 923.072 581.998 924.654 580.282 924.888L571.736 926.054L572.718 933.251L591.161 930.734C592.877 930.5 594.461 931.702 594.695 933.415L595.12 936.532C595.354 938.245 594.15 939.827 592.434 940.061L567.621 943.447L568.708 951.414C568.817 952.218 568.252 952.96 567.448 953.07L543.774 956.322C532.699 957.844 522.501 950.105 520.981 939.045L520.171 933.112L509.598 934.555C507.872 934.79 506.286 933.578 506.052 931.864L505.7 929.283C505.465 927.559 506.669 925.977 508.395 925.741L518.958 924.3L518.077 917.843C516.557 906.782 524.307 896.583 535.384 895.072L559.06 891.831C559.864 891.721 560.607 892.285 560.717 893.088L561.766 900.777L587.405 897.279C589.121 897.045 590.705 898.247 590.938 899.96L591.364 903.076C591.599 904.8 590.393 906.372 588.678 906.606Z" fill="white"/>
<path d="M610.741 241.578H599.773V272H595.296V241.578H584.351V237.875H610.741V241.578ZM619.693 249.711C621.615 247.352 624.115 246.172 627.193 246.172C632.552 246.172 635.255 249.195 635.302 255.242V272H630.966V255.219C630.951 253.391 630.529 252.039 629.701 251.164C628.888 250.289 627.615 249.852 625.88 249.852C624.474 249.852 623.24 250.227 622.177 250.977C621.115 251.727 620.287 252.711 619.693 253.93V272H615.357V236H619.693V249.711ZM657.684 272C657.434 271.5 657.23 270.609 657.074 269.328C655.059 271.422 652.652 272.469 649.855 272.469C647.355 272.469 645.301 271.766 643.691 270.359C642.098 268.938 641.301 267.141 641.301 264.969C641.301 262.328 642.301 260.281 644.301 258.828C646.316 257.359 649.144 256.625 652.785 256.625H657.004V254.633C657.004 253.117 656.551 251.914 655.644 251.023C654.738 250.117 653.402 249.664 651.637 249.664C650.09 249.664 648.793 250.055 647.746 250.836C646.699 251.617 646.176 252.562 646.176 253.672H641.816C641.816 252.406 642.262 251.188 643.152 250.016C644.059 248.828 645.277 247.891 646.809 247.203C648.355 246.516 650.051 246.172 651.894 246.172C654.816 246.172 657.105 246.906 658.762 248.375C660.418 249.828 661.277 251.836 661.34 254.398V266.07C661.34 268.398 661.637 270.25 662.23 271.625V272H657.684ZM650.488 268.695C651.848 268.695 653.137 268.344 654.355 267.641C655.574 266.938 656.457 266.023 657.004 264.898V259.695H653.605C648.293 259.695 645.637 261.25 645.637 264.359C645.637 265.719 646.09 266.781 646.996 267.547C647.902 268.312 649.066 268.695 650.488 268.695ZM672.471 246.641L672.612 249.828C674.549 247.391 677.08 246.172 680.205 246.172C685.565 246.172 688.268 249.195 688.315 255.242V272H683.979V255.219C683.963 253.391 683.541 252.039 682.713 251.164C681.901 250.289 680.627 249.852 678.893 249.852C677.487 249.852 676.252 250.227 675.19 250.977C674.127 251.727 673.299 252.711 672.705 253.93V272H668.369V246.641H672.471ZM702.165 260.258L699.446 263.094V272H695.11V236H699.446V257.773L701.766 254.984L709.665 246.641H714.938L705.071 257.234L716.087 272H711.001L702.165 260.258ZM740.084 265.648L745.99 246.641H750.631L740.435 275.914C738.857 280.133 736.349 282.242 732.912 282.242L732.091 282.172L730.474 281.867V278.352L731.646 278.445C733.115 278.445 734.256 278.148 735.068 277.555C735.896 276.961 736.576 275.875 737.107 274.297L738.068 271.719L729.021 246.641H733.756L740.084 265.648ZM753.231 259.086C753.231 256.602 753.715 254.367 754.684 252.383C755.668 250.398 757.027 248.867 758.762 247.789C760.512 246.711 762.504 246.172 764.738 246.172C768.191 246.172 770.981 247.367 773.106 249.758C775.246 252.148 776.316 255.328 776.316 259.297V259.602C776.316 262.07 775.84 264.289 774.887 266.258C773.949 268.211 772.598 269.734 770.832 270.828C769.082 271.922 767.066 272.469 764.785 272.469C761.348 272.469 758.559 271.273 756.418 268.883C754.293 266.492 753.231 263.328 753.231 259.391V259.086ZM757.59 259.602C757.59 262.414 758.238 264.672 759.535 266.375C760.848 268.078 762.598 268.93 764.785 268.93C766.988 268.93 768.738 268.07 770.035 266.352C771.332 264.617 771.981 262.195 771.981 259.086C771.981 256.305 771.316 254.055 769.988 252.336C768.676 250.602 766.926 249.734 764.738 249.734C762.598 249.734 760.871 250.586 759.559 252.289C758.246 253.992 757.59 256.43 757.59 259.602ZM797.643 269.492C795.956 271.477 793.479 272.469 790.213 272.469C787.51 272.469 785.448 271.688 784.026 270.125C782.62 268.547 781.909 266.219 781.893 263.141V246.641H786.229V263.023C786.229 266.867 787.791 268.789 790.916 268.789C794.229 268.789 796.432 267.555 797.526 265.086V246.641H801.862V272H797.737L797.643 269.492ZM813.556 262.367H809.642L809.337 237.875H813.884L813.556 262.367ZM809.173 269.82C809.173 269.117 809.384 268.531 809.806 268.062C810.243 267.578 810.884 267.336 811.727 267.336C812.571 267.336 813.212 267.578 813.649 268.062C814.087 268.531 814.306 269.117 814.306 269.82C814.306 270.523 814.087 271.109 813.649 271.578C813.212 272.031 812.571 272.258 811.727 272.258C810.884 272.258 810.243 272.031 809.806 271.578C809.384 271.109 809.173 270.523 809.173 269.82Z" fill="white"/>
<path d="M1082.65 893.402H1078.48L1077.54 896H1076.19L1079.99 886.047H1081.14L1084.95 896H1083.6L1082.65 893.402ZM1078.88 892.322H1082.26L1080.57 887.667L1078.88 892.322ZM1091.54 892.104V896H1090.23V886.047H1093.9C1094.99 886.047 1095.84 886.325 1096.45 886.881C1097.07 887.437 1097.38 888.173 1097.38 889.089C1097.38 890.055 1097.08 890.8 1096.47 891.324C1095.87 891.844 1095.01 892.104 1093.88 892.104H1091.54ZM1091.54 891.03H1093.9C1094.6 891.03 1095.14 890.866 1095.51 890.538C1095.88 890.205 1096.07 889.727 1096.07 889.103C1096.07 888.51 1095.88 888.036 1095.51 887.681C1095.14 887.325 1094.62 887.141 1093.97 887.127H1091.54V891.03ZM1102.67 889.738C1102.48 889.706 1102.27 889.69 1102.05 889.69C1101.22 889.69 1100.65 890.044 1100.36 890.75V896H1099.09V888.604H1100.32L1100.34 889.458C1100.76 888.797 1101.35 888.467 1102.11 888.467C1102.35 888.467 1102.54 888.499 1102.67 888.562V889.738ZM1103.6 892.233C1103.6 891.509 1103.74 890.857 1104.02 890.278C1104.31 889.7 1104.71 889.253 1105.21 888.938C1105.72 888.624 1106.3 888.467 1106.95 888.467C1107.96 888.467 1108.78 888.815 1109.4 889.513C1110.02 890.21 1110.33 891.137 1110.33 892.295V892.384C1110.33 893.104 1110.19 893.751 1109.91 894.325C1109.64 894.895 1109.25 895.339 1108.73 895.658C1108.22 895.977 1107.63 896.137 1106.97 896.137C1105.97 896.137 1105.15 895.788 1104.53 895.091C1103.91 894.394 1103.6 893.471 1103.6 892.322V892.233ZM1104.87 892.384C1104.87 893.204 1105.06 893.863 1105.44 894.359C1105.82 894.856 1106.33 895.104 1106.97 895.104C1107.61 895.104 1108.12 894.854 1108.5 894.353C1108.88 893.847 1109.07 893.14 1109.07 892.233C1109.07 891.422 1108.87 890.766 1108.49 890.265C1108.1 889.759 1107.59 889.506 1106.95 889.506C1106.33 889.506 1105.83 889.754 1105.44 890.251C1105.06 890.748 1104.87 891.459 1104.87 892.384ZM1111.84 892.24C1111.84 891.105 1112.11 890.194 1112.65 889.506C1113.19 888.813 1113.89 888.467 1114.76 888.467C1115.63 888.467 1116.31 888.763 1116.82 889.355V885.5H1118.08V896H1116.92L1116.86 895.207C1116.35 895.827 1115.65 896.137 1114.75 896.137C1113.89 896.137 1113.19 895.786 1112.65 895.084C1112.11 894.382 1111.84 893.466 1111.84 892.336V892.24ZM1113.11 892.384C1113.11 893.222 1113.28 893.879 1113.63 894.353C1113.97 894.826 1114.45 895.063 1115.06 895.063C1115.86 895.063 1116.45 894.703 1116.82 893.983V890.586C1116.44 889.889 1115.86 889.54 1115.08 889.54C1114.46 889.54 1113.97 889.779 1113.63 890.258C1113.28 890.736 1113.11 891.445 1113.11 892.384ZM1124.85 895.269C1124.36 895.847 1123.64 896.137 1122.69 896.137C1121.9 896.137 1121.3 895.909 1120.88 895.453C1120.47 894.993 1120.26 894.314 1120.26 893.416V888.604H1121.52V893.382C1121.52 894.503 1121.98 895.063 1122.89 895.063C1123.86 895.063 1124.5 894.703 1124.82 893.983V888.604H1126.08V896H1124.88L1124.85 895.269ZM1131.21 895.104C1131.66 895.104 1132.06 894.968 1132.39 894.694C1132.73 894.421 1132.92 894.079 1132.95 893.669H1134.15C1134.13 894.093 1133.98 894.496 1133.71 894.879C1133.44 895.262 1133.08 895.567 1132.63 895.795C1132.19 896.023 1131.71 896.137 1131.21 896.137C1130.2 896.137 1129.4 895.802 1128.8 895.132C1128.21 894.457 1127.92 893.537 1127.92 892.37V892.158C1127.92 891.438 1128.05 890.798 1128.31 890.237C1128.58 889.677 1128.95 889.242 1129.45 888.932C1129.94 888.622 1130.53 888.467 1131.2 888.467C1132.03 888.467 1132.72 888.715 1133.27 889.212C1133.82 889.709 1134.11 890.354 1134.15 891.146H1132.95C1132.92 890.668 1132.73 890.276 1132.41 889.971C1132.08 889.661 1131.68 889.506 1131.2 889.506C1130.56 889.506 1130.06 889.738 1129.71 890.203C1129.36 890.663 1129.18 891.331 1129.18 892.206V892.445C1129.18 893.298 1129.36 893.954 1129.71 894.414C1130.06 894.874 1130.56 895.104 1131.21 895.104ZM1137.52 886.812V888.604H1138.9V889.581H1137.52V894.168C1137.52 894.464 1137.58 894.688 1137.7 894.838C1137.83 894.984 1138.04 895.057 1138.33 895.057C1138.48 895.057 1138.68 895.029 1138.93 894.975V896C1138.6 896.091 1138.28 896.137 1137.96 896.137C1137.4 896.137 1136.97 895.966 1136.69 895.624C1136.4 895.282 1136.26 894.797 1136.26 894.168V889.581H1134.91V888.604H1136.26V886.812H1137.52ZM1150.58 892.384C1150.58 893.514 1150.32 894.423 1149.8 895.111C1149.29 895.795 1148.59 896.137 1147.71 896.137C1146.78 896.137 1146.06 895.806 1145.55 895.146L1145.48 896H1144.32V885.5H1145.59V889.417C1146.1 888.784 1146.8 888.467 1147.7 888.467C1148.6 888.467 1149.3 888.806 1149.81 889.485C1150.33 890.164 1150.58 891.094 1150.58 892.274V892.384ZM1149.32 892.24C1149.32 891.379 1149.15 890.714 1148.82 890.244C1148.49 889.775 1148.01 889.54 1147.39 889.54C1146.55 889.54 1145.95 889.927 1145.59 890.702V893.901C1145.97 894.676 1146.58 895.063 1147.4 895.063C1148 895.063 1148.48 894.829 1148.81 894.359C1149.15 893.89 1149.32 893.184 1149.32 892.24ZM1154.75 894.147L1156.48 888.604H1157.83L1154.86 897.142C1154.4 898.372 1153.67 898.987 1152.66 898.987L1152.42 898.967L1151.95 898.878V897.853L1152.29 897.88C1152.72 897.88 1153.05 897.793 1153.29 897.62C1153.53 897.447 1153.73 897.13 1153.89 896.67L1154.17 895.918L1151.53 888.604H1152.91L1154.75 894.147ZM1169.71 887.127H1166.51V896H1165.2V887.127H1162.01V886.047H1169.71V887.127ZM1173.6 896.137C1172.6 896.137 1171.78 895.809 1171.16 895.152C1170.53 894.492 1170.21 893.61 1170.21 892.507V892.274C1170.21 891.541 1170.35 890.887 1170.63 890.312C1170.91 889.734 1171.3 889.283 1171.8 888.959C1172.31 888.631 1172.86 888.467 1173.45 888.467C1174.41 888.467 1175.15 888.784 1175.69 889.417C1176.22 890.05 1176.49 890.957 1176.49 892.138V892.664H1171.48C1171.49 893.393 1171.71 893.983 1172.11 894.435C1172.52 894.881 1173.04 895.104 1173.67 895.104C1174.12 895.104 1174.5 895.013 1174.81 894.831C1175.12 894.649 1175.39 894.407 1175.62 894.106L1176.39 894.708C1175.77 895.66 1174.84 896.137 1173.6 896.137ZM1173.45 889.506C1172.93 889.506 1172.51 889.693 1172.16 890.066C1171.81 890.436 1171.6 890.955 1171.52 891.625H1175.22V891.529C1175.19 890.887 1175.01 890.39 1174.7 890.039C1174.39 889.684 1173.97 889.506 1173.45 889.506ZM1182.76 896C1182.68 895.854 1182.62 895.594 1182.58 895.221C1181.99 895.831 1181.29 896.137 1180.47 896.137C1179.74 896.137 1179.14 895.932 1178.68 895.521C1178.21 895.107 1177.98 894.583 1177.98 893.949C1177.98 893.179 1178.27 892.582 1178.85 892.158C1179.44 891.73 1180.27 891.516 1181.33 891.516H1182.56V890.935C1182.56 890.493 1182.43 890.142 1182.16 889.882C1181.9 889.618 1181.51 889.485 1180.99 889.485C1180.54 889.485 1180.16 889.599 1179.86 889.827C1179.55 890.055 1179.4 890.331 1179.4 890.654H1178.13C1178.13 890.285 1178.26 889.93 1178.52 889.588C1178.78 889.242 1179.14 888.968 1179.58 888.768C1180.04 888.567 1180.53 888.467 1181.07 888.467C1181.92 888.467 1182.59 888.681 1183.07 889.109C1183.55 889.533 1183.8 890.119 1183.82 890.866V894.271C1183.82 894.95 1183.91 895.49 1184.08 895.891V896H1182.76ZM1180.66 895.036C1181.05 895.036 1181.43 894.934 1181.79 894.729C1182.14 894.523 1182.4 894.257 1182.56 893.929V892.411H1181.57C1180.02 892.411 1179.24 892.865 1179.24 893.771C1179.24 894.168 1179.37 894.478 1179.64 894.701C1179.9 894.924 1180.24 895.036 1180.66 895.036ZM1187.23 888.604L1187.26 889.424C1187.8 888.786 1188.54 888.467 1189.46 888.467C1190.49 888.467 1191.19 888.863 1191.57 889.656C1191.81 889.301 1192.13 889.014 1192.53 888.795C1192.92 888.576 1193.39 888.467 1193.93 888.467C1195.55 888.467 1196.37 889.326 1196.4 891.044V896H1195.14V891.119C1195.14 890.59 1195.02 890.196 1194.77 889.937C1194.53 889.672 1194.13 889.54 1193.56 889.54C1193.09 889.54 1192.7 889.681 1192.39 889.964C1192.08 890.242 1191.9 890.618 1191.85 891.092V896H1190.58V891.153C1190.58 890.078 1190.05 889.54 1189 889.54C1188.17 889.54 1187.6 889.893 1187.3 890.6V896H1186.03V888.604H1187.23ZM1203.86 896H1202.55V886.047H1203.86V896ZM1207.5 888.604L1207.54 889.533C1208.1 888.822 1208.84 888.467 1209.75 888.467C1211.32 888.467 1212.1 889.349 1212.12 891.112V896H1210.85V891.105C1210.85 890.572 1210.73 890.178 1210.48 889.923C1210.25 889.668 1209.88 889.54 1209.37 889.54C1208.96 889.54 1208.6 889.649 1208.29 889.868C1207.98 890.087 1207.74 890.374 1207.57 890.729V896H1206.3V888.604H1207.5ZM1215.45 888.604L1215.5 889.533C1216.06 888.822 1216.8 888.467 1217.71 888.467C1219.27 888.467 1220.06 889.349 1220.08 891.112V896H1218.81V891.105C1218.81 890.572 1218.68 890.178 1218.44 889.923C1218.2 889.668 1217.83 889.54 1217.33 889.54C1216.92 889.54 1216.56 889.649 1216.25 889.868C1215.94 890.087 1215.7 890.374 1215.52 890.729V896H1214.26V888.604H1215.45ZM1221.88 892.233C1221.88 891.509 1222.02 890.857 1222.3 890.278C1222.59 889.7 1222.99 889.253 1223.49 888.938C1224 888.624 1224.59 888.467 1225.24 888.467C1226.24 888.467 1227.06 888.815 1227.68 889.513C1228.3 890.21 1228.61 891.137 1228.61 892.295V892.384C1228.61 893.104 1228.48 893.751 1228.2 894.325C1227.92 894.895 1227.53 895.339 1227.01 895.658C1226.5 895.977 1225.92 896.137 1225.25 896.137C1224.25 896.137 1223.43 895.788 1222.81 895.091C1222.19 894.394 1221.88 893.471 1221.88 892.322V892.233ZM1223.15 892.384C1223.15 893.204 1223.34 893.863 1223.72 894.359C1224.1 894.856 1224.61 895.104 1225.25 895.104C1225.89 895.104 1226.4 894.854 1226.78 894.353C1227.16 893.847 1227.35 893.14 1227.35 892.233C1227.35 891.422 1227.16 890.766 1226.77 890.265C1226.39 889.759 1225.88 889.506 1225.24 889.506C1224.61 889.506 1224.11 889.754 1223.73 890.251C1223.34 890.748 1223.15 891.459 1223.15 892.384ZM1232.76 894.284L1234.6 888.604H1235.89L1233.24 896H1232.27L1229.59 888.604H1230.88L1232.76 894.284ZM1241.79 896C1241.72 895.854 1241.66 895.594 1241.62 895.221C1241.03 895.831 1240.33 896.137 1239.51 896.137C1238.78 896.137 1238.18 895.932 1237.71 895.521C1237.25 895.107 1237.02 894.583 1237.02 893.949C1237.02 893.179 1237.31 892.582 1237.89 892.158C1238.48 891.73 1239.3 891.516 1240.37 891.516H1241.6V890.935C1241.6 890.493 1241.46 890.142 1241.2 889.882C1240.94 889.618 1240.55 889.485 1240.03 889.485C1239.58 889.485 1239.2 889.599 1238.9 889.827C1238.59 890.055 1238.44 890.331 1238.44 890.654H1237.17C1237.17 890.285 1237.3 889.93 1237.56 889.588C1237.82 889.242 1238.18 888.968 1238.62 888.768C1239.07 888.567 1239.57 888.467 1240.11 888.467C1240.96 888.467 1241.63 888.681 1242.11 889.109C1242.59 889.533 1242.84 890.119 1242.86 890.866V894.271C1242.86 894.95 1242.95 895.49 1243.12 895.891V896H1241.79ZM1239.7 895.036C1240.09 895.036 1240.47 894.934 1240.82 894.729C1241.18 894.523 1241.44 894.257 1241.6 893.929V892.411H1240.61C1239.06 892.411 1238.28 892.865 1238.28 893.771C1238.28 894.168 1238.41 894.478 1238.68 894.701C1238.94 894.924 1239.28 895.036 1239.7 895.036ZM1246.79 886.812V888.604H1248.17V889.581H1246.79V894.168C1246.79 894.464 1246.85 894.688 1246.98 894.838C1247.1 894.984 1247.31 895.057 1247.61 895.057C1247.75 895.057 1247.95 895.029 1248.21 894.975V896C1247.87 896.091 1247.55 896.137 1247.24 896.137C1246.67 896.137 1246.25 895.966 1245.96 895.624C1245.67 895.282 1245.53 894.797 1245.53 894.168V889.581H1244.18V888.604H1245.53V886.812H1246.79ZM1251.26 896H1250V888.604H1251.26V896ZM1249.9 886.642C1249.9 886.437 1249.96 886.263 1250.08 886.122C1250.21 885.981 1250.4 885.91 1250.64 885.91C1250.89 885.91 1251.07 885.981 1251.2 886.122C1251.33 886.263 1251.39 886.437 1251.39 886.642C1251.39 886.847 1251.33 887.018 1251.2 887.154C1251.07 887.291 1250.89 887.359 1250.64 887.359C1250.4 887.359 1250.21 887.291 1250.08 887.154C1249.96 887.018 1249.9 886.847 1249.9 886.642ZM1253.19 892.233C1253.19 891.509 1253.33 890.857 1253.62 890.278C1253.9 889.7 1254.3 889.253 1254.8 888.938C1255.32 888.624 1255.9 888.467 1256.55 888.467C1257.56 888.467 1258.37 888.815 1258.99 889.513C1259.61 890.21 1259.92 891.137 1259.92 892.295V892.384C1259.92 893.104 1259.79 893.751 1259.51 894.325C1259.23 894.895 1258.84 895.339 1258.33 895.658C1257.81 895.977 1257.23 896.137 1256.56 896.137C1255.56 896.137 1254.75 895.788 1254.12 895.091C1253.5 894.394 1253.19 893.471 1253.19 892.322V892.233ZM1254.46 892.384C1254.46 893.204 1254.65 893.863 1255.03 894.359C1255.41 894.856 1255.92 895.104 1256.56 895.104C1257.2 895.104 1257.71 894.854 1258.09 894.353C1258.47 893.847 1258.66 893.14 1258.66 892.233C1258.66 891.422 1258.47 890.766 1258.08 890.265C1257.7 889.759 1257.19 889.506 1256.55 889.506C1255.92 889.506 1255.42 889.754 1255.04 890.251C1254.65 890.748 1254.46 891.459 1254.46 892.384ZM1262.94 888.604L1262.98 889.533C1263.55 888.822 1264.28 888.467 1265.2 888.467C1266.76 888.467 1267.55 889.349 1267.56 891.112V896H1266.3V891.105C1266.29 890.572 1266.17 890.178 1265.93 889.923C1265.69 889.668 1265.32 889.54 1264.81 889.54C1264.4 889.54 1264.04 889.649 1263.73 889.868C1263.42 890.087 1263.18 890.374 1263.01 890.729V896H1261.74V888.604H1262.94ZM1272.14 894.284L1273.97 888.604H1275.27L1272.61 896H1271.65L1268.97 888.604H1270.26L1272.14 894.284ZM1278.09 896H1276.82V888.604H1278.09V896ZM1276.72 886.642C1276.72 886.437 1276.78 886.263 1276.91 886.122C1277.03 885.981 1277.22 885.91 1277.47 885.91C1277.71 885.91 1277.9 885.981 1278.03 886.122C1278.16 886.263 1278.22 886.437 1278.22 886.642C1278.22 886.847 1278.16 887.018 1278.03 887.154C1277.9 887.291 1277.71 887.359 1277.47 887.359C1277.22 887.359 1277.03 887.291 1276.91 887.154C1276.78 887.018 1276.72 886.847 1276.72 886.642ZM1281.73 896H1280.46V885.5H1281.73V896ZM1285.36 896H1284.1V885.5H1285.36V896ZM1290.7 896.137C1289.69 896.137 1288.88 895.809 1288.25 895.152C1287.62 894.492 1287.31 893.61 1287.31 892.507V892.274C1287.31 891.541 1287.44 890.887 1287.72 890.312C1288 889.734 1288.4 889.283 1288.9 888.959C1289.4 888.631 1289.95 888.467 1290.54 888.467C1291.5 888.467 1292.25 888.784 1292.78 889.417C1293.31 890.05 1293.58 890.957 1293.58 892.138V892.664H1288.57C1288.59 893.393 1288.8 893.983 1289.21 894.435C1289.62 894.881 1290.14 895.104 1290.76 895.104C1291.21 895.104 1291.59 895.013 1291.9 894.831C1292.21 894.649 1292.48 894.407 1292.71 894.106L1293.48 894.708C1292.87 895.66 1291.94 896.137 1290.7 896.137ZM1290.54 889.506C1290.03 889.506 1289.6 889.693 1289.25 890.066C1288.91 890.436 1288.69 890.955 1288.61 891.625H1292.32V891.529C1292.28 890.887 1292.11 890.39 1291.8 890.039C1291.49 889.684 1291.07 889.506 1290.54 889.506ZM1295.24 897.982L1294.52 897.49C1294.95 896.893 1295.18 896.278 1295.19 895.645V894.503H1296.43V895.494C1296.43 895.954 1296.32 896.415 1296.09 896.875C1295.87 897.335 1295.58 897.704 1295.24 897.982ZM1308.36 896H1301.84V895.091L1305.29 891.263C1305.8 890.684 1306.15 890.215 1306.34 889.854C1306.53 889.49 1306.63 889.114 1306.63 888.727C1306.63 888.207 1306.47 887.781 1306.16 887.448C1305.85 887.116 1305.43 886.949 1304.9 886.949C1304.27 886.949 1303.78 887.129 1303.43 887.489C1303.09 887.845 1302.91 888.341 1302.91 888.979H1301.65C1301.65 888.063 1301.94 887.323 1302.53 886.758C1303.12 886.193 1303.91 885.91 1304.9 885.91C1305.83 885.91 1306.56 886.154 1307.1 886.642C1307.63 887.125 1307.9 887.77 1307.9 888.576C1307.9 889.556 1307.28 890.723 1306.03 892.076L1303.36 894.968H1308.36V896ZM1316.18 891.755C1316.18 893.236 1315.92 894.337 1315.42 895.057C1314.91 895.777 1314.12 896.137 1313.04 896.137C1311.98 896.137 1311.2 895.786 1310.69 895.084C1310.18 894.378 1309.91 893.325 1309.89 891.926V890.237C1309.89 888.774 1310.15 887.688 1310.65 886.977C1311.16 886.266 1311.95 885.91 1313.03 885.91C1314.1 885.91 1314.89 886.254 1315.4 886.942C1315.9 887.626 1316.16 888.683 1316.18 890.114V891.755ZM1314.91 890.025C1314.91 888.954 1314.76 888.175 1314.46 887.688C1314.16 887.195 1313.68 886.949 1313.03 886.949C1312.38 886.949 1311.91 887.193 1311.62 887.681C1311.32 888.168 1311.17 888.918 1311.16 889.93V891.953C1311.16 893.029 1311.31 893.824 1311.62 894.339C1311.94 894.849 1312.41 895.104 1313.04 895.104C1313.67 895.104 1314.13 894.863 1314.43 894.38C1314.74 893.897 1314.9 893.136 1314.91 892.097V890.025ZM1324.55 896H1318.03V895.091L1321.47 891.263C1321.98 890.684 1322.33 890.215 1322.53 889.854C1322.72 889.49 1322.82 889.114 1322.82 888.727C1322.82 888.207 1322.66 887.781 1322.35 887.448C1322.03 887.116 1321.61 886.949 1321.09 886.949C1320.46 886.949 1319.97 887.129 1319.62 887.489C1319.27 887.845 1319.1 888.341 1319.1 888.979H1317.84C1317.84 888.063 1318.13 887.323 1318.72 886.758C1319.31 886.193 1320.1 885.91 1321.09 885.91C1322.02 885.91 1322.75 886.154 1323.28 886.642C1323.82 887.125 1324.09 887.77 1324.09 888.576C1324.09 889.556 1323.47 890.723 1322.22 892.076L1319.55 894.968H1324.55V896ZM1332.36 891.755C1332.36 893.236 1332.11 894.337 1331.6 895.057C1331.1 895.777 1330.31 896.137 1329.23 896.137C1328.17 896.137 1327.38 895.786 1326.87 895.084C1326.36 894.378 1326.1 893.325 1326.08 891.926V890.237C1326.08 888.774 1326.33 887.688 1326.84 886.977C1327.35 886.266 1328.14 885.91 1329.22 885.91C1330.29 885.91 1331.08 886.254 1331.58 886.942C1332.09 887.626 1332.35 888.683 1332.36 890.114V891.755ZM1331.1 890.025C1331.1 888.954 1330.95 888.175 1330.65 887.688C1330.35 887.195 1329.87 886.949 1329.22 886.949C1328.57 886.949 1328.1 887.193 1327.8 887.681C1327.51 888.168 1327.35 888.918 1327.35 889.93V891.953C1327.35 893.029 1327.5 893.824 1327.81 894.339C1328.13 894.849 1328.6 895.104 1329.23 895.104C1329.86 895.104 1330.32 894.863 1330.62 894.38C1330.93 893.897 1331.09 893.136 1331.1 892.097V890.025Z" fill="white"/>
<defs>
<clipPath id="clip0">
<rect width="1015.43" height="519" fill="white" transform="translate(459 335)"/>
</clipPath>
</defs>
</svg>
