<svg width="598" height="251" viewBox="0 0 598 251" fill="none" xmlns="http://www.w3.org/2000/svg">
<path d="M537.014 221.054C332.493 250.828 28.7248 221.054 -17 2" stroke="white" stroke-width="10.6337"/>
<path d="M588.678 200.606L569.44 203.231L570.505 211.038L579.052 209.872C580.767 209.637 582.351 210.839 582.585 212.553L582.968 215.358C583.202 217.072 581.998 218.654 580.282 218.888L571.736 220.054L572.718 227.251L591.161 224.734C592.877 224.5 594.461 225.702 594.695 227.415L595.12 230.532C595.354 232.245 594.15 233.827 592.434 234.061L567.621 237.447L568.708 245.414C568.817 246.218 568.252 246.96 567.448 247.07L543.774 250.322C532.699 251.844 522.501 244.105 520.981 233.045L520.171 227.112L509.598 228.555C507.872 228.79 506.286 227.578 506.052 225.864L505.7 223.283C505.465 221.559 506.669 219.977 508.395 219.741L518.958 218.3L518.077 211.843C516.557 200.782 524.307 190.583 535.384 189.072L559.06 185.831C559.864 185.721 560.607 186.285 560.717 187.088L561.766 194.777L587.405 191.279C589.121 191.045 590.705 192.247 590.938 193.96L591.364 197.076C591.599 198.8 590.393 200.372 588.678 200.606Z" fill="white"/>
</svg>
