<svg width="534" height="255" viewBox="0 0 534 255" fill="none" xmlns="http://www.w3.org/2000/svg">
<path d="M60.6116 33.8741C265.133 4.09977 568.901 33.8741 614.626 252.928" stroke="white" stroke-width="10.6337"/>
<path d="M8.94839 54.3216L28.1857 51.6968L27.1205 43.8901L18.5742 45.0562C16.8585 45.2903 15.2745 44.0884 15.0407 42.375L14.6579 39.5693C14.4241 37.8559 15.6282 36.2735 17.3439 36.0394L25.8902 34.8733L24.9084 27.677L6.46453 30.1936C4.74883 30.4277 3.16487 29.2257 2.93108 27.5123L2.50588 24.3961C2.2721 22.6827 3.47616 21.1003 5.19186 20.8662L30.0052 17.4806L28.9181 9.51326C28.8085 8.7101 29.3735 7.96762 30.1778 7.85788L53.8516 4.6059C64.9271 3.08379 75.1254 10.8224 76.6455 21.8831L77.455 27.8158L88.028 26.3731C89.7544 26.1376 91.3398 27.3502 91.5736 29.0636L91.9257 31.6444C92.161 33.3685 90.9569 34.9509 89.2305 35.1864L78.6682 36.6276L79.5493 43.085C81.0694 54.1457 73.3185 64.3443 62.2415 65.8557L38.5663 69.097C37.762 69.2067 37.0188 68.6427 36.9092 67.8396L35.8601 60.1507L10.2211 63.649C8.50535 63.8831 6.92139 62.6811 6.68761 60.9677L6.26241 57.8515C6.02716 56.1274 7.23268 54.5557 8.94839 54.3216Z" fill="white"/>
</svg>
