<svg width="516" height="432" viewBox="0 0 516 432" fill="none" xmlns="http://www.w3.org/2000/svg">
<path d="M56.1757 123.242C56.1757 123.242 43.6345 130.219 34.7638 143.531C34.7638 143.531 31.1488 145.998 31.4758 149.78C31.4758 149.78 26.8738 157.176 26.0533 165.887C26.0533 165.887 28.1877 164.573 27.5339 168.021C26.8739 171.476 22.7654 194.979 22.605 212.893C22.605 212.893 21.4514 213.06 21.4514 215.194C21.4514 217.329 21.4514 220.617 21.4514 220.617C21.4514 220.617 21.6179 223.244 23.0923 223.738L23.7524 239.191C23.7524 239.191 2.95117 249.579 2.75989 256.34C2.56873 263.101 2.56873 263.101 2.56873 263.101C2.56873 263.101 2.56873 288.591 3.24731 292.452C3.92578 296.314 4.30823 299.695 4.30823 299.695C4.30823 299.695 -1.00305 303.97 0.169067 307.782C1.34106 311.594 5.88757 322.877 5.88757 322.877C5.88757 322.877 4.41931 330.496 7.20764 332.846C7.20764 332.846 3.83948 335.042 4.12939 338.416C4.41931 341.791 9.26184 345.307 13.068 346.183C16.8802 347.065 45.6024 351.457 45.6024 351.457C45.6024 351.457 45.5222 322.359 54.3929 302.261C63.2638 282.163 89.8575 233.793 158.442 236.242C227.027 238.697 257.767 300.774 260.135 334.771C262.498 368.767 262.498 368.767 262.498 368.767L772.758 380.821C772.758 380.821 771.389 327.041 788.859 296.9C806.329 266.759 838.185 241.412 881.687 240.042C925.19 238.673 961.154 262.651 976.909 291.768C992.664 320.885 995.064 363.018 993.01 382.196C993.01 382.196 1008.77 385.966 1026.58 374.319C1026.58 374.319 1069.4 370.21 1086.52 364.387C1103.65 358.564 1082.75 344.863 1082.75 344.863L1073.16 340.07L1074.88 318.83C1074.88 318.83 1077.96 318.146 1078.65 305.129C1078.65 305.129 1087.21 299.991 1088.58 297.937C1088.58 297.937 1088.58 270.535 1087.21 260.257C1087.21 260.257 1081.73 248.611 1080.7 242.448C1080.7 242.448 1080.35 236.285 1069.05 226.347C1069.05 226.347 1070.77 220.185 1062.2 210.247C1053.64 200.315 1042.68 190.038 1023.49 183.869C1023.49 183.869 1024.52 181.469 1010.82 175.991C997.118 170.513 968.001 161.26 968.001 161.26C968.001 161.26 917.652 142.081 824.823 140.706C824.823 140.706 826.193 152.692 764.881 154.752C703.569 156.812 388.435 143.79 388.435 143.79C388.435 143.79 59.2601 131.119 56.1757 123.242Z" fill="#8ABC95"/>
<path d="M245.615 335.616C245.615 385.75 204.969 426.397 154.835 426.397C104.701 426.397 64.0545 385.75 64.0545 335.616C64.0545 285.482 104.701 244.836 154.835 244.836C204.969 244.836 245.615 285.482 245.615 335.616ZM162.922 296.179L165.273 306.179C165.273 306.179 166.451 311.472 171.744 310.102C177.036 308.733 181.546 306.771 181.546 306.771C181.546 306.771 177.036 300.096 162.922 296.179ZM127.384 290.726L135.249 316.555C135.829 318.448 137.846 319.528 139.74 318.948L154.594 314.42C156.488 313.84 157.568 311.823 156.988 309.929L149.123 284.107C148.543 282.213 146.525 281.133 144.632 281.713L129.777 286.241C127.883 286.809 126.804 288.832 127.384 290.726ZM114.121 326.832L124.04 324.173C124.04 324.173 129.296 322.835 127.76 317.585C126.224 312.335 124.126 307.894 124.126 307.894C124.126 307.894 117.6 312.607 114.121 326.832ZM102.153 364.4L128.118 356.997C130.024 356.455 131.134 354.456 130.591 352.55L126.335 337.615C125.792 335.709 123.793 334.598 121.887 335.141L95.9226 342.544C94.0165 343.087 92.9061 345.085 93.4489 346.992L97.7054 361.926C98.2483 363.826 100.247 364.943 102.153 364.4ZM144.57 373.604L141.603 363.771C141.603 363.771 140.104 358.558 134.903 360.255C129.703 361.951 125.323 364.184 125.323 364.184C125.323 364.184 130.24 370.563 144.57 373.604ZM180.454 387.262L173.051 361.297C172.509 359.391 170.51 358.281 168.604 358.823L153.669 363.08C151.763 363.623 150.652 365.621 151.195 367.528L158.598 393.492C159.141 395.398 161.139 396.509 163.046 395.966L177.98 391.709C179.886 391.167 180.997 389.168 180.454 387.262ZM193.291 346.042L183.341 348.577C183.341 348.577 178.073 349.848 179.541 355.116C181.009 360.384 183.051 364.857 183.051 364.857C183.051 364.857 189.627 360.224 193.291 346.042ZM214.222 326.752L209.966 311.817C209.423 309.911 207.424 308.8 205.518 309.343L179.553 316.746C177.647 317.289 176.537 319.287 177.08 321.194L181.336 336.128C181.879 338.034 183.878 339.145 185.784 338.602L211.748 331.199C213.655 330.657 214.765 328.658 214.222 326.752Z" fill="#8ABC95"/>
<path d="M817.142 141.108C817.142 141.108 793.769 152.619 734.024 149.627C705.752 148.208 101.787 134.89 64.4167 120.566C64.4167 120.566 101.541 66.6811 132.218 42.2526C132.218 42.2526 133.168 39.9824 120.473 38.0886C107.784 36.1948 104.563 35.0597 105.513 32.7834C106.463 30.5133 106.463 30.5133 106.463 30.5133C106.463 30.5133 102.108 27.6695 99.6469 26.3493C97.1855 25.0292 99.838 22.938 99.838 22.938C99.838 22.938 110.442 18.774 114.612 18.9591C118.783 19.1442 124.871 21.8029 132.243 21.6117C139.615 21.4205 157.418 17.824 171.051 17.2565C171.051 17.2565 171.094 15.7266 177.004 15.0481C182.914 14.3757 194.56 13.0247 194.56 13.0247C194.56 13.0247 194.055 6.26983 197.262 5.93671C200.47 5.59743 200.47 7.12113 202.493 4.0799C204.517 1.03867 204.517 0.366268 207.052 0.19971C209.588 0.0331521 218.699 -0.811977 223.258 2.90165C227.816 6.61528 231.024 10.1624 231.024 10.8348C231.024 10.8348 365.597 6.06009 405.318 6.06009C445.039 6.06009 603.948 5.61594 650.732 31.6607C650.732 31.6607 653.379 31.6607 656.913 34.3071C660.442 36.9535 776.971 119.937 788.007 141.126H817.142V141.108ZM340.496 125.18L338.732 59.3834C338.553 52.6532 330.188 52.8691 330.188 52.8691C330.188 52.8691 234.072 52.8691 219.408 52.8691C204.739 52.8691 200.612 56.0029 192.784 64.8305C184.949 73.658 161.458 112.108 158.189 117.629C154.919 123.15 160.743 123.249 160.743 123.249C160.743 123.249 327.289 130.473 334.34 130.769C341.372 131.053 340.496 125.18 340.496 125.18ZM661.343 133.921C661.343 133.921 616.187 69.235 602.702 58.0879C589.217 46.9409 572.499 44.8928 550.507 44.6029C528.516 44.3068 420.617 43.1347 420.617 43.1347C420.617 43.1347 390.414 40.7906 391.882 63.0723C393.351 85.3541 396.571 130.763 396.571 130.763L661.343 133.921Z" fill="#8ABC95"/>
</svg>
