<svg width="742" height="410" viewBox="0 0 742 410" fill="none" xmlns="http://www.w3.org/2000/svg">
<g clip-path="url(#clip0)">
<path d="M729.19 237.535C729.19 237.535 737.81 244.501 738.843 256.681C739.876 268.86 739.876 287.664 739.876 287.664C739.876 287.664 739.529 307.502 728.147 306.118C716.765 304.725 714.004 304.374 709.525 297.067C705.046 289.759 696.763 290.1 696.763 290.1L689.86 317.255L721.94 317.947C721.94 317.947 757.813 321.776 731.941 330.827C706.069 339.879 674.347 343.357 674.347 343.357L611.916 346.836C611.916 346.836 623.298 234.398 537.07 219.081C450.843 203.765 425.328 256.33 425.328 256.33C425.328 256.33 402.217 285.57 408.772 349.622L-72.6504 347.011L-86.9476 349.895L-113.833 349.32C-113.833 349.32 -97.2385 262.137 -159.602 225.765C-221.965 189.393 -283.17 237.311 -283.17 237.311C-283.17 237.311 -318.637 264.446 -315.78 327.963L-364.406 318.151L-393.01 277.161C-393.01 277.161 -388.434 266.765 -392.44 260.412C-392.44 260.412 -398.735 221.147 -367.843 179.581C-367.843 179.581 -370.131 168.61 -364.985 160.524C-359.84 152.437 -323.793 139.741 -285.467 144.359C-247.142 148.978 -224.253 142.05 -224.253 135.697C-224.253 129.345 -306.059 114.33 -306.059 114.33C-306.059 114.33 -318.724 111.251 -302.622 104.519C-284.666 96.9969 -208.845 69.6376 -193.93 69.2965C-178.34 68.936 -175.164 69.8519 -162.971 70.1734C-143.953 70.6704 -149.069 97.7374 -86.3781 105.678C-64.5509 108.436 163.046 131.664 190.501 129.929C217.956 128.195 429.055 142.05 429.055 142.05C429.055 142.05 444.839 134.47 429.055 125.301C381.423 97.6497 453.72 117.429 486.832 118.374C519.945 119.319 544.61 122.417 590.948 140.316C637.286 158.214 679.637 167.451 719.681 206.717L716.244 207.876C716.254 207.866 724.971 219.286 729.19 237.535Z" fill="#8ABC95"/>
<path d="M510.339 234.126C558.318 234.126 597.223 273.382 597.223 321.816C597.223 370.241 558.328 409.506 510.339 409.506C462.36 409.506 423.456 370.25 423.456 321.816C423.456 273.392 462.36 234.126 510.339 234.126ZM506.507 308.156C506.507 308.156 506.227 297.049 505.657 289.653C505.097 282.248 503.118 276.841 503.118 276.841L498.04 266.308C498.04 266.308 495.502 261.748 491.833 262.041C488.165 262.323 475.19 269.728 475.19 269.728C475.19 269.728 464.474 279.121 461.935 282.541C459.397 285.961 459.956 288.806 459.956 288.806C459.956 288.806 465.034 295.353 467.293 297.916C469.552 300.478 471.242 301.618 473.781 303.323C476.32 305.028 496.911 312.433 499.45 313.573C501.989 314.713 503.398 314.431 505.377 312.433C507.356 310.426 506.507 308.156 506.507 308.156ZM561.292 286.789C559.989 283.32 549.311 272.827 549.311 272.827C549.311 272.827 537.37 265.081 533.402 263.58C529.444 262.08 526.896 263.424 526.896 263.424C526.896 263.424 522.098 270.186 520.292 273.09C518.487 275.993 517.879 277.952 516.971 280.894C516.064 283.837 514.799 305.857 514.433 308.633C514.066 311.41 514.732 312.696 517.184 314.051C519.636 315.405 521.557 313.943 521.557 313.943C521.557 313.943 532.041 310.553 538.914 307.922C545.798 305.301 550.383 301.862 550.383 301.862L558.975 293.989C558.965 293.999 562.585 290.257 561.292 286.789ZM543.625 354.583L554.042 359.757C554.042 359.757 558.82 361.783 561.543 359.289C564.265 356.795 570.009 342.91 570.009 342.91C570.009 342.91 572.76 328.851 572.693 324.583C572.625 320.316 570.444 318.416 570.444 318.416C570.444 318.416 562.45 316.389 559.11 315.765C555.77 315.142 553.743 315.288 550.702 315.512C547.661 315.736 526.895 322.644 524.202 323.317C521.509 323.989 520.563 325.09 520.215 327.886C519.868 330.683 521.924 331.959 521.924 331.959C521.924 331.959 528.894 340.553 533.846 346.048C538.77 351.533 543.625 354.583 543.625 354.583ZM492.712 381.884C495.868 383.794 510.697 385.304 510.697 385.304C510.697 385.304 524.82 383.881 528.855 382.576C532.881 381.27 534.049 378.61 534.049 378.61C534.049 378.61 533.653 370.309 533.277 366.899C532.9 363.488 532.166 361.579 531.076 358.704C529.985 355.83 517.406 337.785 515.987 335.379C514.568 332.972 513.255 332.378 510.503 332.855C507.752 333.333 507.134 335.681 507.134 335.681C507.134 335.681 501.014 344.908 497.239 351.28C493.465 357.652 491.978 363.216 491.978 363.216L490.095 374.771C490.086 374.781 489.555 379.984 492.712 381.884ZM451.316 339.13C451.316 339.13 456.819 352.342 459.242 355.84C461.665 359.338 464.523 359.689 464.523 359.689C464.523 359.689 472.275 356.863 475.383 355.499C478.501 354.135 480.094 352.868 482.498 350.958C484.902 349.049 498.282 331.618 500.145 329.533C502.008 327.458 502.182 326.015 500.917 323.502C499.653 320.988 497.249 321.085 497.249 321.085C497.249 321.085 486.707 317.899 479.563 316.126C472.419 314.362 466.714 314.567 466.714 314.567L455.216 316.155C455.216 316.155 450.139 317.169 449.26 320.774C448.391 324.379 451.316 339.13 451.316 339.13Z" fill="#8ABC95"/>
<path d="M-358.256 134.927L-359.453 112.06L-255.087 53.0735C-255.087 53.0735 -242.566 51.271 -264.625 28.9977C-264.625 28.9977 -156.686 8.53667 -24.8835 2.51528C106.909 -3.50611 210.253 -3.23329 337.711 56.6883C439.008 104.304 455.796 110.861 455.796 110.861L409.274 104.84C409.274 104.84 394.369 102.433 406.291 112.664C418.223 122.894 440.88 138.542 420.009 137.344C399.138 136.136 146.277 122.3 146.277 122.3C146.277 122.3 -76.6758 102.521 -90.278 99.9585C-140.033 90.6049 -143.296 65.8178 -162.517 64.6584C-174.42 63.9374 -187.182 64.142 -188.968 63.9958C-203.092 62.8364 -221.974 69.6859 -238.251 76.0971C-253.426 82.0697 -298.702 99.637 -298.702 99.637C-298.702 99.637 -329.749 111.407 -309.35 115.675C-295.468 118.578 -236.001 132.531 -236.001 132.531C-236.001 132.531 -223.48 136.74 -241.369 140.354C-259.257 143.969 -300.411 139.75 -300.411 139.75C-300.411 139.75 -338.582 133.125 -364.222 154.794C-364.222 154.794 -354.684 143.355 -358.256 134.927ZM112.711 113.658C112.711 113.658 214.829 126.1 328.955 123.888L314.938 68.6044C314.938 68.6044 235.13 19.4005 92.3997 20.2287C92.3997 20.2189 104.708 90.7121 112.711 113.658ZM-87.7969 96.5678C-87.7969 96.9771 62.087 111.163 62.087 111.163C62.087 111.163 56.1693 57.3703 55.9183 44.6845C55.6769 31.9987 54.4896 19.2154 54.4896 19.2154C18.2977 17.8513 -94.236 27.468 -94.236 27.468C-94.6608 35.4478 -87.7969 96.1489 -87.7969 96.5678ZM-97.9526 92.9725C-97.9526 92.9725 -102.239 37.3867 -102.673 29.3192L-128.42 30.8002C-128.42 30.8002 -134.145 63.7717 -134.28 76.8278C-134.28 76.8181 -112.684 90.9459 -97.9526 92.9725Z" fill="#8ABC95"/>
</g>
<defs>
<clipPath id="clip0">
<rect width="1134.32" height="409.503" fill="white" transform="matrix(-1 0 0 1 741.324 0)"/>
</clipPath>
</defs>
</svg>
