<svg width="941" height="519" viewBox="0 0 941 519" fill="none" xmlns="http://www.w3.org/2000/svg">
<g clip-path="url(#clip0)">
<path d="M139.268 349.309C186.16 349.309 224.254 387.272 224.254 434.198C224.254 481.036 186.248 519.087 139.268 519.087C92.3763 519.087 54.2821 481.124 54.2821 434.198C54.2821 387.272 92.3763 349.309 139.268 349.309ZM102.582 397.817L100.206 400.102C94.6637 405.638 95.5435 407.747 101.086 413.195L105.749 417.853C107.244 419.347 117.098 423.477 120.265 420.05L122.553 417.765C125.808 414.689 122.113 404.671 120.353 402.914L115.69 398.344C110.236 392.896 108.036 392.369 102.582 397.817ZM149.65 390.875C149.65 383.142 148.418 381.208 140.676 381.208H137.421C129.679 381.208 128.711 383.317 128.711 391.138V397.729C128.711 399.838 132.758 409.768 137.421 409.505H140.676C145.163 409.592 149.65 399.926 149.65 397.466V390.875ZM193.902 437.889V434.549C193.902 426.553 191.703 425.674 183.785 425.674H177.01C174.899 425.674 164.694 429.804 164.87 434.549V437.889C164.782 442.458 174.723 447.116 177.274 447.116H183.961C191.967 447.116 193.902 445.886 193.902 437.889ZM158.711 471.282L163.462 476.027C169.093 481.651 171.38 482.179 177.01 476.555L179.386 474.182C185.016 468.558 184.137 466.361 178.506 460.737L173.755 455.991C172.26 454.497 162.054 450.192 158.887 453.707L156.512 456.079C153.169 459.243 156.952 469.437 158.711 471.282ZM155.28 414.689L157.655 417.062C160.823 420.401 171.116 416.623 172.876 414.865L177.626 410.12C183.257 404.496 183.785 402.211 178.154 396.587L175.779 394.214C170.148 388.59 167.949 389.469 162.318 395.093L157.567 399.838C156.072 401.332 151.761 411.526 155.28 414.689ZM127.655 477.082C127.655 485.079 128.887 487.012 136.893 487.012H140.236C148.242 487.012 149.122 484.815 149.122 476.906V470.14C149.122 468.031 144.987 457.837 140.236 458.013H136.893C132.318 457.925 127.655 467.855 127.655 470.403V477.082ZM100.646 473.127L103.022 475.5C108.652 481.124 110.852 480.245 116.482 474.621L121.233 469.876C122.728 468.382 127.039 458.188 123.52 455.025L121.145 452.652C117.978 449.313 107.684 453.091 105.925 454.849L101.174 459.594C95.5435 465.218 95.0156 467.503 100.646 473.127ZM88.5933 438.152C88.5933 445.886 90.7047 446.852 98.5347 446.852H105.133C107.244 446.852 117.186 442.81 116.922 438.152V434.901C117.01 430.419 107.332 425.938 104.869 425.938H98.3587C90.6167 425.938 88.6812 427.168 88.6812 434.901V438.152H88.5933Z" fill="white"/>
<path d="M878.542 349.309C925.434 349.309 963.528 387.272 963.528 434.198C963.528 481.036 925.522 519.087 878.542 519.087C831.65 519.087 793.555 481.124 793.555 434.198C793.555 387.272 831.562 349.309 878.542 349.309ZM841.767 397.817L839.392 400.102C833.849 405.638 834.729 407.747 840.271 413.195L844.934 417.853C846.43 419.347 856.283 423.477 859.451 420.05L861.738 417.765C864.993 414.689 861.298 404.671 859.538 402.914L854.964 398.344C849.509 392.896 847.31 392.369 841.767 397.817ZM888.835 390.875C888.835 383.142 887.603 381.208 879.861 381.208H876.606C868.864 381.208 867.896 383.317 867.896 391.138V397.729C867.896 399.838 871.943 409.768 876.606 409.505H879.861C884.348 409.592 888.835 399.926 888.835 397.466V390.875ZM933.176 437.889V434.549C933.176 426.553 930.976 425.674 923.058 425.674H916.284C914.173 425.674 903.967 429.804 904.143 434.549V437.889C904.055 442.458 913.997 447.116 916.548 447.116H923.234C931.24 447.116 933.176 445.886 933.176 437.889ZM897.985 471.282L902.735 476.027C908.366 481.651 910.653 482.179 916.284 476.555L918.659 474.182C924.29 468.558 923.41 466.361 917.78 460.737L913.029 455.991C911.533 454.497 901.328 450.192 898.161 453.707L895.785 456.079C892.442 459.243 896.225 469.437 897.985 471.282ZM894.554 414.689L896.929 417.062C900.096 420.401 910.389 416.623 912.149 414.865L916.9 410.12C922.53 404.496 923.058 402.211 917.428 396.587L915.052 394.214C909.422 388.59 907.222 389.469 901.592 395.093L896.841 399.838C895.257 401.332 891.034 411.526 894.554 414.689ZM866.929 477.082C866.929 485.079 868.16 487.012 876.166 487.012H879.509C887.515 487.012 888.395 484.815 888.395 476.906V470.14C888.395 468.031 884.26 457.837 879.509 458.013H876.166C871.591 457.925 866.929 467.855 866.929 470.403V477.082ZM839.832 473.127L842.207 475.5C847.838 481.124 850.037 480.245 855.668 474.621L860.418 469.876C861.914 468.382 866.225 458.188 862.706 455.025L860.33 452.652C857.163 449.313 846.87 453.091 845.11 454.849L840.359 459.594C834.729 465.218 834.201 467.503 839.832 473.127ZM827.867 438.152C827.867 445.886 829.978 446.852 837.808 446.852H844.406C846.518 446.852 856.459 442.81 856.195 438.152V434.901C856.283 430.419 846.606 425.938 844.142 425.938H837.544C829.802 425.938 827.867 427.168 827.867 434.901V438.152Z" fill="white"/>
<path d="M0.0880566 413.986C1.23176 400.893 3.69513 375.936 3.69513 375.936C3.69513 375.936 2.46345 358.097 19.1791 337.885L26.3053 283.226C26.3053 283.226 28.0649 271.45 42.933 259.499C57.8012 247.548 120.441 217.142 198.301 209.937C198.301 209.937 311.704 107.56 389.916 83.6577C468.128 59.7553 699.244 72.761 699.244 72.761C699.244 72.761 830.418 83.5699 895.61 97.8938C895.61 97.8938 939.598 178.652 950.332 187.001C961.065 195.349 981.212 230.939 981.212 293.947C981.212 293.947 1004.97 335.512 1009.72 363.984C1014.47 392.457 1021.59 426.904 1004.97 441.228C988.338 455.464 977.605 447.204 977.605 447.204C977.605 447.204 994.232 358.097 905.023 336.743C815.814 315.389 783.702 409.241 783.702 409.241L776.576 437.713C776.576 437.713 768.218 465.043 734.963 466.185C701.708 467.415 272.378 472.161 272.378 472.161C272.378 472.161 246.249 475.764 242.642 459.067C239.035 442.458 239.035 364.072 164.166 340.258C89.2091 316.531 52.3466 373.475 52.3466 373.475C52.3466 373.475 33.3435 394.829 35.7189 458.979C35.7189 458.979 21.4666 457.749 7.21422 447.116C7.21422 447.204 -1.05565 426.992 0.0880566 413.986ZM613.73 198.249C626.663 198.688 772.793 195.349 772.793 195.349C772.793 195.349 791.972 192.889 789.069 177.071C786.166 161.253 777.808 141.744 777.808 141.744C777.808 141.744 764.523 117.578 735.403 114.239C706.282 110.9 632.557 102.551 632.557 102.551C632.557 102.551 603.437 96.312 603.437 127.508V186.561C603.349 186.649 600.885 197.81 613.73 198.249ZM297.1 201.764C297.188 208.794 304.49 210.464 304.49 210.464C304.49 210.464 473.318 204.488 500.855 204.488C528.304 204.488 533.319 197.81 535.87 189.901C538.334 181.992 550.826 91.7424 550.826 91.7424C550.826 91.7424 491.53 89.9849 475.694 91.2151C459.858 92.4454 416.925 94.4666 380.326 112.745C343.64 131.023 301.586 165.032 301.586 165.032C301.586 165.032 297.276 168.019 297.364 174.347C297.539 182.255 297.1 196.755 297.1 201.764Z" fill="white"/>
<path d="M797.427 66.9614L831.826 3.69013C831.826 3.69013 834.113 -1.31884 837.545 0.262941C840.976 1.84472 837.809 6.41431 837.809 6.41431L804.553 71.7067C804.553 71.7067 802.266 79.4399 807.28 81.0217L781.943 78.0338C781.943 78.1217 792.676 74.9582 797.427 66.9614Z" fill="white"/>
</g>
<defs>
<clipPath id="clip0">
<rect width="1015.43" height="519" fill="white"/>
</clipPath>
</defs>
</svg>
