<svg width="631" height="370" viewBox="0 0 631 370" fill="none" xmlns="http://www.w3.org/2000/svg">
<g clip-path="url(#clip0)">
<path d="M537.574 283.862C537.574 331.419 498.858 370.001 451.137 370.001C403.415 370.001 364.699 331.419 364.699 283.862C364.699 236.305 403.415 197.723 451.137 197.723C498.858 197.723 537.574 236.305 537.574 283.862ZM426.254 236.305C426.254 236.305 429.318 243.892 435.91 255.92C442.595 267.948 446.402 268.966 446.402 268.966C449.651 266.93 445.287 224.277 445.287 224.277C445.287 224.277 430.432 229.736 427.833 231.124C425.233 232.512 426.254 236.305 426.254 236.305ZM400.908 260.176C400.908 260.176 407.871 264.525 420.405 270.261C432.939 275.998 436.56 274.61 436.56 274.61C437.953 271.094 409.171 239.174 409.171 239.174C409.171 239.174 400.444 252.312 399.144 254.995C397.844 257.678 400.908 260.176 400.908 260.176ZM395.523 293.207C395.523 293.207 403.693 293.022 417.341 291.079C430.989 289.043 433.218 285.898 433.218 285.898C432.475 282.197 390.788 271.279 390.788 271.279C390.788 271.279 390.695 287.101 391.067 289.969C391.531 292.744 395.523 293.207 395.523 293.207ZM427.183 307.641C436.096 297.186 435.632 293.207 435.632 293.207C432.568 290.894 394.13 310.231 394.13 310.231C394.13 310.231 404.529 322.167 406.757 324.017C408.985 325.96 412.235 323.647 412.235 323.647C412.235 323.647 418.363 318.188 427.183 307.641ZM446.68 301.072C442.873 300.609 419.013 336.323 419.013 336.323C419.013 336.323 433.96 341.504 436.839 342.059C439.717 342.614 441.388 339.006 441.388 339.006C441.388 339.006 443.895 331.234 446.402 317.726C449.001 304.217 446.68 301.072 446.68 301.072ZM476.576 260.639C467.384 270.816 467.663 274.795 467.663 274.795C470.634 277.201 509.628 259.066 509.628 259.066C509.628 259.066 499.601 246.853 497.373 244.91C495.145 242.874 491.895 245.095 491.895 245.095C491.895 245.095 485.767 250.461 476.576 260.639ZM458.1 268.781C461.906 268.966 482.704 231.402 482.704 231.402C482.704 231.402 467.384 227.423 464.413 227.145C461.442 226.868 460.142 230.569 460.142 230.569C460.142 230.569 458.286 238.526 456.893 252.219C455.593 265.82 458.1 268.781 458.1 268.781ZM475.74 334.75C475.74 334.75 472.769 327.163 466.084 315.135C459.493 303.107 455.593 302.089 455.593 302.089C452.344 304.125 456.614 346.778 456.614 346.778C456.614 346.778 471.469 341.412 474.069 339.931C476.761 338.543 475.74 334.75 475.74 334.75ZM500.901 310.879C500.901 310.879 494.03 306.438 481.682 300.424C469.334 294.41 465.62 295.798 465.62 295.798C464.135 299.314 492.359 331.697 492.359 331.697C492.359 331.697 501.365 318.743 502.665 316.06C503.965 313.47 500.901 310.879 500.901 310.879ZM512.506 298.481C512.506 298.481 511.485 282.752 510.835 279.791C510.185 276.923 506.286 276.83 506.286 276.83C506.286 276.83 498.116 277.571 484.653 280.531C471.191 283.492 469.148 286.915 469.148 286.915C470.17 290.616 512.506 298.481 512.506 298.481Z" fill="#8ABC95"/>
<path d="M629.769 271C626.148 301.163 609.622 309.768 609.622 309.768C609.622 309.768 590.868 315.504 579.355 315.504C567.842 315.504 545.467 326.977 545.467 326.977C545.467 326.977 547.602 319.112 550.48 299.683C553.359 280.345 538.968 215.024 489.296 195.594C439.625 176.164 398.588 191.246 366.928 222.888C335.268 254.439 341.025 326.977 341.025 326.977C341.025 326.977 -113.354 329.845 -129.137 329.845C-145.013 329.845 -134.151 302.551 -134.151 302.551C-128.394 252.311 -155.041 228.625 -164.418 215.024C-173.795 201.423 -224.859 177.737 -270.26 194.206C-315.661 210.675 -332.93 268.872 -336.551 288.95C-340.171 309.027 -330.794 331.973 -330.794 331.973C-330.794 331.973 -374.709 323.369 -407.112 308.287C-439.514 293.206 -441 244.446 -441 244.446C-441 244.446 -441 182.733 -435.244 148.962C-429.487 115.192 -439.607 100.203 -439.607 100.203C-423.081 98.7224 -444.621 106.679 -327.266 53.5711C-209.911 0.462841 -79.5585 -4.62593 56.5507 2.59087C192.66 9.80767 374.82 110.935 374.82 110.935C506.565 122.408 611.757 173.389 623.92 179.125C636.175 184.861 627.541 210.675 623.92 223.629C620.299 236.582 624.663 240.838 624.663 240.838C624.663 240.838 633.297 240.838 629.769 271ZM-8.71857 16.8394C-8.71857 16.8394 -171.567 15.6366 -303.591 68.7449C-303.591 68.7449 -308.976 73.2785 -304.798 80.7729C-300.62 88.2673 -172.774 107.327 -4.91193 111.861C-4.91193 111.861 3.81537 84.8439 -8.71857 16.8394ZM252.08 119.355C250.409 114.359 241.682 73.2785 241.682 73.2785C241.682 73.2785 240.475 68.7449 235.832 66.6169C231.283 64.5814 164.992 23.8712 30.4615 16.8394C30.4615 16.8394 25.448 17.2095 26.7478 20.1703C27.9548 23.0385 48.8447 113.526 48.8447 113.526C48.8447 113.526 48.4733 116.024 53.8582 116.857C59.2432 117.69 247.531 124.721 247.531 124.721C247.531 124.721 253.751 124.351 252.08 119.355Z" fill="#8ABC95"/>
</g>
<defs>
<clipPath id="clip0">
<rect width="1071.6" height="370" fill="white" transform="matrix(-1 0 0 1 630.604 0)"/>
</clipPath>
</defs>
</svg>
