<svg width="259" height="55" viewBox="0 0 259 55" fill="none" xmlns="http://www.w3.org/2000/svg">
<g clip-path="url(#clip0)">
<path d="M100.44 44.6402C96.7955 44.6402 93.4505 43.8287 90.5146 42.2238C87.5695 40.6189 85.2335 38.3557 83.561 35.5066C81.8885 32.6574 81.0432 29.4295 81.0432 25.9131C81.0432 22.3967 81.8885 19.1598 83.561 16.3197C85.2335 13.4705 87.5786 11.2164 90.5418 9.60246C93.496 7.99754 96.8409 7.18607 100.486 7.18607C103.222 7.18607 105.785 7.6459 108.103 8.54754C110.43 9.4582 112.439 10.8107 114.066 12.5598L114.357 12.8754L111.293 15.9139L110.975 15.5893C108.248 12.8484 104.749 11.4598 100.586 11.4598C97.8135 11.4598 95.2593 12.1 92.996 13.3533C90.7327 14.6066 88.933 16.3467 87.6513 18.5287C86.3697 20.7107 85.7243 23.1902 85.7243 25.8951C85.7243 28.609 86.3697 31.0885 87.6513 33.2705C88.933 35.4525 90.7327 37.1926 92.996 38.4459C95.2593 39.6992 97.8135 40.3393 100.586 40.3393C104.785 40.3393 108.276 38.9328 110.975 36.1648L111.293 35.8312L114.366 38.8787L114.075 39.1943C112.448 40.9434 110.439 42.3049 108.085 43.2336C105.758 44.1713 103.186 44.6402 100.44 44.6402Z" fill="#8ABC95"/>
<path d="M100.495 7.6369C103.186 7.6369 105.667 8.0787 107.948 8.97133C110.23 9.86395 112.157 11.1623 113.748 12.8754L111.312 15.2918C108.485 12.4517 104.913 11.0271 100.595 11.0271C97.7317 11.0271 95.123 11.6762 92.7779 12.9746C90.4328 14.273 88.5967 16.0582 87.2696 18.3123C85.9425 20.5754 85.2789 23.109 85.2789 25.9131C85.2789 28.7172 85.9425 31.2508 87.2696 33.5139C88.5967 35.768 90.4328 37.5533 92.7779 38.8517C95.123 40.15 97.7317 40.7992 100.595 40.7992C104.94 40.7992 108.512 39.3656 111.312 36.4894L113.748 38.9058C112.157 40.6189 110.221 41.9262 107.921 42.8279C105.631 43.7385 103.131 44.1894 100.44 44.1894C96.85 44.1894 93.6141 43.4049 90.7327 41.8271C87.8513 40.2492 85.588 38.0672 83.9518 35.2812C82.3157 32.4951 81.4976 29.3664 81.4976 25.9131C81.4976 22.4599 82.3157 19.3312 83.9518 16.5451C85.588 13.759 87.8604 11.5771 90.76 9.99919C93.6687 8.42133 96.9046 7.6369 100.495 7.6369ZM100.495 6.73526C96.7682 6.73526 93.3505 7.56477 90.3328 9.20575C87.2968 10.8558 84.8972 13.173 83.1792 16.0853C81.4704 18.9976 80.5978 22.3066 80.5978 25.9041C80.5978 29.5107 81.4704 32.8107 83.1792 35.723C84.8972 38.6443 87.2877 40.9525 90.3055 42.6025C93.3051 44.2435 96.7228 45.073 100.45 45.073C103.24 45.073 105.876 44.5951 108.267 43.6484C110.675 42.6926 112.748 41.2951 114.42 39.4918L115.011 38.8517L114.393 38.2385L111.957 35.8221L111.303 35.173L110.657 35.8312C108.012 38.5451 104.731 39.8705 100.595 39.8705C97.9044 39.8705 95.423 39.2484 93.2233 38.0312C91.0327 36.8139 89.2966 35.1369 88.0513 33.0271C86.8151 30.9172 86.1788 28.5189 86.1788 25.8861C86.1788 23.2533 86.806 20.8549 88.0513 18.7451C89.2875 16.6353 91.0327 14.9582 93.2233 13.741C95.423 12.5238 97.9044 11.9017 100.595 11.9017C104.694 11.9017 107.985 13.209 110.657 15.8959L111.303 16.5451L111.948 15.9049L114.384 13.4885L115.002 12.8754L114.411 12.2353C112.739 10.432 110.675 9.04346 108.276 8.10575C105.912 7.20411 103.285 6.73526 100.495 6.73526Z" fill="#8ABC95"/>
<path d="M140.153 44.3336V28.582C140.153 25.9131 139.48 23.8574 138.153 22.4779C136.835 21.1074 134.908 20.4131 132.427 20.4131C129.636 20.4131 127.4 21.2426 125.791 22.8656C124.173 24.4975 123.355 26.8057 123.355 29.709V44.3246H118.774V5.33771H123.355V20.2238C124.292 19.1238 125.464 18.2221 126.837 17.5549C128.655 16.6713 130.754 16.2295 133.09 16.2295C136.617 16.2295 139.462 17.2664 141.562 19.3131C143.662 21.3598 144.725 24.3623 144.725 28.2303V44.3426H140.153V44.3336Z" fill="#8ABC95"/>
<path d="M122.901 5.78854V21.6033C123.901 20.0344 125.282 18.8172 127.037 17.9607C128.8 17.1041 130.818 16.6803 133.09 16.6803C136.508 16.6803 139.226 17.6631 141.244 19.6287C143.262 21.5943 144.271 24.4615 144.271 28.2303V43.8918H140.598V28.582C140.598 25.7779 139.889 23.641 138.481 22.1623C137.063 20.6926 135.045 19.9533 132.427 19.9533C129.491 19.9533 127.173 20.8189 125.464 22.541C123.755 24.2721 122.901 26.6525 122.901 29.7V43.8648H119.229V5.78854H122.901ZM123.81 4.8869H122.901H119.229H118.32V5.78854V43.8828V44.7844H119.229H122.901H123.81V43.8828V29.709C123.81 26.923 124.583 24.723 126.11 23.1812C127.655 21.6213 129.718 20.8639 132.418 20.8639C134.799 20.8639 136.563 21.4951 137.817 22.7935C139.062 24.0828 139.689 26.0303 139.689 28.591V43.8918V44.7935H140.598H144.271H145.18V43.8918V28.2213C145.18 24.2271 144.071 21.1164 141.88 18.9795C139.689 16.8517 136.735 15.7697 133.09 15.7697C130.682 15.7697 128.509 16.2295 126.637 17.1492C125.564 17.6721 124.619 18.3213 123.81 19.0877V5.78854V4.8869Z" fill="#8ABC95"/>
<path d="M160.332 44.5861C157.205 44.5861 154.669 43.8287 152.797 42.332C150.897 40.8082 149.933 38.7795 149.933 36.282C149.933 33.8566 150.833 31.882 152.606 30.3943C154.351 28.9246 157.142 28.1853 160.896 28.1853H169.085V26.9951C169.085 24.8131 168.476 23.1361 167.267 22.009C166.049 20.882 164.222 20.3049 161.832 20.3049C160.168 20.3049 158.55 20.5844 157.014 21.1254C155.487 21.6664 154.16 22.4238 153.069 23.3795L152.66 23.7402L150.524 20.2328L150.815 19.9803C152.233 18.7812 153.96 17.8525 155.933 17.2033C157.905 16.5541 160.005 16.2295 162.186 16.2295C165.84 16.2295 168.694 17.1582 170.676 18.9976C172.658 20.8459 173.667 23.5869 173.667 27.1574V44.3426H169.24V41.0967C168.449 42.0254 167.449 42.7828 166.249 43.3689C164.595 44.1713 162.604 44.5861 160.332 44.5861ZM161.005 31.8008C156.605 31.8008 154.469 33.2344 154.469 36.1738C154.469 37.6164 155.006 38.7164 156.096 39.5369C157.214 40.3754 158.832 40.8082 160.896 40.8082C162.868 40.8082 164.577 40.3574 165.977 39.4648C167.349 38.5902 168.395 37.3189 169.076 35.6779V31.8008H161.005V31.8008Z" fill="#8ABC95"/>
<path d="M162.195 16.6713C165.749 16.6713 168.476 17.5549 170.376 19.3131C172.276 21.0713 173.221 23.6861 173.221 27.1394V43.8738H169.703V39.6721C168.876 41.0787 167.658 42.1697 166.059 42.9541C164.459 43.7385 162.55 44.1353 160.341 44.1353C157.305 44.1353 154.887 43.414 153.097 41.9803C151.306 40.5467 150.406 38.6443 150.406 36.282C150.406 33.9918 151.242 32.1435 152.915 30.7369C154.587 29.3303 157.251 28.6361 160.914 28.6361H169.558V26.9951C169.558 24.6689 168.904 22.9017 167.595 21.6844C166.286 20.4672 164.368 19.8631 161.85 19.8631C160.123 19.8631 158.469 20.1426 156.878 20.7107C155.287 21.2787 153.924 22.0541 152.788 23.0459L151.133 20.323C152.515 19.1598 154.169 18.2582 156.105 17.6271C158.023 16.9869 160.059 16.6713 162.195 16.6713ZM160.905 41.259C162.977 41.259 164.75 40.7902 166.231 39.8435C167.713 38.9058 168.822 37.5443 169.54 35.759V31.341H161.005C156.351 31.341 154.015 32.9459 154.015 36.1648C154.015 37.7426 154.615 38.9779 155.824 39.8885C157.032 40.8082 158.723 41.259 160.905 41.259ZM162.195 15.7697C159.968 15.7697 157.823 16.1033 155.805 16.7615C153.769 17.4287 151.997 18.3935 150.533 19.6287L149.943 20.1246L150.343 20.7828L151.997 23.5058L152.56 24.4254L153.378 23.7131C154.424 22.8025 155.705 22.0721 157.178 21.5492C158.66 21.0262 160.232 20.7558 161.841 20.7558C164.104 20.7558 165.831 21.2877 166.967 22.3336C168.095 23.3795 168.649 24.9033 168.649 26.9861V27.7254H160.914C157.051 27.7254 154.169 28.5008 152.333 30.0426C150.452 31.6205 149.497 33.7123 149.497 36.273C149.497 38.9058 150.515 41.0607 152.524 42.6746C154.478 44.2344 157.105 45.0279 160.341 45.0279C162.677 45.0279 164.741 44.5951 166.468 43.7566C167.349 43.3238 168.131 42.8008 168.804 42.1877V43.8648V44.7664H169.713H173.23H174.139V43.8648V27.1484C174.139 23.4517 173.085 20.5935 171.003 18.6639C168.931 16.7435 165.968 15.7697 162.195 15.7697ZM160.905 40.3574C158.941 40.3574 157.423 39.9607 156.378 39.1762C155.405 38.4459 154.924 37.4631 154.924 36.1738C154.924 34.4877 155.551 32.2517 161.005 32.2517H168.631V35.5877C167.976 37.1205 167.031 38.2746 165.74 39.0861C164.413 39.9336 162.786 40.3574 160.905 40.3574Z" fill="#8ABC95"/>
<path d="M181.002 44.3336V16.4279H185.429V20.4853C186.265 19.3041 187.328 18.3574 188.61 17.6631C190.382 16.7074 192.582 16.2205 195.163 16.2205H195.618V20.6927L194.255 20.6115C191.564 20.6115 189.41 21.441 187.892 23.082C186.356 24.732 185.583 27.1033 185.583 30.1148V44.3246H181.002V44.3336Z" fill="#8ABC95"/>
<path d="M195.173 16.6713V20.2148L194.291 20.1607C191.428 20.1607 189.183 21.0353 187.565 22.7754C185.947 24.5246 185.129 26.968 185.129 30.1148V43.8738H181.456V16.8787H184.974V22.1623C185.838 20.35 187.119 18.9795 188.828 18.0598C190.537 17.1312 192.655 16.6713 195.173 16.6713ZM196.082 15.7697H195.173C192.509 15.7697 190.237 16.2746 188.401 17.2664C187.446 17.7803 186.61 18.4295 185.892 19.2049V16.8787V15.9771H184.983H181.465H180.556V16.8787V43.8828V44.7844H181.465H185.138H186.047V43.8828V30.1238C186.047 27.2205 186.783 24.9574 188.237 23.3976C189.692 21.8377 191.664 21.0713 194.273 21.0713L195.127 21.1164L196.091 21.1705V20.2148V16.6713V15.7697H196.082Z" fill="#8ABC95"/>
<path d="M211.634 54.5492C209.08 54.5492 206.616 54.1705 204.326 53.4221C202.017 52.6738 200.108 51.6099 198.645 50.2664L198.363 50.0049L200.735 46.4795L201.126 46.8221C202.39 47.9402 203.944 48.8238 205.762 49.4549C207.589 50.0861 209.534 50.4017 211.534 50.4017C214.843 50.4017 217.297 49.6443 218.824 48.1476C220.351 46.6508 221.123 44.2615 221.123 41.0517V38.9689C220.069 40.2131 218.787 41.1959 217.297 41.9172C215.397 42.8369 213.27 43.2967 210.97 43.2967C208.353 43.2967 205.935 42.7197 203.799 41.5746C201.644 40.4295 199.936 38.7976 198.708 36.7328C197.481 34.668 196.863 32.3057 196.863 29.7C196.863 27.0943 197.481 24.741 198.708 22.6943C199.936 20.6476 201.644 19.0336 203.78 17.9066C205.907 16.7795 208.325 16.2115 210.979 16.2115C213.352 16.2115 215.524 16.6894 217.442 17.6451C218.942 18.3935 220.233 19.4033 221.287 20.6746V16.4189H225.714V40.5828C225.714 45.2713 224.532 48.8057 222.187 51.0959C219.842 53.3861 216.297 54.5492 211.634 54.5492ZM211.325 20.3049C209.443 20.3049 207.725 20.7017 206.235 21.4861C204.753 22.2615 203.571 23.3795 202.744 24.8041C201.908 26.2287 201.49 27.8877 201.49 29.709C201.49 31.5303 201.917 33.1894 202.744 34.6139C203.581 36.0385 204.753 37.1656 206.244 37.959C207.734 38.7615 209.452 39.1582 211.334 39.1582C213.216 39.1582 214.933 38.7525 216.451 37.95C217.951 37.1566 219.142 36.0295 219.969 34.6049C220.805 33.1713 221.223 31.5213 221.223 29.7C221.223 27.8787 220.805 26.2287 219.969 24.8221C219.133 23.4156 217.96 22.2976 216.47 21.5041C214.97 20.7107 213.243 20.3049 211.325 20.3049Z" fill="#8ABC95"/>
<path d="M210.961 16.6713C213.27 16.6713 215.361 17.1312 217.224 18.0598C219.087 18.9885 220.587 20.323 221.723 22.0631V16.8787H225.241V40.5918C225.241 45.1812 224.114 48.5713 221.851 50.7803C219.587 52.9894 216.188 54.0894 211.634 54.0894C209.116 54.0894 206.726 53.7197 204.462 52.9894C202.199 52.25 200.363 51.2312 198.954 49.9328L200.817 47.1648C202.126 48.3279 203.726 49.2385 205.607 49.8877C207.489 50.5369 209.462 50.8615 211.534 50.8615C214.988 50.8615 217.524 50.068 219.142 48.4721C220.76 46.8853 221.578 44.4057 221.578 41.0516V37.6164C220.442 39.3295 218.951 40.6279 217.097 41.5205C215.252 42.4131 213.206 42.8549 210.961 42.8549C208.407 42.8549 206.089 42.2959 203.999 41.1869C201.908 40.0779 200.272 38.518 199.081 36.5164C197.89 34.5148 197.3 32.2516 197.3 29.718C197.3 27.1844 197.89 24.9303 199.081 22.9377C200.272 20.9541 201.899 19.4123 203.971 18.3213C206.053 17.2213 208.38 16.6713 210.961 16.6713ZM211.325 39.618C213.288 39.618 215.07 39.2033 216.651 38.3648C218.242 37.5262 219.469 36.3541 220.351 34.8484C221.233 33.3426 221.669 31.6295 221.669 29.718C221.669 27.7976 221.233 26.1025 220.351 24.6057C219.469 23.118 218.242 21.9549 216.679 21.1164C215.106 20.2779 213.325 19.8541 211.325 19.8541C209.362 19.8541 207.589 20.2689 206.017 21.0894C204.444 21.9098 203.226 23.073 202.344 24.5787C201.463 26.0844 201.026 27.7976 201.026 29.709C201.026 31.6295 201.463 33.3336 202.344 34.8394C203.226 36.3451 204.453 37.5172 206.017 38.3557C207.589 39.2033 209.362 39.618 211.325 39.618ZM210.961 15.7697C208.234 15.7697 205.744 16.3557 203.544 17.5189C201.335 18.691 199.572 20.359 198.299 22.4779C197.027 24.5967 196.391 27.0312 196.391 29.718C196.391 32.4049 197.036 34.8484 198.299 36.9762C199.572 39.1131 201.344 40.7992 203.571 41.9803C205.78 43.1615 208.271 43.7566 210.961 43.7566C213.334 43.7566 215.533 43.2787 217.488 42.332C218.678 41.7549 219.733 41.0246 220.66 40.123V41.0516C220.66 44.1353 219.933 46.4164 218.497 47.832C217.06 49.2475 214.715 49.9598 211.525 49.9598C209.571 49.9598 207.671 49.6443 205.898 49.0312C204.144 48.4271 202.635 47.5705 201.417 46.4885L200.635 45.7943L200.054 46.6598L198.19 49.4279L197.763 50.068L198.336 50.591C199.845 51.9705 201.808 53.0705 204.18 53.8369C206.516 54.6033 209.025 54.982 211.634 54.982C216.415 54.982 220.069 53.7828 222.496 51.4115C224.923 49.0402 226.159 45.3975 226.159 40.5828V16.8697V15.968H225.25H221.733H220.824V16.8697V19.5115C219.896 18.6008 218.833 17.8344 217.633 17.2484C215.652 16.2656 213.406 15.7697 210.961 15.7697ZM211.325 38.7164C209.516 38.7164 207.88 38.3287 206.453 37.5713C205.044 36.8139 203.926 35.75 203.135 34.3976C202.344 33.0361 201.935 31.4582 201.935 29.718C201.935 27.9689 202.335 26.4 203.135 25.0385C203.926 23.6861 205.035 22.6312 206.444 21.8918C207.871 21.1435 209.516 20.7648 211.325 20.7648C213.161 20.7648 214.824 21.1525 216.251 21.9189C217.669 22.6762 218.778 23.7312 219.569 25.0746C220.36 26.418 220.76 27.9779 220.76 29.7271C220.76 31.4762 220.36 33.0451 219.56 34.4066C218.769 35.759 217.651 36.823 216.215 37.5803C214.788 38.3287 213.134 38.7164 211.325 38.7164Z" fill="#8ABC95"/>
<path d="M245.884 44.5861C243.03 44.5861 240.457 43.973 238.239 42.7557C236.021 41.5385 234.258 39.8344 233.022 37.6795C231.777 35.5336 231.149 33.0721 231.149 30.3672C231.149 27.6623 231.749 25.2098 232.94 23.0639C234.131 20.918 235.785 19.2139 237.876 18.0148C239.957 16.8156 242.321 16.2115 244.911 16.2115C247.502 16.2115 249.856 16.8156 251.919 18.0148C253.983 19.2139 255.628 20.909 256.8 23.0369C257.973 25.1648 258.564 27.6353 258.564 30.3582L258.491 31.9361H235.785C236.067 34.3885 237.094 36.4082 238.848 37.95C240.721 39.591 243.13 40.4295 246.002 40.4295C247.62 40.4295 249.129 40.141 250.483 39.5639C251.828 38.9959 253.01 38.1484 253.992 37.0394L254.337 36.6517L257 39.6902L256.755 39.9877C255.5 41.4754 253.919 42.6205 252.056 43.3959C250.174 44.1984 248.111 44.5861 245.884 44.5861ZM254.073 28.3385C253.764 26.0213 252.819 24.0918 251.237 22.6221C249.556 21.0533 247.42 20.2598 244.902 20.2598C242.411 20.2598 240.294 21.0533 238.612 22.6221C237.039 24.0918 236.085 26.0123 235.776 28.3385H254.073Z" fill="#8ABC95"/>
<path d="M244.902 16.6713C247.42 16.6713 249.683 17.2574 251.683 18.4205C253.683 19.5836 255.255 21.1976 256.391 23.2713C257.527 25.3451 258.1 27.7164 258.1 30.3853L258.046 31.5123H235.276C235.485 34.3164 236.567 36.5885 238.539 38.3107C240.503 40.0418 242.993 40.8984 245.993 40.8984C247.683 40.8984 249.238 40.6008 250.647 39.9967C252.065 39.4017 253.283 38.518 254.319 37.3549L256.391 39.7172C255.182 41.1508 253.673 42.2508 251.865 42.9992C250.056 43.7566 248.065 44.1262 245.884 44.1262C243.093 44.1262 240.612 43.5402 238.457 42.359C236.303 41.1779 234.622 39.5459 233.413 37.4541C232.204 35.3623 231.604 33.009 231.604 30.3672C231.604 27.7344 232.186 25.3721 233.34 23.2803C234.494 21.1885 236.085 19.5656 238.103 18.4025C240.112 17.2574 242.384 16.6713 244.902 16.6713ZM254.573 28.7894C254.328 26.1205 253.319 23.9566 251.546 22.2976C249.765 20.6385 247.556 19.809 244.893 19.809C242.266 19.809 240.066 20.6385 238.294 22.2976C236.512 23.9566 235.503 26.1205 235.267 28.7894H254.573ZM244.902 15.7697C242.23 15.7697 239.794 16.4008 237.639 17.6361C235.485 18.8803 233.767 20.6385 232.54 22.8566C231.313 25.0656 230.695 27.5992 230.695 30.3762C230.695 33.1623 231.349 35.6959 232.631 37.9139C233.913 40.141 235.731 41.8992 238.03 43.1615C240.312 44.4148 242.957 45.0459 245.893 45.0459C248.174 45.0459 250.31 44.6402 252.219 43.8467C254.155 43.0443 255.8 41.8541 257.091 40.3033L257.591 39.7172L257.082 39.1402L255.01 36.7779L254.328 36.0025L253.637 36.7779C252.692 37.8328 251.565 38.6443 250.292 39.1853C249.001 39.7353 247.547 40.0148 245.993 40.0148C243.193 40.0148 240.957 39.2394 239.139 37.6525C237.567 36.273 236.63 34.5598 236.294 32.423H258.046H258.918L258.955 31.5664L259.009 30.4394C259.009 27.5902 258.4 25.0566 257.191 22.8566C255.982 20.6476 254.282 18.9074 252.146 17.6631C250.001 16.4008 247.565 15.7697 244.902 15.7697ZM236.303 27.8877C236.658 25.8861 237.521 24.2631 238.921 22.9557C240.539 21.441 242.493 20.7107 244.893 20.7107C247.329 20.7107 249.301 21.441 250.919 22.9557C252.319 24.2631 253.183 25.8861 253.537 27.8877H236.303Z" fill="#8ABC95"/>
<path d="M71.6263 36.0295H55.3195V29.4566H62.5639C64.0183 29.4566 65.1999 28.2844 65.1999 26.8418V24.4795C65.1999 23.0369 64.0183 21.8648 62.5639 21.8648H55.3195V15.8057H70.9537C72.408 15.8057 73.5897 14.6336 73.5897 13.191V10.5672C73.5897 9.1246 72.408 7.95247 70.9537 7.95247H49.9203V1.24427C49.9203 0.568041 49.3658 0.0180409 48.6841 0.0180409L28.6142 8.07079e-06C19.2246 -0.00900832 11.6166 7.53771 11.6075 16.8516V21.8467H2.64508C1.18165 21.8467 0 23.0279 0 24.4705V26.6435C0 28.0951 1.18165 29.2672 2.64508 29.2672H11.5984V34.7041C11.5893 44.018 19.1973 51.5738 28.5869 51.5738L48.6568 51.5828C49.3385 51.5828 49.893 51.0328 49.893 50.3566V43.8828H71.6263C73.0807 43.8828 74.2623 42.7107 74.2623 41.268V38.6443C74.2623 37.1926 73.0807 36.0295 71.6263 36.0295Z" fill="#8ABC95"/>
</g>
<defs>
<clipPath id="clip0">
<rect width="259" height="55" fill="white"/>
</clipPath>
</defs>
</svg>
